<svg xmlns="http://www.w3.org/2000/svg" xmlns:xlink="http://www.w3.org/1999/xlink" width="500" zoomAndPan="magnify" viewBox="0 0 375 374.999991" height="500" preserveAspectRatio="xMidYMid meet" version="1.0"><defs><clipPath id="2d153a92a4"><path d="M 10.546875 20 L 364.546875 20 L 364.546875 375 L 10.546875 375 Z M 10.546875 20 " clip-rule="nonzero"/></clipPath></defs><path fill="#ffffff" d="M 198.964844 86.917969 L 190.324219 86.917969 L 190.324219 58.519531 L 198.964844 58.519531 L 198.964844 86.917969 " fill-opacity="1" fill-rule="nonzero"/><path fill="#ffffff" d="M 198.964844 321.484375 L 190.324219 321.484375 L 190.324219 293.089844 L 198.964844 293.089844 L 198.964844 321.484375 " fill-opacity="1" fill-rule="nonzero"/><path fill="#ffffff" d="M 297.730469 194.324219 L 297.730469 185.679688 L 326.128906 185.679688 L 326.128906 194.324219 L 297.730469 194.324219 " fill-opacity="1" fill-rule="nonzero"/><path fill="#ffffff" d="M 63.164062 194.324219 L 63.164062 185.679688 L 91.5625 185.679688 L 91.5625 194.324219 L 63.164062 194.324219 " fill-opacity="1" fill-rule="nonzero"/><path fill="#ffffff" d="M 297.800781 245.226562 L 300.816406 239.042969 L 313.875 245.425781 L 310.851562 251.605469 L 297.800781 245.226562 " fill-opacity="1" fill-rule="nonzero"/><path fill="#ffffff" d="M 74.597656 136.140625 L 77.429688 130.339844 L 90.183594 136.578125 L 87.351562 142.371094 L 74.597656 136.140625 " fill-opacity="1" fill-rule="nonzero"/><path fill="#ffffff" d="M 249.984375 293.648438 L 255.929688 290.199219 L 263.222656 302.757812 L 257.277344 306.214844 L 249.984375 293.648438 " fill-opacity="1" fill-rule="nonzero"/><path fill="#ffffff" d="M 125.238281 78.804688 L 130.824219 75.5625 L 137.949219 87.839844 L 132.363281 91.082031 L 125.238281 78.804688 " fill-opacity="1" fill-rule="nonzero"/><path fill="#ffffff" d="M 138.664062 293.746094 L 144.808594 296.835938 L 138.285156 309.820312 L 132.144531 306.730469 L 138.664062 293.746094 " fill-opacity="1" fill-rule="nonzero"/><path fill="#ffffff" d="M 250.179688 71.75 L 255.945312 74.644531 L 249.570312 87.332031 L 243.800781 84.433594 L 250.179688 71.75 " fill-opacity="1" fill-rule="nonzero"/><path fill="#ffffff" d="M 89.148438 242.242188 L 92.355469 248.328125 L 79.5 255.09375 L 76.292969 249.007812 L 89.148438 242.242188 " fill-opacity="1" fill-rule="nonzero"/><path fill="#ffffff" d="M 308.964844 126.476562 L 311.964844 132.183594 L 299.40625 138.796875 L 296.398438 133.089844 L 308.964844 126.476562 " fill-opacity="1" fill-rule="nonzero"/><path fill="#ffffff" d="M 212.65625 194.324219 C 212.65625 204.273438 204.59375 212.339844 194.644531 212.339844 C 184.695312 212.339844 176.625 204.273438 176.625 194.324219 C 176.625 184.371094 184.695312 176.308594 194.644531 176.308594 C 204.59375 176.308594 212.65625 184.371094 212.65625 194.324219 " fill-opacity="1" fill-rule="nonzero"/><path fill="#ffffff" d="M 195.570312 200.265625 C 192.363281 200.265625 189.78125 197.410156 189.78125 193.890625 C 189.78125 190.375 192.363281 187.519531 195.570312 187.519531 L 289.675781 187.519531 C 292.875 187.519531 295.464844 190.375 295.464844 193.890625 C 295.464844 197.410156 292.875 200.265625 289.675781 200.265625 L 195.570312 200.265625 " fill-opacity="1" fill-rule="nonzero"/><path fill="#ffffff" d="M 198.484375 191.664062 C 196.1875 193.886719 193.585938 194.914062 192.671875 193.972656 C 191.757812 193.03125 192.886719 190.46875 195.179688 188.242188 L 262.882812 122.878906 C 265.179688 120.648438 267.789062 119.617188 268.695312 120.554688 C 269.609375 121.496094 268.480469 124.066406 266.1875 126.285156 L 198.484375 191.664062 " fill-opacity="1" fill-rule="nonzero"/><path fill="#ffffff" d="M 199.070312 189.484375 C 200.851562 191.265625 200.28125 194.722656 197.796875 197.210938 C 195.3125 199.699219 191.847656 200.269531 190.070312 198.492188 L 137.65625 146.070312 C 135.871094 144.292969 136.445312 140.839844 138.929688 138.347656 C 141.421875 135.859375 144.875 135.285156 146.660156 137.066406 L 199.070312 189.484375 " fill-opacity="1" fill-rule="nonzero"/><g clip-path="url(#2d153a92a4)"><path fill="#ffffff" d="M 208.648438 347.230469 C 115.78125 347.574219 39.246094 292.667969 38.058594 181.574219 C 37.175781 98.980469 117.167969 26.488281 198.441406 21.222656 C 194.824219 21.003906 191.175781 20.855469 187.5 20.855469 C 89.777344 20.855469 10.5625 100.066406 10.5625 197.792969 C 10.5625 295.507812 89.777344 374.726562 187.5 374.726562 C 285.21875 374.726562 364.4375 295.507812 364.4375 197.792969 C 364.4375 194.117188 364.289062 190.472656 364.070312 186.847656 C 358.804688 268.121094 291.253906 346.929688 208.648438 347.230469 " fill-opacity="1" fill-rule="nonzero"/></g><path fill="#ffffff" d="M 168.792969 0.390625 L 205.828125 23.332031 L 172.449219 46.25 L 180.847656 22.289062 L 168.792969 0.390625 " fill-opacity="1" fill-rule="nonzero"/></svg>