<svg width="85" height="85" viewBox="0 0 85 85" fill="none" xmlns="http://www.w3.org/2000/svg">
<mask id="mask0_155_65" style="mask-type:luminance" maskUnits="userSpaceOnUse" x="1" y="28" width="34" height="22">
<path d="M1.27539 28.3334H34.9071V49.8667H1.27539V28.3334Z" fill="white"/>
</mask>
<g mask="url(#mask0_155_65)">
<path d="M13.8754 35.1555L14.2437 46.3994L10.4488 46.5234L10.0805 35.2795L13.8754 35.1555ZM34.7509 37.7507C34.719 36.782 34.2267 35.971 33.39 35.4955C33.8601 34.9678 34.1045 34.2949 34.0806 33.5795C34.0567 32.8455 33.7468 32.1637 33.2094 31.6599C32.6719 31.1561 31.9707 30.8922 31.2358 30.9161L26.5501 31.1056C26.1765 31.118 25.8825 31.4314 25.8949 31.8051C25.9011 31.9857 25.9773 32.1531 26.1092 32.277C26.2411 32.401 26.4138 32.4665 26.5953 32.4603L31.2809 32.2708C31.6546 32.2584 32.0105 32.3921 32.2832 32.648C32.5568 32.9048 32.7144 33.251 32.7268 33.6237C32.7507 34.3631 32.1938 34.9952 31.4598 35.0634L31.3704 35.0696L31.3712 35.0909C31.0941 35.1812 30.8984 35.4433 30.9046 35.7514V35.7567C30.9153 36.0604 31.1278 36.3136 31.4093 36.3889L31.4111 36.4243H31.4173C31.4775 36.4217 31.5386 36.4172 31.6006 36.411C32.4435 36.3907 33.3643 36.8139 33.3962 37.7949C33.4219 38.5644 32.8171 39.2116 32.0495 39.2399L31.8591 39.2479H31.8511C31.8104 39.2479 31.7644 39.2479 31.7148 39.2541L31.4554 39.2886L31.4571 39.3347C31.2322 39.4542 31.0879 39.6942 31.0959 39.9545C31.1083 40.3263 31.4217 40.6194 31.7936 40.607L31.8777 40.6035C32.6347 40.6061 33.2457 41.1994 33.2713 41.9573C33.2829 42.33 33.1492 42.686 32.8933 42.9587C32.6374 43.2323 32.2903 43.3899 31.9175 43.4023C31.9025 43.4023 31.6165 43.4209 31.4456 43.4324C31.2668 43.4386 31.1003 43.5147 30.9772 43.6458C30.8542 43.7777 30.7895 43.9495 30.7948 44.1292C30.8072 44.4905 31.0968 44.7756 31.4571 44.7826L31.5412 44.7906C32.0858 44.8384 32.5099 45.2873 32.5276 45.8345C32.5373 46.1232 32.4337 46.3985 32.2354 46.6101C32.038 46.8218 31.7697 46.9431 31.4793 46.9528L27.8331 47.1086C27.8128 47.1095 27.7924 47.1113 27.7711 47.1131L27.7251 47.1148C27.7207 47.1148 26.8025 47.1423 23.0342 47.2476C20.7321 47.3123 19.5598 46.7341 18.5256 46.2232C17.6429 45.7876 16.8079 45.375 15.5427 45.3892L15.2283 35.8098C16.8504 35.5672 17.8899 34.5685 19.3136 33.1987C20.1725 32.3744 21.1447 31.4394 22.4834 30.4451C22.4861 30.4442 22.4879 30.4424 22.4887 30.4415C22.4958 30.4353 22.5029 30.43 22.51 30.4238L22.5144 30.4212C22.5215 30.415 22.5295 30.4079 22.5374 30.4017C22.9837 29.9988 23.561 29.7669 24.1631 29.7465C24.5854 29.7332 25.0078 29.8244 25.3823 30.0112C25.3982 30.0192 25.4761 30.0652 25.5594 30.1148C26.343 30.5806 26.6697 30.7523 26.8051 30.7691C26.8291 30.7727 26.8459 30.7753 26.8583 30.7771C26.9025 30.7824 26.9114 30.7833 26.9442 30.7824H26.9548C27.1354 30.7762 27.3028 30.7001 27.4258 30.5682C27.5498 30.4353 27.6144 30.2636 27.6091 30.083C27.6029 29.9112 27.5294 29.7483 27.3948 29.6119C27.2647 29.48 26.0756 28.8434 26.0632 28.8372C25.4682 28.5237 24.7953 28.3697 24.1188 28.3927C23.2104 28.4219 22.3365 28.7699 21.6565 29.372C20.2584 30.4114 19.2579 31.373 18.3751 32.2221C17.1417 33.4077 16.3076 34.2099 15.1841 34.441C15.169 34.0771 14.8618 33.7911 14.497 33.8026L10.0371 33.9496L10.0274 33.6503C10.0212 33.4723 9.94682 33.3085 9.81666 33.1863C9.6865 33.065 9.51739 33.0013 9.34031 33.0066L1.93114 33.2492C1.56458 33.2616 1.27593 33.5697 1.28744 33.9363C1.29984 34.3028 1.60796 34.5915 1.97453 34.58L8.71874 34.3586L9.16942 48.1269L2.42609 48.3473C2.05864 48.3597 1.76999 48.6678 1.78239 49.0344C1.78859 49.2124 1.86296 49.3771 1.99312 49.4984C2.12239 49.6197 2.2915 49.6834 2.46947 49.6781L9.87775 49.4355C10.2452 49.4231 10.5338 49.115 10.5215 48.7484L10.4922 47.8542L14.9521 47.7081C15.13 47.7019 15.2947 47.6275 15.416 47.4973C15.5382 47.3681 15.6011 47.1981 15.5958 47.021L15.5869 46.7438C16.5131 46.7412 17.1408 47.0502 17.9262 47.4389C18.4867 47.7151 19.1215 48.0286 19.9414 48.2597C20.8764 48.5235 21.9008 48.6351 23.0722 48.6023L23.8346 48.5811C23.885 48.5908 23.9355 48.5952 23.9869 48.5935L27.865 48.466C27.8685 48.4669 27.873 48.4669 27.8792 48.466L31.5253 48.311C31.6138 48.3084 31.7006 48.3004 31.7865 48.288C33.0048 48.1171 33.9266 47.0475 33.8858 45.7902C33.8681 45.2448 33.6813 44.7446 33.3431 44.332C34.1709 43.8122 34.6579 42.902 34.6251 41.9121C34.6012 41.1719 34.2798 40.4769 33.7362 39.9766C34.4029 39.4338 34.7792 38.6157 34.7509 37.7507Z" fill="white"/>
</g>
<mask id="mask1_155_65" style="mask-type:luminance" maskUnits="userSpaceOnUse" x="21" y="49" width="24" height="36">
<path d="M21.2207 49.3593H44.841V84.9894H21.2207V49.3593Z" fill="white"/>
</mask>
<g mask="url(#mask1_155_65)">
<path d="M37.5736 72.2969L36.5191 75.9448L25.7117 72.8202L26.7662 69.1732L37.5736 72.2969ZM43.0641 53.4278C42.5399 53.2764 42.0069 53.2994 41.5102 53.4933C41.2711 52.5459 40.5557 51.8013 39.6048 51.5259C38.8938 51.3205 38.1323 51.4117 37.4895 51.7729C37.1787 50.9716 36.5164 50.3607 35.6859 50.1208C34.7545 49.8516 33.8301 50.0694 33.12 50.7175C32.7641 50.1084 32.1992 49.6683 31.5121 49.4691C30.052 49.0476 28.5211 49.8914 28.0997 51.3524L26.8318 55.8671C26.7813 56.0407 26.8017 56.223 26.8893 56.3824C26.977 56.5409 27.1213 56.656 27.2948 56.7065C27.4684 56.7561 27.6508 56.7357 27.8101 56.648C27.9686 56.5604 28.0837 56.417 28.1342 56.2416L29.4012 51.7278C29.5048 51.3692 29.743 51.0717 30.0706 50.8911C30.3982 50.7096 30.7772 50.6671 31.1358 50.7715C31.845 50.9761 32.2744 51.7012 32.1133 52.4211L32.0911 52.507L32.1115 52.5132C32.1115 52.8053 32.301 53.0719 32.5958 53.1613L32.6003 53.1622C32.8924 53.2472 33.1988 53.1223 33.3573 52.8779L33.3918 52.8877L33.3936 52.8815C33.4104 52.823 33.4255 52.7637 33.4379 52.7035C33.6787 51.8951 34.3667 51.1505 35.3096 51.4232C36.0489 51.6366 36.4775 52.4104 36.2668 53.1507L36.2154 53.3339L36.2136 53.341C36.2004 53.38 36.1871 53.4234 36.1773 53.4729L36.1295 53.7297L36.1747 53.7421C36.2181 53.9936 36.4022 54.2052 36.6519 54.2778C37.0105 54.3814 37.385 54.1742 37.4895 53.8165L37.5108 53.735C37.7472 53.0161 38.5007 52.6176 39.2285 52.8284C39.5871 52.932 39.8846 53.1692 40.0652 53.4969C40.2458 53.8253 40.2883 54.2034 40.1847 54.562C40.1803 54.5762 40.1104 54.8542 40.0679 55.0198C39.966 55.3775 40.1732 55.7511 40.53 55.8538C40.8762 55.9548 41.2375 55.7662 41.3553 55.4262L41.3898 55.3491C41.6032 54.8453 42.161 54.5806 42.6869 54.7329C43.2607 54.8985 43.5927 55.5005 43.4262 56.0761L42.4479 59.5921C42.4425 59.6115 42.4372 59.6319 42.4337 59.6523L42.4204 59.6965C42.4195 59.701 42.1512 60.6174 41.0976 64.1989C40.4468 66.408 39.5348 67.3439 38.73 68.17C38.042 68.8748 37.3921 69.5415 37.0141 70.7492L27.8075 68.0885C28.0775 66.47 27.4489 65.1728 26.5865 63.3958C26.0668 62.3245 25.478 61.1105 24.9467 59.531L24.9449 59.5239C24.9414 59.515 24.9387 59.5071 24.9352 59.4982L24.9325 59.4929C24.929 59.4832 24.9263 59.4752 24.9219 59.4654C24.6767 58.9165 24.6342 58.2958 24.8015 57.7176C24.9193 57.3103 25.1362 56.9376 25.4301 56.6392C25.4425 56.6268 25.5107 56.5666 25.5833 56.5028C26.2686 55.9016 26.5325 55.644 26.5909 55.5209C26.6007 55.4988 26.6086 55.4837 26.6139 55.4722C26.6334 55.4324 26.637 55.4235 26.6458 55.3916L26.6485 55.3819C26.7521 55.0233 26.5449 54.6479 26.1863 54.5443C26.0207 54.4965 25.8436 54.516 25.6719 54.601C25.5054 54.6851 24.5332 55.6192 24.5235 55.6289C24.0418 56.0982 23.6876 56.6905 23.4999 57.3413C23.2476 58.2135 23.3078 59.1529 23.6699 59.9852C24.2269 61.6365 24.8325 62.8849 25.3673 63.9873C26.1137 65.5261 26.6184 66.5674 26.4909 67.7078C26.1402 67.6095 25.7737 67.8132 25.6727 68.1638L24.4332 72.451L24.1454 72.3677C23.9754 72.3182 23.7957 72.3385 23.6398 72.4244C23.484 72.5103 23.3707 72.6511 23.322 72.822L21.2625 79.9434C21.1607 80.2958 21.3652 80.665 21.7176 80.7677C21.8876 80.8164 22.0673 80.7969 22.2232 80.711C22.379 80.6251 22.4923 80.4835 22.5419 80.3126L24.4155 73.8304L37.6489 77.6563L35.7754 84.1385C35.7258 84.3094 35.7453 84.4891 35.8311 84.644C35.9179 84.8008 36.0587 84.9132 36.2296 84.9628C36.3208 84.9894 36.4146 84.9956 36.5058 84.9823C36.5855 84.9716 36.6634 84.946 36.7351 84.9061C36.891 84.8202 37.0043 84.6786 37.0539 84.5077L39.1125 77.3872C39.1621 77.2163 39.1408 77.0365 39.0558 76.8807C38.9699 76.7249 38.8283 76.6124 38.6583 76.5628L37.7976 76.314L39.0372 72.0277C39.0868 71.8569 39.0664 71.6771 38.9806 71.5213C38.8947 71.3654 38.753 71.2521 38.583 71.2034L38.3165 71.1264C38.6007 70.2436 39.0886 69.7425 39.7004 69.1156C40.136 68.6685 40.6301 68.1611 41.1038 67.4528C41.643 66.6453 42.0662 65.7059 42.3974 64.5814L42.6125 63.8491C42.6373 63.8049 42.6577 63.7579 42.6719 63.7084L43.7494 59.9816C43.7503 59.9772 43.7521 59.9728 43.753 59.9675L44.7322 56.4524C45.1059 55.1588 44.3577 53.8023 43.0641 53.4278Z" fill="white"/>
</g>
<path d="M72.5924 60.2083L66.2811 69.522L63.1379 67.3917L69.4491 58.0789L72.5924 60.2083ZM81.1818 62.7725C81.1482 62.5981 81.0481 62.4467 80.902 62.3466L74.7652 58.1887C74.6182 58.0887 74.4411 58.0524 74.2667 58.086C74.0914 58.1196 73.94 58.2188 73.8417 58.3658L73.3388 59.1069L69.6448 56.6038C69.4978 56.5038 69.3199 56.4675 69.1463 56.5011C68.971 56.5347 68.8205 56.6339 68.7204 56.7809L68.5646 57.0111C67.8129 56.4683 67.4879 55.8486 67.0807 55.0729C66.7902 54.5204 66.4609 53.8936 65.9332 53.2242C65.3311 52.4618 64.5687 51.7694 63.6019 51.1071L62.9723 50.6759C62.9369 50.6388 62.8988 50.6051 62.8554 50.5759L59.644 48.4004C59.6414 48.3978 59.6378 48.3951 59.6325 48.3916L56.5911 46.3746C55.4773 45.6193 53.9552 45.9115 53.2 47.0263C52.8936 47.4778 52.7511 47.9922 52.7821 48.5244C51.8072 48.4589 50.8775 48.9095 50.3224 49.7286C49.9071 50.3413 49.7584 51.093 49.9036 51.8172C49.0456 51.8642 48.2602 52.3051 47.775 53.0214C47.2314 53.8236 47.1526 54.7701 47.5501 55.6467C46.8595 55.7963 46.2672 56.1974 45.8652 56.7898C45.4526 57.398 45.3021 58.132 45.4411 58.8554C45.5801 59.5788 45.9918 60.2039 46.6018 60.6174L50.503 63.2179C50.6535 63.3197 50.8341 63.3569 51.0121 63.3224C51.1892 63.2878 51.3433 63.1869 51.4442 63.0373C51.654 62.7274 51.5735 62.305 51.2627 62.0952L47.3607 59.4947C46.7214 59.0617 46.554 58.1896 46.987 57.5503C47.4014 56.9385 48.223 56.7543 48.8579 57.1306L48.934 57.1776L48.9455 57.1599C49.2236 57.2502 49.5352 57.1528 49.7105 56.9004L49.7141 56.896C49.8841 56.6437 49.8611 56.3143 49.6778 56.0876L49.6973 56.0584L49.692 56.0549C49.6415 56.0203 49.5892 55.9876 49.5361 55.9566C48.842 55.4784 48.3461 54.5948 48.8968 53.782C49.3289 53.1445 50.1984 52.9763 50.8368 53.4057L50.9944 53.5102L51.0006 53.5155C51.0334 53.5385 51.0705 53.5659 51.1148 53.5899L51.3441 53.7147L51.3698 53.6757C51.623 53.712 51.8807 53.6023 52.0268 53.3871C52.1277 53.2375 52.1649 53.0577 52.1304 52.8806C52.0967 52.7027 51.9958 52.5495 51.8462 52.4486L51.7753 52.4025C51.1653 51.9554 51.0192 51.116 51.4442 50.4882C51.654 50.1801 51.971 49.9703 52.3393 49.9003C52.7077 49.8295 53.0796 49.9056 53.3895 50.1155C53.401 50.1234 53.6436 50.2766 53.7879 50.3678C53.9366 50.4679 54.1164 50.5042 54.2926 50.4705C54.4697 50.436 54.6228 50.3351 54.7238 50.1863C54.9265 49.887 54.8592 49.4859 54.5724 49.269L54.5104 49.2124C54.0969 48.8538 54.0181 48.2419 54.3245 47.7877C54.4874 47.5487 54.7326 47.3875 55.0168 47.3326C55.302 47.2777 55.5906 47.337 55.8305 47.5L58.872 49.5169C58.8888 49.5284 58.9065 49.5391 58.9251 49.5497L58.9623 49.5754C58.9685 49.5789 59.7892 50.1394 62.836 52.2254C64.7361 53.5261 65.3443 54.6833 65.8818 55.7042C66.3396 56.5755 66.7725 57.4007 67.804 58.1329L62.4278 66.0663C60.973 65.3092 59.5449 65.5067 57.5881 65.7776C56.4087 65.9405 55.0726 66.1247 53.4054 66.1424C53.4027 66.1424 53.4001 66.1424 53.3992 66.1424C53.3895 66.1424 53.3797 66.1433 53.3726 66.1442H53.3647C53.3549 66.1451 53.3461 66.1451 53.3354 66.1459C52.7378 66.2097 52.1339 66.0583 51.6354 65.7209C51.2857 65.4828 50.9979 65.1614 50.8049 64.7904C50.797 64.7744 50.7607 64.6903 50.7226 64.6027C50.3622 63.7642 50.1993 63.4339 50.1001 63.3401C50.0824 63.3232 50.07 63.3117 50.0603 63.3029C50.0284 63.2719 50.0222 63.2666 49.9939 63.248L49.9859 63.2418C49.6769 63.0328 49.2554 63.1143 49.0456 63.4233C48.9491 63.5658 48.9137 63.7403 48.942 63.9298C48.9695 64.1166 49.5574 65.3269 49.5636 65.3393C49.862 65.9432 50.3153 66.4629 50.8758 66.8428C51.6275 67.3519 52.5395 67.5848 53.4435 67.4971C55.1851 67.4776 56.5601 67.2881 57.774 67.1199C59.4678 66.8853 60.6145 66.7277 61.6592 67.2005C61.4574 67.5042 61.5379 67.915 61.8399 68.1204L65.5338 70.6235L65.3665 70.8714C65.1611 71.1751 65.2408 71.5895 65.5436 71.7958L71.6804 75.9537C71.8176 76.0476 71.9814 76.0856 72.1452 76.0617C72.1567 76.0608 72.1683 76.0591 72.1798 76.0564C72.3542 76.0228 72.5056 75.9236 72.6048 75.7766C72.7048 75.6296 72.7411 75.4526 72.7075 75.2772C72.6738 75.1028 72.5738 74.9514 72.4268 74.8523L66.8416 71.0671L74.5695 59.6638L80.1547 63.449C80.3026 63.5481 80.4797 63.5844 80.6541 63.5508C80.8285 63.5171 80.9799 63.418 81.0791 63.271C81.1791 63.124 81.2154 62.9469 81.1818 62.7725Z" fill="white"/>
<mask id="mask2_155_65" style="mask-type:luminance" maskUnits="userSpaceOnUse" x="49" y="13" width="35" height="34">
<path d="M49.7168 13.6682H83.7248V46.5162H49.7168V13.6682Z" fill="white"/>
</mask>
<g mask="url(#mask2_155_65)">
<path d="M75.6837 29.9466L72.6865 32.2779L65.7794 23.3971L68.7765 21.0667L75.6837 29.9466ZM83.586 25.8648C83.3602 25.5753 82.9414 25.523 82.6519 25.7479L77.3261 29.8908L68.8686 19.017L74.1953 14.875C74.3352 14.7661 74.4237 14.6085 74.4458 14.4323C74.4689 14.2552 74.4202 14.0808 74.3113 13.9409C74.2024 13.801 74.0448 13.7116 73.8686 13.6894C73.6915 13.6673 73.517 13.7151 73.3771 13.824L67.5263 18.3751C67.2368 18.6008 67.1837 19.0196 67.4094 19.3092L67.9584 20.0157L64.4362 22.7552C64.2963 22.8641 64.2069 23.0217 64.1847 23.1979C64.1626 23.375 64.2104 23.5494 64.3202 23.6893L64.4902 23.908C63.742 24.4552 63.0523 24.5739 62.1881 24.7217C61.5728 24.8271 60.8759 24.9466 60.0764 25.2415C59.1644 25.5779 58.2702 26.0888 57.3414 26.8042L56.7375 27.27C56.6906 27.2912 56.6472 27.3178 56.6065 27.3496L53.5447 29.7314C53.5412 29.7341 53.5367 29.7367 53.5323 29.7403L50.6742 32.0087C50.1606 32.4089 49.8321 32.9853 49.7516 33.6334C49.671 34.2816 49.8463 34.9217 50.2465 35.4353C50.5812 35.8665 51.0266 36.1613 51.5419 36.2959C51.178 37.2034 51.3196 38.2261 51.927 39.0079C52.3813 39.5923 53.0506 39.9659 53.7838 40.0509C53.5642 40.8824 53.7404 41.7651 54.2725 42.4478C54.8666 43.2128 55.7423 43.5802 56.6986 43.4731C56.6277 44.1761 56.8261 44.8632 57.2661 45.429C57.893 46.2347 58.882 46.5977 59.8285 46.464C60.2889 46.3994 60.7396 46.217 61.1327 45.9115L64.8116 43.0038C65.1074 42.7745 65.1605 42.3477 64.9312 42.0529C64.8205 41.9103 64.6602 41.8191 64.4805 41.797C64.2999 41.774 64.1228 41.8235 63.9793 41.9351L60.3004 44.8419C60.0056 45.0713 59.6381 45.1722 59.2671 45.1253C58.8953 45.0792 58.5641 44.8915 58.3357 44.5967C57.8815 44.0132 57.9603 43.1747 58.5137 42.6877L58.5827 42.6302L58.5686 42.6133C58.7412 42.3778 58.7448 42.0502 58.5588 41.805L58.5553 41.8014C58.3684 41.5615 58.0479 41.4809 57.7761 41.5854L57.754 41.5579L57.7487 41.5624C57.7008 41.5995 57.6539 41.6385 57.6079 41.6801C56.9376 42.1928 55.9442 42.3911 55.3412 41.6164C54.8693 41.0081 54.9773 40.1297 55.5829 39.6543L55.7317 39.5374L55.7379 39.533C55.7706 39.5091 55.8078 39.4816 55.8441 39.4471L56.0336 39.2674L56.0053 39.231C56.1177 39.0017 56.0929 38.7228 55.9327 38.5174C55.7042 38.2234 55.2792 38.1703 54.9844 38.3988L54.9197 38.4519C54.3053 38.8946 53.4624 38.7733 52.9975 38.1756C52.5229 37.5656 52.6327 36.6846 53.2428 36.2109C53.2543 36.2012 53.4747 36.0188 53.6058 35.909C53.7475 35.7983 53.8369 35.6398 53.859 35.4609C53.882 35.2821 53.8333 35.105 53.7227 34.9625C53.5004 34.6774 53.0984 34.6171 52.8036 34.8234L52.7301 34.8659C52.2617 35.1475 51.6552 35.0342 51.3188 34.6021C51.1408 34.3737 51.0629 34.0894 51.0992 33.8017C51.1355 33.5148 51.2807 33.2589 51.51 33.0801L54.3672 30.8116C54.3841 30.7992 54.4 30.7851 54.4151 30.7718L54.4514 30.7426C54.4558 30.7399 55.2367 30.136 58.1683 27.8782C59.9932 26.4722 61.2815 26.2517 62.4183 26.0578C63.3888 25.8914 64.3061 25.7338 65.3225 24.9785L71.2061 32.5435C70.0365 33.6937 69.7832 35.1121 69.4353 37.0574C69.2263 38.2288 68.989 39.5569 68.4905 41.1471L68.4888 41.1533C68.4861 41.163 68.4834 41.1719 68.4817 41.1807L68.4799 41.1869C68.4773 41.1958 68.4746 41.2046 68.4719 41.2153C68.348 41.8032 68.0177 42.33 67.5422 42.7001C67.2084 42.9595 66.8136 43.134 66.4001 43.203C66.3815 43.2057 66.292 43.2145 66.1964 43.2234C65.288 43.3066 64.9232 43.3597 64.8037 43.4253C64.7824 43.4368 64.7674 43.4456 64.7558 43.4509C64.7178 43.4722 64.7089 43.4766 64.6832 43.497L64.6753 43.5032C64.3804 43.7325 64.3273 44.1584 64.5566 44.4532C64.662 44.5896 64.8178 44.6772 65.0064 44.7091C65.1879 44.7392 66.501 44.5586 66.5391 44.5533C67.2049 44.4568 67.8398 44.1858 68.3745 43.7697C69.0917 43.2119 69.5946 42.4168 69.7903 41.5305C70.3101 39.8677 70.5544 38.5015 70.7696 37.2955C71.0706 35.6115 71.2743 34.4728 72.0473 33.6246C72.1562 33.7618 72.312 33.8504 72.4873 33.8716C72.6635 33.8938 72.8379 33.8459 72.9778 33.737L76.5009 30.9976L76.6842 31.2331C76.9091 31.5235 77.3279 31.5749 77.6174 31.35L83.4691 26.7989C83.6099 26.69 83.6984 26.5324 83.7206 26.3562C83.7427 26.18 83.6949 26.0056 83.586 25.8648Z" fill="white"/>
</g>
<path d="M42.2042 12.4179L31.6243 16.2429L30.3334 12.672L40.9132 8.84704L42.2042 12.4179ZM51.8021 20.0697C51.4931 19.2153 50.8919 18.4919 50.1101 18.0306C48.689 17.023 47.4644 16.3687 46.3842 15.7905C44.8764 14.9848 43.8555 14.4385 43.2879 13.4415C43.6297 13.3149 43.8068 12.9341 43.6828 12.5915L42.1652 8.3946L42.4468 8.29277C42.6141 8.23256 42.7478 8.11038 42.8231 7.94923C42.8983 7.78809 42.9072 7.60746 42.8461 7.441L40.3262 0.46923C40.266 0.302772 40.1438 0.169074 39.9827 0.0938137C39.8215 0.017668 39.6409 0.00969921 39.4744 0.0699076C39.3071 0.130116 39.1734 0.252303 39.0981 0.413449C39.0229 0.574595 39.014 0.75522 39.0742 0.922564L41.3683 7.26746L28.4138 11.9513L26.1197 5.60553C26.0595 5.43907 25.9373 5.30449 25.7762 5.22923C25.615 5.15397 25.4344 5.14512 25.2679 5.20532C25.1006 5.26642 24.9669 5.38772 24.8916 5.54887C24.8164 5.71001 24.8075 5.89064 24.8677 6.05798L27.3885 13.0298C27.4487 13.1962 27.5709 13.3299 27.732 13.4052C27.8923 13.4804 28.0738 13.4893 28.2403 13.4282L29.0823 13.1245L30.599 17.3214C30.6592 17.4887 30.7814 17.6215 30.9426 17.6977C31.1037 17.7729 31.2843 17.7818 31.4517 17.7207L31.712 17.6268C32.0015 18.5078 31.9006 19.1993 31.774 20.067C31.6845 20.6842 31.5827 21.3854 31.6164 22.2372C31.6544 23.2076 31.8643 24.2161 32.2574 25.3202L32.5133 26.0383C32.5195 26.0888 32.531 26.1392 32.5487 26.1879L33.868 29.8367C33.8689 29.8403 33.8706 29.8447 33.8724 29.85L35.1465 33.2695C35.6052 34.5356 37.0077 35.1935 38.2738 34.7357C38.7873 34.5498 39.2053 34.2178 39.493 33.7689C40.0942 34.2709 40.8663 34.4869 41.6287 34.3798C41.8172 34.3541 42.0058 34.3072 42.19 34.2408C42.8868 33.9885 43.4491 33.4678 43.7563 32.7967C44.4788 33.2633 45.374 33.3678 46.1868 33.0738C47.0988 32.7444 47.7177 32.0246 47.9116 31.0825C48.5579 31.3667 49.2733 31.3915 49.9471 31.148C50.6378 30.8983 51.1912 30.3928 51.5037 29.7261C51.8163 29.0585 51.8508 28.3103 51.6011 27.6188L49.9728 23.2209C49.9108 23.0509 49.7869 22.9145 49.6231 22.8384C49.4593 22.7614 49.2751 22.7525 49.1051 22.8145C48.9351 22.8756 48.7988 22.9995 48.7226 23.1633C48.6456 23.328 48.6367 23.5113 48.6987 23.6831L50.327 28.0801C50.4536 28.4316 50.4359 28.8114 50.2774 29.1505C50.118 29.4897 49.8373 29.7464 49.4858 29.873C48.7908 30.1245 48.0178 29.7907 47.7256 29.1125L47.692 29.0301L47.6725 29.0381C47.5007 28.8017 47.1908 28.6972 46.9004 28.7981L46.896 28.7999C46.6091 28.9035 46.4347 29.1842 46.4497 29.4755L46.417 29.487L46.4188 29.4932C46.4391 29.5499 46.463 29.6074 46.4869 29.6632C46.7676 30.4583 46.6498 31.4659 45.7264 31.7997C45.0021 32.0609 44.1999 31.6864 43.9352 30.9639L43.8696 30.7859L43.8679 30.7788C43.8546 30.7399 43.8404 30.6965 43.8192 30.6513L43.7058 30.4158L43.6633 30.4308C43.4801 30.2538 43.2065 30.1909 42.9621 30.2794C42.6115 30.4052 42.4291 30.7939 42.5566 31.1436L42.5867 31.2224C42.8178 31.9431 42.4415 32.709 41.7296 32.9658C41.3781 33.0933 40.9982 33.0756 40.6591 32.9162C40.32 32.7577 40.0641 32.4762 39.9366 32.1255C39.9313 32.1105 39.8259 31.8449 39.7622 31.6864C39.6347 31.3375 39.2478 31.1569 38.898 31.2826C38.5589 31.4057 38.3765 31.7696 38.4819 32.114L38.4996 32.1973C38.6227 32.7294 38.3269 33.2713 37.8116 33.4581C37.5398 33.5555 37.2458 33.5422 36.9838 33.4191C36.7217 33.2969 36.5225 33.0791 36.4242 32.8064L35.1492 29.3869C35.1421 29.3675 35.1341 29.348 35.1262 29.3294L35.1093 29.286C35.1084 29.2816 34.7888 28.3873 33.5342 24.8651C32.7612 22.6958 32.9498 21.4023 33.1154 20.261C33.257 19.287 33.3916 18.3653 32.987 17.1655L42.0005 13.9072C42.7319 15.3752 44.0033 16.0543 45.7458 16.9858C46.7951 17.5471 47.9851 18.1838 49.3433 19.148L49.3495 19.1533C49.3575 19.1586 49.3645 19.1639 49.3725 19.1683L49.3769 19.171C49.3849 19.1763 49.3929 19.1816 49.4026 19.1869C49.9232 19.4871 50.3226 19.9643 50.528 20.531C50.6714 20.9286 50.7148 21.358 50.6528 21.7724C50.6502 21.7892 50.6298 21.8777 50.6085 21.9725C50.4076 22.8623 50.3456 23.2253 50.3713 23.3599C50.3757 23.3829 50.3792 23.4006 50.381 23.413C50.389 23.4564 50.3907 23.4653 50.4022 23.4963L50.4058 23.5051C50.4669 23.6751 50.5908 23.8115 50.7546 23.8885C50.9184 23.9646 51.1026 23.9735 51.2726 23.9124C51.4338 23.854 51.5666 23.7327 51.6542 23.5636C51.741 23.398 51.9774 22.0699 51.9801 22.0566C52.0934 21.3943 52.0323 20.7072 51.8021 20.0697Z" fill="white"/>
<path d="M49.7768 44.1947C48.407 47.3946 42.7651 48.5439 41.2351 48.7998C40.3267 47.5549 37.1445 42.8179 38.6896 39.4701C38.6922 39.4648 38.6949 39.4586 38.6975 39.4533C39.0012 38.7432 39.5626 38.1951 40.2789 37.9083C40.6269 37.7692 40.9899 37.6993 41.3538 37.6993C41.739 37.6993 42.125 37.7772 42.4898 37.9339C43.4637 38.351 44.1305 39.2656 44.2296 40.321C44.2535 40.5689 44.4103 40.785 44.6396 40.8833C44.8689 40.9806 45.1336 40.9461 45.3293 40.7912C46.1625 40.1351 47.2843 39.9854 48.2574 40.4025C48.9675 40.7062 49.5156 41.2675 49.8024 41.9838C50.0893 42.7001 50.0805 43.4855 49.7768 44.1947ZM51.0668 41.4774C50.6445 40.4237 49.837 39.5976 48.7931 39.1505C47.6819 38.675 46.4387 38.7007 45.3656 39.1868C44.9769 38.0747 44.1367 37.1574 43.0255 36.6819C41.9816 36.2348 40.8261 36.2224 39.7724 36.6439C38.7214 37.0644 37.8971 37.8693 37.45 38.9079C36.9435 40.0102 36.7948 41.2914 37.0091 42.7169C37.1737 43.8193 37.5554 45.0119 38.1433 46.2622C39.1305 48.3606 40.3533 49.8959 40.4046 49.9597C40.5348 50.1226 40.7313 50.2155 40.9368 50.2155C40.9642 50.2155 40.9925 50.2138 41.0218 50.2102C41.1023 50.1996 43.0467 49.9499 45.2372 49.1787C46.5406 48.721 47.6615 48.1711 48.5691 47.546C49.7493 46.7332 50.5772 45.7858 51.0287 44.7304C51.475 43.6865 51.4892 42.531 51.0668 41.4774Z" fill="white"/>
<path d="M47.8213 41.6208C47.522 41.4924 47.1758 41.6314 47.0475 41.9307C46.92 42.2291 47.0581 42.5761 47.3574 42.7036C47.5318 42.778 47.6124 42.9808 47.538 43.1552C47.4105 43.4536 47.5486 43.7998 47.8479 43.9282C47.924 43.9609 48.0019 43.976 48.0799 43.976C48.3083 43.976 48.5252 43.8423 48.6208 43.6183C48.9511 42.8471 48.5925 41.951 47.8213 41.6208Z" fill="white"/>
</svg>
