<svg width="85" height="85" viewBox="0 0 85 85" fill="none" xmlns="http://www.w3.org/2000/svg">
<mask id="mask0_155_89" style="mask-type:luminance" maskUnits="userSpaceOnUse" x="32" y="52" width="39" height="19">
<path d="M32.6406 52.1333H70.7206V70.6668H32.6406V52.1333Z" fill="white"/>
</mask>
<g mask="url(#mask0_155_89)">
<path d="M51.6505 52.3467C44.592 52.3467 32.6973 53.5898 32.6973 58.2347V64.7779C32.6973 69.4237 44.592 70.6668 51.6505 70.6668C58.709 70.6668 70.6037 69.4237 70.6037 64.7779V58.2347C70.6037 53.5898 58.709 52.3467 51.6505 52.3467ZM67.9891 58.2347C67.6624 59.3477 61.6495 61.5063 51.6505 61.5063C50.3436 61.5063 49.1014 61.4408 47.86 61.3762L59.0358 55.4217C64.5253 56.0761 67.7279 57.4502 67.9891 58.2347ZM35.311 58.2347C35.5731 57.1226 41.6506 54.964 51.6505 54.964C52.5651 54.964 53.3496 54.964 54.1996 55.0286L43.154 60.9175C41.8472 60.7218 40.6704 60.5253 39.6248 60.1977C36.3567 59.4132 35.3765 58.4968 35.311 58.2347ZM67.9891 64.7779C67.7279 65.89 61.6495 68.0495 51.6505 68.0495C41.6506 68.0495 35.5731 65.89 35.311 64.7779V61.5063C36.2921 62.0305 37.4679 62.4227 38.9713 62.815C42.4351 63.6658 46.8799 64.1236 51.6505 64.1236C56.6177 64.1236 64.0685 63.4693 67.9891 61.5063V64.7779Z" fill="white"/>
</g>
<mask id="mask1_155_89" style="mask-type:luminance" maskUnits="userSpaceOnUse" x="60" y="14" width="25" height="38">
<path d="M60.0664 14.3969H84.9997V51.9066H60.0664V14.3969Z" fill="white"/>
</mask>
<g mask="url(#mask1_155_89)">
<path d="M78.4463 24.3419V22.2487C79.8842 22.2487 81.06 21.0711 81.06 19.6314V17.0141C81.06 15.5745 79.8842 14.3969 78.4463 14.3969H66.6817C65.2438 14.3969 64.068 15.5745 64.068 17.0141V19.6314C64.068 21.0711 65.2438 22.2487 66.6817 22.2487V24.3419C62.9568 25.0617 60.1465 28.3988 60.1465 32.3248V46.4578C60.1465 49.3363 62.499 51.6924 65.3749 51.6924H79.7532C82.629 51.6924 84.9815 49.3363 84.9815 46.4578V32.3248C84.9815 28.3988 82.1712 25.1272 78.4463 24.3419ZM66.6817 17.0141H78.4463V19.6314H66.6817V17.0141ZM75.8316 22.2487V24.2117H69.2964V22.2487H75.8316ZM68.2507 26.829H76.8773C78.8385 26.829 80.6032 27.8755 81.5833 29.4454H63.6102C64.5904 27.8755 66.2895 26.829 68.2507 26.829ZM79.7532 49.0751H65.3749C64.1326 49.0751 63.1525 48.2242 62.8258 47.1121H82.2367C81.9755 48.2242 80.9945 49.0751 79.7532 49.0751ZM82.3678 44.4948H62.7602V32.3248C62.7602 32.2592 62.7602 32.1282 62.7602 32.0627H82.3678C82.3678 32.1282 82.3678 32.2592 82.3678 32.3248V44.4948Z" fill="white"/>
</g>
<path d="M75.1778 36.6429H73.871V35.3343C73.871 34.6144 73.2822 34.0256 72.5632 34.0256C71.8442 34.0256 71.2563 34.6144 71.2563 35.3343V36.6429H69.9495C69.2305 36.6429 68.6426 37.2317 68.6426 37.9516C68.6426 38.6714 69.2305 39.2602 69.9495 39.2602H71.2563V40.5689C71.2563 41.2887 71.8442 41.8775 72.5632 41.8775C73.2822 41.8775 73.871 41.2887 73.871 40.5689V39.2602H75.1778C75.8968 39.2602 76.4847 38.6714 76.4847 37.9516C76.4847 37.2317 75.8968 36.6429 75.1778 36.6429Z" fill="white"/>
<path d="M14.8544 66.4798C18.3181 66.4798 21.7819 65.1711 24.3965 62.4883L30.605 56.2727L45.8333 41.0267C51.1263 35.7275 51.1263 27.1557 45.8333 21.8556C40.5394 16.5564 31.9774 16.5564 26.6835 21.8556L5.31223 43.3173C0.0183203 48.6165 0.0183203 57.1882 5.31223 62.4883C7.92598 65.1711 11.3906 66.4798 14.8544 66.4798ZM36.2912 20.547C39.1015 20.547 41.9118 21.5944 44.0032 23.7531C48.2514 28.0066 48.2514 34.9421 44.0032 39.1948L34.3955 48.813C34.9834 45.0837 34.0033 41.1577 31.5197 38.1482L41.2584 28.3989C41.7808 27.8756 41.7808 27.0902 41.2584 26.5669C38.7093 24.0152 35.3101 22.5755 31.7162 22.5755C31.0628 22.5755 30.474 22.641 29.8861 22.7065C31.7162 21.2668 34.0033 20.547 36.2912 20.547ZM23.9387 28.3333C26.0301 26.2393 28.7094 25.1273 31.6507 25.1273C34.1343 25.1273 36.4869 25.9781 38.3825 27.4833L29.6249 36.2507C28.5137 35.3343 27.337 34.68 26.0956 34.1567L30.8662 29.1842C31.3895 28.661 31.324 27.8101 30.8007 27.3523C30.2783 26.829 29.4283 26.8937 28.9714 27.4178L23.2853 33.3714C21.8474 33.1102 20.4095 33.1102 18.9715 33.3714L23.9387 28.3333ZM7.14238 45.2147L13.3509 38.9991C17.5992 34.7455 24.5267 34.7455 28.7749 38.9991C33.0231 43.2517 33.0231 50.1872 28.7749 54.4399L22.5663 60.6564C18.3181 64.909 11.3906 64.909 7.14238 60.6564C2.89415 56.4028 2.89415 49.4674 7.14238 45.2147Z" fill="white"/>
<path d="M8.12191 55.814C8.84087 55.7485 9.36327 55.0941 9.23311 54.3743C9.03655 53.0665 9.10207 51.8225 9.42879 50.5148C9.55983 49.7949 9.16759 49.1406 8.44863 48.944C7.72967 48.813 7.07624 49.2061 6.87967 49.9251C6.55295 51.4958 6.4228 53.0665 6.684 54.7019C6.74952 55.3562 7.33743 55.814 7.99087 55.814C7.99087 55.814 8.05639 55.814 8.12191 55.814Z" fill="white"/>
</svg>
