<svg width="85" height="85" viewBox="0 0 85 85" fill="none" xmlns="http://www.w3.org/2000/svg">
<g clip-path="url(#clip0_155_22)">
<mask id="mask0_155_22" style="mask-type:luminance" maskUnits="userSpaceOnUse" x="22" y="5" width="61" height="41">
<path d="M22.666 5.33197H82.7327V45.7867H22.666V5.33197Z" fill="white"/>
</mask>
<g mask="url(#mask0_155_22)">
<path d="M22.8066 29.6499V35.151C22.8066 35.9346 23.4477 36.5757 24.2313 36.5757H35.739C35.6682 37.2158 35.6319 37.8746 35.6319 38.5333V44.2301C35.6319 45.0137 36.2738 45.6547 37.0574 45.6547H68.4091C69.1927 45.6547 69.8338 45.0137 69.8338 44.2301V38.5333C69.8338 37.8746 69.7984 37.2158 69.7266 36.5757H81.2344C82.018 36.5757 82.659 35.9346 82.659 35.151V29.6499C82.659 24.2914 79.1678 19.7519 74.3405 18.1493C75.6944 16.7963 76.5134 14.9272 76.5134 12.8624C76.5134 8.71426 73.1293 5.33197 68.9785 5.33197C64.9171 5.33197 61.6038 8.554 61.4436 12.5596C60.4466 8.41145 56.7057 5.33197 52.2521 5.33197C48.0304 5.33197 44.4498 8.09093 43.2208 11.9186C42.7577 8.21577 39.5871 5.33197 35.7567 5.33197C31.6059 5.33197 28.2218 8.71426 28.2218 12.8624C28.2218 15.0167 29.1303 16.9743 30.6089 18.3458C26.0482 20.0901 22.8066 24.5048 22.8066 29.6499ZM79.8089 29.6499V33.7273H69.1387C67.8744 29.4188 64.9534 25.8046 61.1053 23.6326C62.8514 21.5856 65.4164 20.3752 68.1595 20.3752H70.5465C75.6589 20.3929 79.8089 24.5411 79.8089 29.6499ZM68.9785 8.18036C71.5621 8.18036 73.6641 10.2806 73.6641 12.8624C73.6641 15.4434 71.5621 17.5445 68.9785 17.5445C66.3957 17.5445 64.2937 15.4434 64.2937 12.8624C64.2937 10.2806 66.3957 8.18036 68.9785 8.18036ZM61.7287 14.8918C62.1032 16.227 62.8328 17.4197 63.8307 18.3458C61.711 19.1639 59.8401 20.5532 58.4509 22.4223C58.326 22.3692 58.2021 22.3329 58.0772 22.2974C60.2677 20.5709 61.711 17.9005 61.7287 14.8918ZM52.2521 8.18036C55.9035 8.18036 58.8962 11.1536 58.8962 14.821C58.8962 18.4875 55.9212 21.4607 52.2521 21.4607C48.5829 21.4607 45.6079 18.4698 45.6079 14.821C45.6079 11.1713 48.5829 8.18036 52.2521 8.18036ZM52.7328 24.2914C60.5883 24.2914 66.9836 30.6823 66.9836 38.5333V42.8063H38.4821V38.5333C38.4821 30.6823 44.8774 24.2914 52.7328 24.2914ZM42.7932 15.5151C42.9003 16.9929 43.3457 18.3812 44.0575 19.5916C43.1491 18.9683 42.1521 18.4875 41.1011 18.1493C41.8316 17.402 42.4186 16.5121 42.7932 15.5151ZM35.739 8.18036C38.3218 8.18036 40.4238 10.2806 40.4238 12.8624C40.4238 15.4434 38.3218 17.5445 35.739 17.5445C33.1563 17.5445 31.0543 15.4434 31.0543 12.8624C31.0543 10.2806 33.1563 8.18036 35.739 8.18036ZM34.92 20.3929H37.3062C40.0501 20.3929 42.5975 21.5856 44.3603 23.6504C40.5132 25.8223 37.5913 29.4366 36.327 33.745H25.6568V29.6676C25.6568 24.5411 29.8067 20.3929 34.92 20.3929Z" fill="white"/>
</g>
<mask id="mask1_155_22" style="mask-type:luminance" maskUnits="userSpaceOnUse" x="0" y="46" width="85" height="34">
<path d="M0 46.4667H84.5467V79.622H0V46.4667Z" fill="white"/>
</mask>
<g mask="url(#mask1_155_22)">
<path d="M13.2588 46.634H1.43138C0.646901 46.634 0.00585938 47.2742 0.00585938 48.0578V74.406C0.00585938 75.1887 0.646901 75.8298 1.43138 75.8298H13.2588C14.0433 75.8298 14.6843 75.1887 14.6843 74.406V72.1447H20.3846L37.289 77.5032C41.1193 78.9278 44.3431 79.622 47.5501 79.622C50.7739 79.622 53.9986 78.9101 57.8457 77.4855C57.9883 77.4324 58.1308 77.3606 58.2557 77.2544L83.0163 57.066C83.0872 56.9952 83.1589 56.9235 83.2297 56.8526C84.9935 54.663 84.904 51.3161 83.0163 49.2327C81.1454 47.1502 78.135 46.936 76.0331 48.7519L63.6709 58.7394C63.6709 58.6146 63.6709 58.4906 63.6709 58.3658C63.6177 55.3926 61.2838 52.9533 58.4513 52.9533H44.7176C43.934 52.9533 43.1859 52.4911 42.7219 51.7252C42.6157 51.5649 42.4908 51.4224 42.3305 51.2984C36.5054 47.0785 29.1485 46.2781 22.6823 49.1619L20.2952 50.2297H14.6843V48.0578C14.6843 47.2742 14.061 46.634 13.2588 46.634ZM7.13081 70.8449C6.34721 70.8449 5.70617 70.2047 5.70617 69.4211C5.70617 68.6375 6.34721 67.9965 7.13081 67.9965C7.91529 67.9965 8.55633 68.6375 8.55633 69.4211C8.55633 70.2047 7.91529 70.8449 7.13081 70.8449ZM11.8341 51.6721V72.9814H9.50018C10.6406 72.2164 11.4065 70.9166 11.4065 69.4211C11.4065 67.0712 9.48247 65.1481 7.13081 65.1481C4.78003 65.1481 2.85602 67.0712 2.85602 69.4211C2.85602 70.8989 3.6219 72.2164 4.76232 72.9814H2.85602V49.4824H11.8341V51.6721ZM20.6157 53.0958C20.8123 53.0958 21.0079 53.0604 21.1859 52.9718L23.8581 51.7783C29.3087 49.3576 35.4898 49.9986 40.4597 53.4703C41.4575 54.9472 43.0247 55.8016 44.7353 55.8016H58.469C59.752 55.8016 60.8207 56.9766 60.8384 58.4012C60.8561 59.2025 60.571 59.9498 60.0548 60.466C59.8051 60.7157 59.5023 60.9114 59.1995 61.0185C58.7896 61.0893 58.3805 61.1248 57.9706 61.1248H42.6865C41.9029 61.1248 41.2618 61.7658 41.2618 62.5494C41.2618 63.3321 41.9029 63.9731 42.6865 63.9731H58.6116C59.0392 63.9731 59.4669 63.92 59.8769 63.8129C61.6583 63.4924 63.3326 62.7097 64.8113 61.5347L77.8862 50.9602C77.9039 50.9416 77.9039 50.9416 77.9216 50.9239C78.8478 50.1235 80.1122 50.2297 80.9498 51.1381C81.8759 52.1528 81.9476 53.844 81.1277 54.9649L56.6876 74.9045C49.776 77.4324 45.2692 77.3969 38.3046 74.8151C38.2868 74.8151 38.2691 74.7974 38.2337 74.7974L21.0965 69.3494C20.9548 69.314 20.8123 69.2786 20.6697 69.2786H14.6843V53.0781H20.6157V53.0958Z" fill="white"/>
</g>
</g>
<defs>
<clipPath id="clip0_155_22">
<rect width="85" height="85" fill="white"/>
</clipPath>
</defs>
</svg>
