<svg width="85" height="85" viewBox="0 0 85 85" fill="none" xmlns="http://www.w3.org/2000/svg">
<path d="M42.7676 57.1776H17.5208C17.4464 57.1776 17.3729 57.1846 17.3012 57.1988C17.2286 57.2139 17.1578 57.2351 17.0896 57.2634C17.0214 57.2918 16.9568 57.3263 16.8948 57.367C16.8337 57.4086 16.777 57.4556 16.7248 57.5078C16.6726 57.5601 16.6256 57.6167 16.5849 57.6778C16.5433 57.7398 16.5087 57.8044 16.4804 57.8726C16.4521 57.9417 16.4308 58.0116 16.4167 58.0842C16.4016 58.1568 16.3945 58.2303 16.3945 58.3038V63.1904C16.3945 63.2648 16.4016 63.3374 16.4167 63.41C16.4308 63.4826 16.4521 63.5534 16.4804 63.6216C16.5087 63.6898 16.5433 63.7553 16.5849 63.8164C16.6256 63.8784 16.6726 63.9351 16.7248 63.9873C16.777 64.0395 16.8337 64.0865 16.8948 64.1272C16.9568 64.1688 17.0214 64.2033 17.0896 64.2317C17.1578 64.26 17.2286 64.2812 17.3012 64.2954C17.3729 64.3096 17.4464 64.3176 17.5208 64.3176H24.5474C24.5474 64.237 24.5368 64.1564 24.5368 64.0741V62.0642H18.6488V59.4292H24.5342V58.3029H30.3611V59.4292H41.6457V62.0642H30.3584V64.0723C30.3584 64.1546 30.3584 64.2361 30.3478 64.3158H42.7676C42.8419 64.3158 42.9145 64.3087 42.9871 64.2945C43.0597 64.2795 43.1297 64.2582 43.1979 64.2299C43.2669 64.2016 43.3316 64.167 43.3927 64.1263C43.4546 64.0847 43.5113 64.0378 43.5635 63.9855C43.6158 63.9333 43.6618 63.8766 43.7034 63.8146C43.7442 63.7535 43.7787 63.6889 43.807 63.6198C43.8354 63.5517 43.8566 63.4817 43.8708 63.4091C43.8849 63.3365 43.892 63.263 43.892 63.1895V58.3029C43.892 58.2285 43.8849 58.1559 43.8708 58.0833C43.8557 58.0107 43.8345 57.9408 43.8061 57.8726C43.7778 57.8035 43.7433 57.7389 43.7026 57.6778C43.6618 57.6158 43.6149 57.5592 43.5627 57.5069C43.5104 57.4547 43.4537 57.4086 43.3927 57.367C43.3307 57.3263 43.266 57.2918 43.1979 57.2634C43.1297 57.2351 43.0597 57.2139 42.9871 57.1988C42.9145 57.1846 42.8419 57.1776 42.7676 57.1776Z" fill="white"/>
<mask id="mask0_155_36" style="mask-type:luminance" maskUnits="userSpaceOnUse" x="18" y="61" width="24" height="21">
<path d="M18.8125 61.88H41.4792V81.7169H18.8125V61.88Z" fill="white"/>
</mask>
<g mask="url(#mask0_155_36)">
<path d="M41.0082 62.444C40.9011 62.3236 40.7745 62.2306 40.6275 62.1642C40.4805 62.0978 40.3264 62.065 40.1662 62.065H30.3549V64.074C30.3549 64.1564 30.3549 64.237 30.3442 64.3175H38.8956L37.0743 79.3776H23.2104L21.3874 64.3158H24.5403C24.5403 64.2361 24.5297 64.1546 24.5297 64.0723V62.0641H20.1186C20.0389 62.0641 19.9601 62.0721 19.883 62.0889C19.8051 62.1058 19.7299 62.1306 19.6573 62.1633C19.5847 62.1961 19.5165 62.2359 19.4527 62.2837C19.3881 62.3307 19.3297 62.3838 19.2774 62.444C19.2243 62.5033 19.1783 62.5679 19.1393 62.637C19.1003 62.707 19.0693 62.7796 19.0454 62.8557C19.0215 62.931 19.0065 63.0089 18.9985 63.0886C18.9914 63.1674 18.9932 63.2471 19.0021 63.3259L21.0969 80.6375C21.1138 80.7739 21.1536 80.9023 21.2174 81.0245C21.282 81.1458 21.3652 81.2529 21.4679 81.3441C21.5706 81.4353 21.6858 81.5052 21.815 81.5539C21.9434 81.6026 22.0762 81.6274 22.2135 81.6274H38.0713C38.2085 81.6274 38.3413 81.6026 38.4697 81.5539C38.5981 81.5052 38.7141 81.4353 38.8168 81.3441C38.9195 81.2529 39.0027 81.1458 39.0665 81.0245C39.1302 80.9023 39.171 80.7739 39.1878 80.6375L41.2818 63.3259C41.3013 63.1656 41.2871 63.0089 41.2393 62.8557C41.1915 62.7016 41.1145 62.5644 41.0082 62.444Z" fill="white"/>
</g>
<path d="M27.4436 68.1151C27.3116 68.1151 27.1797 68.108 27.0478 68.0947C26.9167 68.0823 26.7857 68.0629 26.6564 68.0363C26.5263 68.0106 26.3988 67.9788 26.2722 67.9398C26.1455 67.9017 26.0207 67.8566 25.8994 67.8061C25.7772 67.7556 25.6577 67.699 25.5408 67.6361C25.4239 67.5741 25.3115 67.5059 25.2008 67.4324C25.091 67.359 24.9848 67.2802 24.8829 67.196C24.7811 67.1128 24.6828 67.0234 24.589 66.9304C24.496 66.8366 24.4075 66.7383 24.3234 66.6365C24.2392 66.5338 24.1604 66.4284 24.087 66.3177C24.0135 66.2079 23.9453 66.0946 23.8833 65.9777C23.8204 65.8617 23.7647 65.7422 23.7133 65.62C23.6628 65.4978 23.6186 65.373 23.5796 65.2464C23.5415 65.1197 23.5088 64.9914 23.4831 64.8621C23.4574 64.7319 23.4379 64.6018 23.4247 64.4698C23.4114 64.3379 23.4052 64.206 23.4043 64.0741V58.3029C23.4043 58.2285 23.4114 58.1559 23.4264 58.0833C23.4406 58.0107 23.4618 57.9399 23.4902 57.8717C23.5185 57.8035 23.553 57.738 23.5947 57.6769C23.6354 57.6158 23.6823 57.5583 23.7346 57.506C23.7868 57.4538 23.8435 57.4069 23.9046 57.3661C23.9665 57.3245 24.0312 57.29 24.0993 57.2617C24.1675 57.2333 24.2384 57.2121 24.311 57.1979C24.3836 57.1837 24.4562 57.1758 24.5305 57.1758H30.3575C30.431 57.1758 30.5045 57.1837 30.5771 57.1979C30.6497 57.2121 30.7196 57.2333 30.7878 57.2617C30.856 57.29 30.9215 57.3245 30.9826 57.3661C31.0446 57.4069 31.1012 57.4538 31.1535 57.506C31.2057 57.5583 31.2526 57.6149 31.2934 57.6769C31.3341 57.738 31.3686 57.8035 31.397 57.8717C31.4253 57.9399 31.4465 58.0107 31.4616 58.0833C31.4758 58.1559 31.4828 58.2285 31.4828 58.3029V64.0723C31.4828 64.2051 31.4766 64.337 31.4634 64.4681C31.4501 64.6 31.4306 64.731 31.4049 64.8603C31.3784 64.9905 31.3465 65.1189 31.3084 65.2455C31.2695 65.3721 31.2252 65.496 31.1747 65.6191C31.1234 65.7413 31.0676 65.8608 31.0047 65.9768C30.9427 66.0937 30.8746 66.207 30.8011 66.3177C30.7276 66.4275 30.6488 66.5338 30.5647 66.6356C30.4805 66.7383 30.392 66.8357 30.299 66.9295C30.2052 67.0234 30.1078 67.1119 30.0051 67.196C29.9033 67.2802 29.797 67.359 29.6872 67.4324C29.5765 67.5059 29.4641 67.5741 29.3472 67.6361C29.2303 67.699 29.1108 67.7556 28.9886 67.8061C28.8664 67.8566 28.7425 67.9017 28.6159 67.9398C28.4892 67.9788 28.3609 68.0106 28.2316 68.0363C28.1014 68.062 27.9713 68.0815 27.8393 68.0947C27.7083 68.108 27.5764 68.1151 27.4436 68.1151ZM25.655 59.4292V64.0723C25.655 64.1901 25.6657 64.306 25.6887 64.4211C25.7117 64.5371 25.7462 64.6487 25.7905 64.7576C25.8357 64.8656 25.8905 64.9692 25.9561 65.0666C26.0216 65.1649 26.0951 65.2552 26.1783 65.3384C26.2615 65.4208 26.3518 65.4952 26.4492 65.5607C26.5475 65.6262 26.6502 65.6811 26.7583 65.7263C26.8672 65.7714 26.9787 65.8051 27.0938 65.8281C27.2089 65.8511 27.3258 65.8626 27.4427 65.8626C27.5604 65.8626 27.6764 65.8511 27.7924 65.8281C27.9075 65.8051 28.0191 65.7714 28.1271 65.7263C28.236 65.6811 28.3387 65.6262 28.437 65.5607C28.5344 65.4952 28.6247 65.4208 28.7079 65.3384C28.7912 65.2552 28.8647 65.1649 28.9302 65.0666C28.9957 64.9692 29.0506 64.8656 29.0958 64.7576C29.14 64.6487 29.1746 64.5371 29.1976 64.4211C29.2206 64.306 29.2312 64.1901 29.2312 64.0723V59.4292H25.655Z" fill="white"/>
<mask id="mask1_155_36" style="mask-type:luminance" maskUnits="userSpaceOnUse" x="0" y="3" width="85" height="29">
<path d="M0.679688 3.34686H84.773V31.5067H0.679688V3.34686Z" fill="white"/>
</mask>
<g mask="url(#mask1_155_36)">
<path d="M79.7172 31.4597C78.9637 31.458 78.2465 31.2951 77.5674 30.9683L42.7024 14.3331L7.8373 30.9683C7.69032 31.0374 7.5398 31.0994 7.38662 31.1534C7.23345 31.2083 7.07761 31.2552 6.92001 31.2942C6.7624 31.3331 6.60214 31.365 6.44188 31.388C6.28074 31.4119 6.11871 31.4279 5.95668 31.4358C5.79376 31.4429 5.63173 31.4429 5.46881 31.4349C5.30678 31.427 5.14475 31.411 4.98449 31.3862C4.82334 31.3623 4.66397 31.3305 4.50636 31.2915C4.34876 31.2517 4.19293 31.2047 4.03975 31.1498C3.88657 31.0949 3.73605 31.033 3.58907 30.963C3.44209 30.894 3.29866 30.8169 3.15964 30.7337C3.01975 30.6496 2.88428 30.5593 2.75412 30.4628C2.62308 30.3662 2.49735 30.2635 2.37694 30.1537C2.25563 30.0448 2.14053 29.9297 2.03162 29.8093C1.92183 29.6889 1.81824 29.5641 1.72084 29.433C1.62433 29.3029 1.53313 29.1683 1.44902 29.0284C1.3649 28.8894 1.28787 28.7459 1.21793 28.599C1.14798 28.452 1.08511 28.3023 1.03022 28.1492C0.974436 27.996 0.927509 27.8402 0.886779 27.6826C0.846936 27.5249 0.814175 27.3656 0.789384 27.2044C0.765477 27.0442 0.748655 26.8821 0.7398 26.7192C0.730946 26.5572 0.730061 26.3943 0.737144 26.2314C0.744227 26.0693 0.759279 25.9073 0.7823 25.7461C0.805321 25.585 0.836311 25.4256 0.874384 25.2671C0.913342 25.1086 0.959384 24.9528 1.01339 24.7996C1.0674 24.6456 1.1285 24.4951 1.19668 24.3472C1.26574 24.2002 1.341 24.0559 1.42334 23.916C1.50657 23.7752 1.596 23.6397 1.69162 23.5078C1.78725 23.3768 1.88907 23.2502 1.99798 23.1289C2.106 23.0075 2.22022 22.8916 2.33975 22.7809C2.45928 22.6702 2.58412 22.5666 2.71339 22.4683C2.84355 22.3701 2.97813 22.2789 3.11626 22.1939C3.25527 22.1089 3.39782 22.0309 3.54392 21.9601L42.2154 3.50536C42.3694 3.43276 42.5306 3.39557 42.7006 3.39557C42.8697 3.39557 43.0317 3.43276 43.1849 3.50536L81.859 21.961C82.1123 22.0823 82.354 22.224 82.5833 22.386C82.8126 22.5471 83.0269 22.7278 83.2252 22.9261C83.4244 23.1235 83.6059 23.3369 83.7689 23.5654C83.9318 23.7947 84.0743 24.0355 84.1965 24.2879C84.3196 24.5411 84.4196 24.8023 84.4985 25.0715C84.5764 25.3415 84.6313 25.616 84.664 25.8949C84.6959 26.1738 84.7048 26.4536 84.6897 26.7343C84.6747 27.0149 84.6357 27.2921 84.5737 27.5657C84.5117 27.8402 84.4276 28.1067 84.3214 28.367C84.2142 28.6264 84.0867 28.8752 83.9371 29.1134C83.7883 29.3516 83.621 29.5756 83.4342 29.7854C83.2474 29.9953 83.0446 30.1883 82.8259 30.3636C82.6063 30.5398 82.3743 30.6956 82.1291 30.832C81.8838 30.9683 81.6288 31.0826 81.3641 31.1764C81.0993 31.2694 80.8284 31.3402 80.5521 31.3871C80.275 31.4349 79.9961 31.4589 79.7154 31.4597H79.7172ZM42.7024 11.9584C42.8715 11.9584 43.0335 11.9947 43.1858 12.0682L78.5361 28.9398C78.6981 29.0169 78.8663 29.078 79.0407 29.1222C79.2143 29.1665 79.3914 29.1931 79.5711 29.2019C79.75 29.2117 79.9288 29.2037 80.1068 29.1771C80.2848 29.1515 80.4583 29.109 80.6274 29.0487C80.7965 28.9885 80.9586 28.9124 81.1126 28.8203C81.2676 28.7282 81.411 28.622 81.5447 28.5016C81.6784 28.3811 81.7988 28.2492 81.906 28.1049C82.0131 27.9615 82.1061 27.8083 82.1831 27.6454C82.2601 27.4833 82.3212 27.3151 82.3655 27.1407C82.4098 26.9662 82.4363 26.7901 82.4461 26.6103C82.4549 26.4306 82.4469 26.2517 82.4213 26.0737C82.3956 25.8958 82.3522 25.7222 82.2929 25.5531C82.2327 25.3831 82.1565 25.2211 82.0644 25.067C81.9732 24.9121 81.867 24.7678 81.7466 24.6349C81.6262 24.5012 81.4942 24.3799 81.3508 24.2728C81.2065 24.1648 81.0533 24.0727 80.8913 23.9948L42.7024 5.76937L4.51345 23.9939C4.35053 24.0709 4.19735 24.1639 4.05392 24.271C3.90959 24.3791 3.77767 24.4995 3.65725 24.6332C3.53683 24.7669 3.43058 24.9112 3.3385 25.0653C3.2473 25.2202 3.17115 25.3822 3.11095 25.5514C3.05074 25.7214 3.00824 25.8949 2.98168 26.0729C2.956 26.2508 2.94803 26.4297 2.95688 26.6094C2.96662 26.7892 2.99319 26.9662 3.03746 27.1407C3.08173 27.3151 3.14282 27.4833 3.21985 27.6454C3.29688 27.8074 3.38985 27.9615 3.49699 28.1049C3.60501 28.2492 3.72543 28.382 3.85824 28.5024C3.99194 28.6229 4.13626 28.7282 4.29032 28.8203C4.44527 28.9124 4.6073 28.9885 4.77642 29.0487C4.94553 29.109 5.11907 29.1523 5.29704 29.178C5.47501 29.2037 5.65386 29.2117 5.8336 29.2028C6.01246 29.1931 6.18954 29.1665 6.36397 29.1222C6.53839 29.078 6.70662 29.0169 6.86865 28.9398L42.2154 12.0682C42.3694 11.9947 42.5315 11.9575 42.7024 11.9584Z" fill="white"/>
</g>
<mask id="mask2_155_36" style="mask-type:luminance" maskUnits="userSpaceOnUse" x="9" y="11" width="67" height="71">
<path d="M9.74609 11.7867H75.7061V81.7169H9.74609V11.7867Z" fill="white"/>
</mask>
<g mask="url(#mask2_155_36)">
<path d="M74.4964 81.6231H10.9075C10.8331 81.6231 10.7605 81.616 10.6879 81.6018C10.6153 81.5868 10.5445 81.5655 10.4763 81.5372C10.4081 81.5089 10.3435 81.4743 10.2815 81.4336C10.2204 81.392 10.1638 81.3451 10.1115 81.2928C10.0593 81.2406 10.0123 81.1839 9.97161 81.1228C9.93 81.0608 9.89547 80.9962 9.86714 80.928C9.8388 80.859 9.81755 80.789 9.80339 80.7164C9.78922 80.6438 9.78125 80.5703 9.78125 80.4968V28.2634C9.78125 28.1572 9.7963 28.0527 9.82641 27.9509C9.85562 27.8491 9.89901 27.7534 9.95568 27.6631C10.0123 27.5737 10.0796 27.4931 10.1593 27.4223C10.239 27.3515 10.3267 27.2939 10.4223 27.2479L42.215 12.0683C42.369 11.9948 42.5302 11.9585 42.7002 11.9585C42.8693 11.9585 43.0313 11.9948 43.1845 12.0683L74.9816 27.2408C75.0772 27.2868 75.1648 27.3453 75.2445 27.4161C75.3233 27.486 75.3915 27.5666 75.4482 27.656C75.5048 27.7464 75.5482 27.842 75.5775 27.9447C75.6076 28.0465 75.6217 28.1501 75.6217 28.2564V80.4977C75.6217 80.5721 75.6146 80.6447 75.6005 80.7173C75.5863 80.7899 75.5651 80.8607 75.5367 80.9289C75.5084 80.9971 75.4739 81.0617 75.4322 81.1237C75.3915 81.1848 75.3446 81.2415 75.2923 81.2937C75.2401 81.3459 75.1834 81.3929 75.1215 81.4336C75.0604 81.4752 74.9957 81.5098 74.9276 81.5381C74.8585 81.5664 74.7885 81.5877 74.7159 81.6018C74.6433 81.616 74.5707 81.6231 74.4964 81.6231ZM12.0258 79.3715H73.3772V28.9682L42.7019 14.3332L12.0258 28.9682V79.3715Z" fill="white"/>
</g>
<path d="M70.7293 19.0232C70.5602 19.0232 70.3982 18.9869 70.2459 18.9143L62.4321 15.1823C62.3364 15.1371 62.2488 15.0787 62.1691 15.0078C62.0894 14.9379 62.0221 14.8573 61.9646 14.7679C61.9079 14.6776 61.8654 14.5819 61.8353 14.4792C61.8061 14.3774 61.791 14.2729 61.791 14.1667V4.6998C61.791 4.62543 61.7981 4.55282 61.8132 4.48022C61.8273 4.40762 61.8486 4.33678 61.8769 4.26861C61.9052 4.20043 61.9398 4.13491 61.9805 4.07381C62.0221 4.01183 62.0682 3.95517 62.1204 3.90293C62.1726 3.85069 62.2302 3.80376 62.2913 3.76303C62.3533 3.72142 62.4179 3.68689 62.4861 3.65855C62.5542 3.63022 62.6251 3.60897 62.6977 3.5948C62.7703 3.58064 62.8429 3.57267 62.9173 3.57355H70.7293C70.8028 3.57267 70.8763 3.58064 70.9489 3.5948C71.0215 3.60897 71.0923 3.63022 71.1605 3.65855C71.2287 3.68689 71.2933 3.72142 71.3553 3.76303C71.4164 3.80376 71.473 3.85069 71.5253 3.90293C71.5775 3.95517 71.6245 4.01183 71.6661 4.07381C71.7068 4.13491 71.7413 4.20043 71.7697 4.26861C71.798 4.33678 71.8192 4.40762 71.8334 4.48022C71.8476 4.55282 71.8547 4.62543 71.8547 4.6998V17.8987C71.8547 17.9722 71.8476 18.0457 71.8334 18.1183C71.8192 18.1909 71.798 18.2617 71.7697 18.3299C71.7413 18.3981 71.7068 18.4627 71.6661 18.5247C71.6245 18.5858 71.5775 18.6433 71.5253 18.6956C71.473 18.7478 71.4164 18.7948 71.3553 18.8355C71.2933 18.8762 71.2287 18.9116 71.1605 18.94C71.0923 18.9674 71.0215 18.9895 70.9489 19.0037C70.8763 19.0179 70.8028 19.025 70.7293 19.025V19.0232ZM64.0364 13.4557L69.6048 16.1128V5.8234H64.0364V13.4557Z" fill="white"/>
<mask id="mask3_155_36" style="mask-type:luminance" maskUnits="userSpaceOnUse" x="46" y="61" width="23" height="21">
<path d="M46.0137 61.6533H68.4537V81.7169H46.0137V61.6533Z" fill="white"/>
</mask>
<g mask="url(#mask3_155_36)">
<path d="M67.1988 81.623H47.2973C47.2194 81.623 47.1424 81.6151 47.0662 81.5991C46.991 81.5832 46.9166 81.5602 46.8458 81.5292C46.774 81.4973 46.7067 81.4592 46.6439 81.4141C46.5801 81.3689 46.5226 81.3176 46.4694 81.2609C46.4172 81.2034 46.3712 81.1414 46.3313 81.075C46.2915 81.0077 46.2587 80.9377 46.233 80.8642C46.2083 80.7907 46.1905 80.7155 46.1808 80.6385C46.1711 80.5605 46.1693 80.4835 46.1755 80.4056L47.1397 68.4649C47.1574 68.2426 47.1858 68.0213 47.2238 67.8008C47.2628 67.5812 47.3115 67.3634 47.3699 67.1482C47.4292 66.9322 47.4974 66.7197 47.5762 66.5107C47.655 66.3018 47.7436 66.0973 47.841 65.8963C47.9384 65.6953 48.0455 65.4996 48.1615 65.3083C48.2775 65.118 48.4023 64.9329 48.5351 64.7532C48.6688 64.5743 48.8096 64.4017 48.9592 64.2361C49.1089 64.0697 49.2656 63.9112 49.4294 63.7598C49.5932 63.6083 49.7641 63.4649 49.9421 63.3294C50.1191 63.194 50.3024 63.0665 50.4919 62.9487C50.6814 62.8301 50.8753 62.7212 51.0754 62.6202C51.2746 62.5202 51.4783 62.4299 51.6863 62.3484C51.8944 62.2669 52.1051 62.1961 52.3203 62.1341C52.5346 62.073 52.7515 62.0217 52.9711 61.9801C53.1906 61.9393 53.4111 61.9083 53.6334 61.888C53.8556 61.8667 54.0778 61.857 54.3018 61.857H60.2031C60.4263 61.857 60.6485 61.8667 60.8708 61.888C61.093 61.9083 61.3143 61.9393 61.533 61.9801C61.7526 62.0217 61.9696 62.073 62.1847 62.1341C62.399 62.1961 62.6106 62.2669 62.8178 62.3484C63.0259 62.4299 63.2295 62.5202 63.4296 62.6202C63.6288 62.7212 63.8227 62.8301 64.0122 62.9487C64.2017 63.0665 64.385 63.194 64.5629 63.3294C64.74 63.4649 64.9109 63.6083 65.0747 63.7598C65.2394 63.9112 65.3961 64.0697 65.5449 64.2361C65.6945 64.4017 65.8353 64.5743 65.969 64.7532C66.1018 64.9329 66.2266 65.118 66.3426 65.3083C66.4586 65.4996 66.5658 65.6953 66.6631 65.8963C66.7614 66.0973 66.8491 66.3018 66.9279 66.5107C67.0067 66.7197 67.0749 66.9322 67.1342 67.1482C67.1926 67.3634 67.2413 67.5812 67.2803 67.8008C67.3192 68.0213 67.3467 68.2426 67.3653 68.4649L68.3286 80.4056C68.3348 80.4835 68.333 80.5605 68.3233 80.6376C68.3136 80.7155 68.2959 80.7907 68.2702 80.8642C68.2454 80.9377 68.2126 81.0077 68.1728 81.0741C68.1329 81.1414 68.0869 81.2034 68.0338 81.26C67.9815 81.3176 67.9231 81.3689 67.8602 81.4141C67.7965 81.4592 67.7292 81.4973 67.6584 81.5283C67.5875 81.5593 67.5131 81.5832 67.4379 81.5991C67.3617 81.6151 67.2847 81.623 67.2068 81.623H67.1988ZM48.5201 79.3714H65.9796L65.1146 68.6464C65.103 68.4932 65.0836 68.3418 65.057 68.1904C65.0304 68.0399 64.9968 67.8902 64.9569 67.7424C64.9162 67.5945 64.8693 67.4484 64.8153 67.305C64.7613 67.1615 64.7011 67.0216 64.6338 66.8835C64.5665 66.7454 64.493 66.6108 64.4142 66.4798C64.3345 66.3487 64.2486 66.2221 64.1574 66.099C64.0662 65.976 63.9688 65.8573 63.867 65.744C63.7643 65.6298 63.6572 65.5208 63.5438 65.4164C63.4314 65.3128 63.3145 65.2145 63.1923 65.1215C63.071 65.0286 62.9453 64.9409 62.8151 64.8594C62.6859 64.778 62.5522 64.7036 62.4149 64.6345C62.2786 64.5655 62.1387 64.5035 61.9961 64.4477C61.8536 64.3919 61.7084 64.3424 61.5614 64.3007C61.4135 64.2582 61.2648 64.2228 61.1142 64.1945C60.9637 64.1662 60.8123 64.1449 60.66 64.1299C60.5077 64.1157 60.3546 64.1086 60.2014 64.1086H54.3001C54.1469 64.1086 53.9937 64.1157 53.8414 64.1299C53.6891 64.1449 53.5377 64.1662 53.3872 64.1945C53.2367 64.2228 53.0879 64.2582 52.9401 64.3007C52.7931 64.3424 52.6479 64.3919 52.5053 64.4477C52.3628 64.5035 52.2229 64.5655 52.0865 64.6345C51.9493 64.7036 51.8165 64.778 51.6863 64.8594C51.5562 64.9409 51.4304 65.0286 51.3091 65.1215C51.1869 65.2145 51.0701 65.3128 50.9576 65.4164C50.8452 65.5208 50.7372 65.6298 50.6344 65.744C50.5326 65.8573 50.4352 65.976 50.344 66.099C50.2528 66.2221 50.1669 66.3487 50.0881 66.4798C50.0085 66.6108 49.935 66.7454 49.8677 66.8835C49.8013 67.0207 49.7402 67.1615 49.6862 67.305C49.6322 67.4484 49.5852 67.5945 49.5454 67.7424C49.5047 67.8902 49.471 68.0399 49.4444 68.1904C49.4179 68.3418 49.3993 68.4932 49.3869 68.6464L48.5201 79.3714Z" fill="white"/>
</g>
<path d="M59.9321 64.1104H54.57C54.4957 64.1104 54.4231 64.1033 54.3505 64.0891C54.2779 64.0741 54.207 64.0528 54.1388 64.0245C54.0707 63.9961 54.006 63.9616 53.9441 63.9209C53.883 63.8793 53.8254 63.8332 53.7732 63.781C53.7209 63.7288 53.6749 63.6712 53.6333 63.6101C53.5925 63.5481 53.558 63.4835 53.5297 63.4153C53.5013 63.3462 53.4801 63.2763 53.4659 63.2037C53.4509 63.1311 53.4438 63.0576 53.4438 62.9832V36.2915C53.442 36.1657 53.4456 36.0391 53.4562 35.9134C53.4659 35.7877 53.4828 35.6628 53.5049 35.538C53.5279 35.414 53.5562 35.2909 53.5908 35.1696C53.6253 35.0483 53.666 34.9288 53.713 34.8119C53.7599 34.6942 53.8121 34.5799 53.8697 34.4675C53.9281 34.3551 53.9919 34.2461 54.06 34.1408C54.1291 34.0345 54.2035 33.9327 54.2823 33.8344C54.3611 33.7361 54.4452 33.6414 54.5329 33.5511C54.6214 33.4617 54.7144 33.3758 54.8109 33.2952C54.9083 33.2137 55.0083 33.1385 55.1128 33.0668C55.2173 32.9959 55.3253 32.9304 55.436 32.8702C55.5467 32.81 55.6609 32.756 55.7769 32.7073C55.8929 32.6577 56.0115 32.6152 56.1328 32.578C56.2532 32.5408 56.3754 32.5098 56.4985 32.4851C56.6224 32.4603 56.7473 32.4417 56.873 32.4293C56.9979 32.416 57.1245 32.4098 57.2502 32.4098C57.3768 32.4098 57.5025 32.416 57.6283 32.4293C57.7531 32.4417 57.878 32.4603 58.0019 32.4851C58.125 32.5098 58.2472 32.5408 58.3685 32.578C58.4889 32.6152 58.6075 32.6577 58.7235 32.7073C58.8395 32.756 58.9537 32.81 59.0644 32.8702C59.1751 32.9304 59.2831 32.9959 59.3876 33.0668C59.4921 33.1385 59.5921 33.2137 59.6895 33.2952C59.786 33.3758 59.879 33.4617 59.9675 33.5511C60.0552 33.6414 60.1393 33.7361 60.2181 33.8344C60.2969 33.9327 60.3713 34.0345 60.4404 34.1408C60.5094 34.2461 60.5723 34.3551 60.6307 34.4675C60.6883 34.5799 60.7405 34.6942 60.7874 34.8119C60.8344 34.9288 60.8751 35.0483 60.9096 35.1696C60.9442 35.2909 60.9734 35.414 60.9955 35.538C61.0185 35.6628 61.0345 35.7877 61.0451 35.9134C61.0548 36.0391 61.0584 36.1657 61.0566 36.2915V62.985C61.0566 63.0585 61.0495 63.132 61.0345 63.2046C61.0203 63.2772 60.9991 63.3471 60.9707 63.4153C60.9424 63.4835 60.9079 63.549 60.8671 63.6101C60.8255 63.6712 60.7795 63.7288 60.7272 63.781C60.675 63.8332 60.6183 63.8793 60.5563 63.9209C60.4953 63.9616 60.4306 63.9961 60.3624 64.0245C60.2943 64.0528 60.2234 64.0741 60.1517 64.0882C60.0791 64.1033 60.0056 64.1104 59.9321 64.1104ZM55.6945 61.8587H58.8023V36.2968C58.8085 36.1914 58.8041 36.0852 58.7891 35.9807C58.7731 35.8753 58.7474 35.7726 58.7111 35.6734C58.6748 35.5734 58.6297 35.4786 58.5739 35.3883C58.5181 35.298 58.4535 35.2139 58.3809 35.1369C58.3083 35.059 58.2286 34.9899 58.1418 34.9297C58.055 34.8686 57.9621 34.8172 57.8647 34.7747C57.7673 34.7331 57.6672 34.7012 57.5628 34.6791C57.4592 34.6579 57.3547 34.6472 57.2484 34.6472C57.1422 34.6472 57.0368 34.6579 56.9332 34.6791C56.8296 34.7012 56.7287 34.7331 56.6313 34.7747C56.5339 34.8172 56.4418 34.8686 56.355 34.9297C56.2683 34.9899 56.1886 35.059 56.1151 35.1369C56.0425 35.2139 55.9787 35.298 55.923 35.3883C55.8672 35.4786 55.8211 35.5734 55.7848 35.6734C55.7485 35.7726 55.7229 35.8753 55.7078 35.9807C55.6928 36.0852 55.6883 36.1914 55.6945 36.2968V61.8587Z" fill="white"/>
<path d="M66.2882 70.3251H48.2124C48.1354 70.3251 48.0584 70.3172 47.9822 70.3003C47.9061 70.2844 47.8326 70.2614 47.7609 70.2304C47.69 70.1985 47.6228 70.1604 47.5599 70.1153C47.4961 70.0701 47.4386 70.0188 47.3855 69.9621C47.3332 69.9045 47.2863 69.8426 47.2465 69.7762C47.2066 69.7089 47.1747 69.6389 47.1491 69.5654C47.1234 69.4919 47.1066 69.4167 47.0968 69.3397C47.0871 69.2626 47.0853 69.1847 47.0915 69.1077L47.1429 68.4649C47.1606 68.2426 47.1889 68.0213 47.227 67.8008C47.2659 67.5812 47.3146 67.3634 47.3731 67.1482C47.4324 66.9322 47.5006 66.7197 47.5794 66.5107C47.6582 66.3018 47.7467 66.0973 47.8441 65.8963C47.9415 65.6953 48.0486 65.4996 48.1646 65.3083C48.2806 65.118 48.4055 64.9329 48.5383 64.7532C48.672 64.5743 48.8128 64.4017 48.9624 64.2361C49.112 64.0697 49.2687 63.9112 49.4325 63.7598C49.5964 63.6083 49.7672 63.4649 49.9452 63.3294C50.1223 63.194 50.3056 63.0665 50.495 62.9487C50.6845 62.8301 50.8784 62.7212 51.0785 62.6202C51.2778 62.5202 51.4814 62.4299 51.6895 62.3484C51.8975 62.2669 52.1083 62.1961 52.3234 62.1341C52.5377 62.073 52.7546 62.0217 52.9742 61.9801C53.1938 61.9393 53.4143 61.9083 53.6365 61.888C53.8587 61.8667 54.0819 61.857 54.305 61.857H60.2063C60.4294 61.857 60.6517 61.8667 60.8739 61.888C61.0961 61.9083 61.3175 61.9393 61.5362 61.9801C61.7558 62.0217 61.9727 62.073 62.1879 62.1341C62.4021 62.1961 62.6137 62.2669 62.8209 62.3484C63.029 62.4299 63.2327 62.5202 63.4328 62.6202C63.632 62.7212 63.8268 62.8301 64.0154 62.9487C64.2048 63.0665 64.3881 63.194 64.5661 63.3294C64.7432 63.4649 64.9141 63.6083 65.0779 63.7598C65.2425 63.9112 65.3993 64.0697 65.548 64.2361C65.6977 64.4017 65.8384 64.5743 65.9721 64.7532C66.1049 64.9329 66.2298 65.118 66.3458 65.3083C66.4618 65.4996 66.5689 65.6953 66.6663 65.8963C66.7646 66.0973 66.8522 66.3018 66.931 66.5107C67.0098 66.7197 67.078 66.9322 67.1373 67.1482C67.1958 67.3634 67.2445 67.5812 67.2834 67.8008C67.3224 68.0213 67.3498 68.2426 67.3684 68.4649L67.4198 69.1077C67.426 69.1847 67.4242 69.2626 67.4145 69.3397C67.4047 69.4167 67.387 69.4919 67.3622 69.5654C67.3366 69.6389 67.3038 69.7098 67.264 69.7762C67.2241 69.8435 67.1781 69.9054 67.1258 69.9621C67.0727 70.0197 67.0152 70.071 66.9514 70.1162C66.8885 70.1613 66.8212 70.1994 66.7495 70.2304C66.6787 70.2614 66.6052 70.2853 66.5291 70.3012C66.4529 70.3172 66.3759 70.3251 66.298 70.3251H66.2882ZM49.46 68.0726H65.0345C64.9787 67.7955 64.8999 67.5254 64.7972 67.2616C64.6954 66.9977 64.5714 66.7445 64.4262 66.5019C64.2801 66.2593 64.1145 66.0317 63.9304 65.8175C63.7453 65.6032 63.5434 65.4066 63.3247 65.2278C63.106 65.048 62.8741 64.8887 62.6279 64.7497C62.3818 64.6106 62.1259 64.4929 61.8594 64.3981C61.5929 64.3025 61.321 64.2308 61.0421 64.183C60.7641 64.1343 60.4834 64.1104 60.201 64.1104H54.3006C54.0181 64.1095 53.7366 64.1334 53.4577 64.1821C53.1787 64.2299 52.906 64.3016 52.6395 64.3964C52.373 64.4911 52.1171 64.6089 51.8701 64.7479C51.624 64.8869 51.3911 65.0463 51.1724 65.2251C50.9537 65.4049 50.7509 65.6014 50.5659 65.8157C50.3808 66.03 50.2153 66.2575 50.0692 66.501C49.924 66.7436 49.7991 66.9968 49.6973 67.2607C49.5946 67.5245 49.5158 67.7955 49.46 68.0726Z" fill="white"/>
</svg>
