<svg xmlns="http://www.w3.org/2000/svg" xmlns:xlink="http://www.w3.org/1999/xlink" width="500" zoomAndPan="magnify" viewBox="0 0 375 374.999991" height="500" preserveAspectRatio="xMidYMid meet" version="1.0"><defs><clipPath id="ce02c16f8f"><path d="M 3 3.046875 L 373 3.046875 L 373 372.046875 L 3 372.046875 Z M 3 3.046875 " clip-rule="nonzero"/></clipPath></defs><path fill="#ffffff" d="M 219.164062 159.625 C 219.164062 160.214844 219.125 160.800781 219.046875 161.378906 C 218.96875 161.957031 218.851562 162.515625 218.695312 163.0625 C 218.542969 163.605469 218.351562 164.125 218.128906 164.613281 C 217.902344 165.105469 217.648438 165.558594 217.363281 165.976562 C 217.078125 166.390625 216.765625 166.765625 216.433594 167.089844 C 216.097656 167.417969 215.742188 167.695312 215.367188 167.921875 C 214.996094 168.148438 214.613281 168.316406 214.214844 168.433594 C 213.820312 168.546875 213.417969 168.605469 213.015625 168.605469 C 212.613281 168.605469 212.210938 168.546875 211.816406 168.433594 C 211.421875 168.316406 211.035156 168.148438 210.664062 167.921875 C 210.289062 167.695312 209.9375 167.417969 209.601562 167.089844 C 209.265625 166.765625 208.953125 166.390625 208.667969 165.976562 C 208.382812 165.558594 208.128906 165.105469 207.902344 164.613281 C 207.679688 164.125 207.488281 163.605469 207.335938 163.0625 C 207.179688 162.515625 207.0625 161.957031 206.984375 161.378906 C 206.90625 160.800781 206.867188 160.214844 206.867188 159.625 C 206.867188 159.035156 206.90625 158.453125 206.984375 157.875 C 207.0625 157.296875 207.179688 156.734375 207.335938 156.191406 C 207.488281 155.644531 207.679688 155.128906 207.902344 154.636719 C 208.128906 154.148438 208.382812 153.695312 208.667969 153.277344 C 208.953125 152.859375 209.265625 152.488281 209.601562 152.160156 C 209.9375 151.832031 210.289062 151.554688 210.664062 151.332031 C 211.035156 151.105469 211.421875 150.933594 211.816406 150.820312 C 212.210938 150.703125 212.613281 150.648438 213.015625 150.648438 C 213.417969 150.648438 213.820312 150.703125 214.214844 150.820312 C 214.613281 150.933594 214.996094 151.105469 215.367188 151.332031 C 215.742188 151.554688 216.097656 151.832031 216.433594 152.160156 C 216.765625 152.488281 217.078125 152.859375 217.363281 153.277344 C 217.648438 153.695312 217.902344 154.148438 218.128906 154.636719 C 218.351562 155.128906 218.542969 155.644531 218.695312 156.191406 C 218.851562 156.734375 218.96875 157.296875 219.046875 157.875 C 219.125 158.453125 219.164062 159.035156 219.164062 159.625 Z M 219.164062 159.625 " fill-opacity="1" fill-rule="nonzero"/><path fill="#ffffff" d="M 280.648438 159.625 C 280.648438 160.214844 280.609375 160.800781 280.53125 161.378906 C 280.453125 161.957031 280.335938 162.515625 280.179688 163.0625 C 280.027344 163.605469 279.835938 164.125 279.613281 164.613281 C 279.386719 165.105469 279.132812 165.558594 278.847656 165.976562 C 278.5625 166.390625 278.25 166.765625 277.917969 167.089844 C 277.582031 167.417969 277.226562 167.695312 276.851562 167.921875 C 276.480469 168.148438 276.097656 168.316406 275.699219 168.433594 C 275.304688 168.546875 274.902344 168.605469 274.5 168.605469 C 274.097656 168.605469 273.695312 168.546875 273.300781 168.433594 C 272.90625 168.316406 272.519531 168.148438 272.148438 167.921875 C 271.773438 167.695312 271.421875 167.417969 271.085938 167.089844 C 270.75 166.765625 270.4375 166.390625 270.152344 165.976562 C 269.867188 165.558594 269.613281 165.105469 269.386719 164.613281 C 269.164062 164.125 268.972656 163.605469 268.820312 163.0625 C 268.664062 162.515625 268.550781 161.957031 268.46875 161.378906 C 268.390625 160.800781 268.351562 160.214844 268.351562 159.625 C 268.351562 159.035156 268.390625 158.453125 268.46875 157.875 C 268.550781 157.296875 268.664062 156.734375 268.820312 156.191406 C 268.972656 155.644531 269.164062 155.128906 269.386719 154.636719 C 269.613281 154.148438 269.867188 153.695312 270.152344 153.277344 C 270.4375 152.859375 270.75 152.488281 271.085938 152.160156 C 271.421875 151.832031 271.773438 151.554688 272.148438 151.332031 C 272.519531 151.105469 272.90625 150.933594 273.300781 150.820312 C 273.695312 150.703125 274.097656 150.648438 274.5 150.648438 C 274.902344 150.648438 275.304688 150.703125 275.699219 150.820312 C 276.097656 150.933594 276.480469 151.105469 276.851562 151.332031 C 277.226562 151.554688 277.582031 151.832031 277.917969 152.160156 C 278.25 152.488281 278.5625 152.859375 278.847656 153.277344 C 279.132812 153.695312 279.386719 154.148438 279.613281 154.636719 C 279.835938 155.128906 280.027344 155.644531 280.179688 156.191406 C 280.335938 156.734375 280.453125 157.296875 280.53125 157.875 C 280.609375 158.453125 280.648438 159.035156 280.648438 159.625 Z M 280.648438 159.625 " fill-opacity="1" fill-rule="nonzero"/><path fill="#ffffff" d="M 243.757812 204.433594 C 256.667969 204.433594 266.816406 197.019531 266.816406 187.546875 C 266.816406 187.242188 266.785156 186.945312 266.726562 186.648438 C 266.667969 186.351562 266.578125 186.0625 266.464844 185.78125 C 266.347656 185.5 266.207031 185.234375 266.039062 184.984375 C 265.871094 184.734375 265.679688 184.5 265.464844 184.285156 C 265.25 184.070312 265.015625 183.878906 264.765625 183.710938 C 264.511719 183.542969 264.246094 183.402344 263.96875 183.285156 C 263.6875 183.167969 263.398438 183.082031 263.101562 183.023438 C 262.804688 182.964844 262.507812 182.933594 262.203125 182.933594 C 261.902344 182.933594 261.601562 182.964844 261.304688 183.023438 C 261.007812 183.082031 260.71875 183.167969 260.4375 183.285156 C 260.160156 183.402344 259.894531 183.542969 259.640625 183.710938 C 259.390625 183.878906 259.15625 184.070312 258.941406 184.285156 C 258.730469 184.5 258.539062 184.734375 258.371094 184.984375 C 258.199219 185.234375 258.058594 185.5 257.941406 185.78125 C 257.828125 186.0625 257.738281 186.351562 257.679688 186.648438 C 257.621094 186.945312 257.59375 187.242188 257.59375 187.546875 C 257.59375 191.167969 251.910156 195.210938 243.757812 195.210938 C 235.605469 195.210938 229.925781 191.167969 229.925781 187.546875 C 229.925781 187.242188 229.894531 186.945312 229.835938 186.648438 C 229.777344 186.351562 229.6875 186.0625 229.574219 185.78125 C 229.457031 185.5 229.316406 185.234375 229.148438 184.984375 C 228.980469 184.734375 228.789062 184.5 228.574219 184.285156 C 228.359375 184.070312 228.125 183.878906 227.875 183.710938 C 227.621094 183.542969 227.355469 183.402344 227.078125 183.285156 C 226.796875 183.167969 226.507812 183.082031 226.210938 183.023438 C 225.914062 182.964844 225.617188 182.933594 225.3125 182.933594 C 225.011719 182.933594 224.710938 182.964844 224.414062 183.023438 C 224.117188 183.082031 223.828125 183.167969 223.546875 183.285156 C 223.269531 183.402344 223.003906 183.542969 222.75 183.710938 C 222.5 183.878906 222.265625 184.070312 222.050781 184.285156 C 221.839844 184.5 221.648438 184.734375 221.480469 184.984375 C 221.308594 185.234375 221.167969 185.5 221.050781 185.78125 C 220.9375 186.0625 220.847656 186.351562 220.789062 186.648438 C 220.730469 186.945312 220.703125 187.242188 220.703125 187.546875 C 220.703125 197.019531 230.847656 204.433594 243.757812 204.433594 Z M 243.757812 204.433594 " fill-opacity="1" fill-rule="nonzero"/><g clip-path="url(#ce02c16f8f)"><path fill="#ffffff" d="M 13.085938 263.949219 L 47.929688 283.867188 L 71.835938 367.5625 C 72.015625 368.207031 72.296875 368.808594 72.671875 369.359375 C 73.050781 369.914062 73.507812 370.394531 74.039062 370.796875 C 74.574219 371.203125 75.160156 371.511719 75.792969 371.726562 C 76.429688 371.941406 77.082031 372.046875 77.75 372.046875 L 366.726562 372.046875 C 367.183594 372.046875 367.632812 371.996094 368.078125 371.894531 C 368.523438 371.796875 368.949219 371.648438 369.359375 371.453125 C 369.773438 371.257812 370.15625 371.015625 370.515625 370.734375 C 370.875 370.453125 371.199219 370.136719 371.484375 369.785156 C 371.773438 369.429688 372.019531 369.050781 372.222656 368.644531 C 372.425781 368.234375 372.582031 367.808594 372.691406 367.367188 C 372.800781 366.925781 372.859375 366.476562 372.871094 366.019531 C 372.878906 365.566406 372.835938 365.113281 372.746094 364.667969 L 359.347656 299.734375 C 363.175781 294.003906 366.230469 287.890625 368.523438 281.390625 C 370.8125 274.890625 372.261719 268.210938 372.875 261.347656 C 372.875 258.21875 372.539062 255.128906 371.867188 252.074219 C 371.191406 249.019531 370.199219 246.074219 368.882812 243.238281 C 367.566406 240.402344 365.957031 237.742188 364.0625 235.253906 C 362.164062 232.769531 360.023438 230.519531 357.632812 228.5 C 358.839844 228.003906 359.996094 227.417969 361.105469 226.738281 C 362.21875 226.0625 363.269531 225.296875 364.257812 224.449219 C 365.246094 223.605469 366.164062 222.683594 367.003906 221.691406 C 367.847656 220.699219 368.605469 219.644531 369.28125 218.53125 C 369.953125 217.414062 370.535156 216.253906 371.023438 215.046875 C 371.511719 213.839844 371.902344 212.601562 372.191406 211.332031 C 372.484375 210.0625 372.671875 208.777344 372.757812 207.476562 C 372.84375 206.179688 372.824219 204.878906 372.703125 203.582031 C 372.582031 202.285156 372.359375 201.007812 372.03125 199.746094 C 371.707031 198.484375 371.28125 197.257812 370.761719 196.066406 C 370.238281 194.871094 369.625 193.726562 368.921875 192.632812 C 368.214844 191.539062 367.429688 190.503906 366.558594 189.535156 C 365.691406 188.566406 364.75 187.671875 363.738281 186.851562 C 362.722656 186.035156 361.652344 185.300781 360.523438 184.652344 C 359.394531 184.003906 358.21875 183.449219 357.003906 182.988281 C 355.785156 182.527344 354.539062 182.167969 353.261719 181.90625 C 349.941406 167.332031 348.28125 152.570312 348.28125 137.628906 L 348.28125 110.347656 C 348.304688 108.664062 348.292969 106.980469 348.234375 105.300781 C 348.179688 103.617188 348.085938 101.9375 347.949219 100.261719 C 347.816406 98.585938 347.640625 96.914062 347.425781 95.242188 C 347.210938 93.574219 346.953125 91.914062 346.660156 90.257812 C 346.367188 88.597656 346.03125 86.949219 345.660156 85.308594 C 345.285156 83.667969 344.875 82.039062 344.421875 80.417969 C 343.972656 78.796875 343.484375 77.1875 342.957031 75.589844 C 342.429688 73.992188 341.863281 72.410156 341.257812 70.835938 C 340.65625 69.265625 340.015625 67.710938 339.339844 66.171875 C 338.660156 64.632812 337.949219 63.109375 337.199219 61.601562 C 336.449219 60.097656 335.664062 58.609375 334.84375 57.140625 C 334.023438 55.671875 333.167969 54.222656 332.277344 52.796875 C 331.386719 51.367188 330.464844 49.960938 329.507812 48.578125 C 328.550781 47.195312 327.5625 45.835938 326.539062 44.5 C 325.515625 43.160156 324.464844 41.851562 323.378906 40.5625 C 322.296875 39.277344 321.183594 38.019531 320.039062 36.785156 C 318.894531 35.550781 317.71875 34.347656 316.519531 33.167969 C 315.316406 31.992188 314.085938 30.84375 312.832031 29.726562 C 311.574219 28.605469 310.292969 27.519531 308.984375 26.460938 C 307.675781 25.40625 306.34375 24.378906 304.984375 23.386719 C 303.628906 22.390625 302.246094 21.429688 300.84375 20.503906 C 299.441406 19.574219 298.015625 18.679688 296.570312 17.820312 C 295.125 16.960938 293.660156 16.136719 292.175781 15.34375 C 290.691406 14.554688 289.1875 13.800781 287.667969 13.082031 C 286.144531 12.363281 284.609375 11.683594 283.054688 11.039062 C 281.5 10.390625 279.933594 9.785156 278.351562 9.214844 C 276.769531 8.644531 275.171875 8.113281 273.566406 7.617188 C 271.957031 7.125 270.339844 6.667969 268.707031 6.25 C 267.078125 5.835938 265.441406 5.457031 263.792969 5.117188 C 262.144531 4.777344 260.492188 4.480469 258.828125 4.21875 C 257.167969 3.960938 255.5 3.742188 253.828125 3.558594 C 252.15625 3.378906 250.480469 3.238281 248.800781 3.140625 C 247.011719 3.054688 240.503906 3.054688 238.714844 3.140625 C 237.039062 3.238281 235.363281 3.378906 233.6875 3.558594 C 232.015625 3.742188 230.351562 3.960938 228.6875 4.21875 C 227.027344 4.480469 225.371094 4.777344 223.722656 5.117188 C 222.074219 5.457031 220.4375 5.835938 218.808594 6.25 C 217.179688 6.667969 215.558594 7.125 213.953125 7.617188 C 212.34375 8.113281 210.75 8.644531 209.167969 9.214844 C 207.582031 9.785156 206.015625 10.390625 204.460938 11.039062 C 202.910156 11.683594 201.371094 12.363281 199.851562 13.082031 C 198.328125 13.800781 196.828125 14.554688 195.339844 15.34375 C 193.855469 16.136719 192.390625 16.960938 190.945312 17.820312 C 189.5 18.679688 188.074219 19.574219 186.671875 20.503906 C 185.269531 21.429688 183.886719 22.390625 182.53125 23.386719 C 181.175781 24.378906 179.839844 25.40625 178.53125 26.460938 C 177.222656 27.519531 175.941406 28.605469 174.683594 29.726562 C 173.429688 30.84375 172.199219 31.992188 171 33.167969 C 169.796875 34.347656 168.625 35.550781 167.480469 36.785156 C 166.335938 38.019531 165.21875 39.277344 164.136719 40.5625 C 163.050781 41.851562 162 43.160156 160.976562 44.5 C 159.957031 45.835938 158.964844 47.195312 158.007812 48.578125 C 157.050781 49.960938 156.128906 51.367188 155.238281 52.796875 C 154.351562 54.222656 153.496094 55.671875 152.671875 57.140625 C 151.851562 58.609375 151.066406 60.097656 150.316406 61.601562 C 149.566406 63.109375 148.855469 64.632812 148.175781 66.171875 C 147.5 67.710938 146.859375 69.265625 146.257812 70.835938 C 145.652344 72.410156 145.089844 73.992188 144.5625 75.589844 C 144.035156 77.1875 143.542969 78.796875 143.09375 80.417969 C 142.644531 82.039062 142.230469 83.667969 141.859375 85.308594 C 141.484375 86.949219 141.152344 88.597656 140.855469 90.257812 C 140.5625 91.914062 140.308594 93.574219 140.09375 95.242188 C 139.878906 96.914062 139.703125 98.585938 139.566406 100.261719 C 139.429688 101.9375 139.335938 103.617188 139.28125 105.300781 C 139.226562 106.980469 139.210938 108.664062 139.234375 110.347656 L 139.234375 137.613281 C 139.234375 152.5625 137.574219 167.320312 134.253906 181.894531 C 131.800781 182.40625 129.476562 183.269531 127.285156 184.488281 C 125.09375 185.703125 123.132812 187.222656 121.402344 189.035156 C 121.0625 189.394531 120.730469 189.761719 120.410156 190.136719 C 120.089844 190.515625 119.78125 190.902344 119.484375 191.300781 C 119.1875 191.695312 118.902344 192.101562 118.632812 192.515625 C 118.359375 192.929688 118.101562 193.351562 117.855469 193.78125 C 117.609375 194.210938 117.375 194.648438 117.15625 195.09375 C 116.9375 195.539062 116.730469 195.988281 116.539062 196.445312 C 116.347656 196.902344 116.171875 197.363281 116.007812 197.832031 C 115.84375 198.296875 115.695312 198.769531 115.558594 199.246094 C 115.421875 199.722656 115.304688 200.203125 115.199219 200.6875 C 115.09375 201.171875 115 201.65625 114.925781 202.148438 C 114.847656 202.636719 114.789062 203.128906 114.742188 203.621094 C 114.695312 204.113281 114.664062 204.609375 114.648438 205.105469 C 114.632812 205.597656 114.632812 206.09375 114.648438 206.589844 C 114.660156 207.085938 114.691406 207.578125 114.734375 208.070312 C 114.78125 208.566406 114.839844 209.058594 114.914062 209.546875 C 114.988281 210.035156 115.078125 210.523438 115.183594 211.007812 C 115.285156 211.492188 115.40625 211.972656 115.539062 212.449219 C 115.671875 212.925781 115.820312 213.398438 115.980469 213.867188 C 116.144531 214.335938 116.320312 214.796875 116.511719 215.253906 C 116.703125 215.710938 116.90625 216.164062 117.125 216.609375 C 117.34375 217.050781 117.574219 217.488281 117.820312 217.921875 C 118.0625 218.351562 118.320312 218.773438 118.589844 219.1875 C 118.863281 219.605469 119.144531 220.011719 119.441406 220.40625 C 119.734375 220.804688 120.042969 221.195312 120.363281 221.574219 C 120.679688 221.953125 121.011719 222.320312 121.351562 222.679688 C 121.695312 223.039062 122.046875 223.386719 122.410156 223.722656 C 122.773438 224.058594 123.144531 224.386719 123.527344 224.699219 C 123.910156 225.015625 124.300781 225.316406 124.703125 225.609375 C 125.101562 225.898438 125.511719 226.175781 125.929688 226.441406 C 126.347656 226.707031 126.773438 226.960938 127.207031 227.199219 C 127.640625 227.441406 128.082031 227.664062 128.527344 227.878906 C 128.976562 228.089844 129.429688 228.289062 129.890625 228.476562 C 127.5 230.496094 125.355469 232.746094 123.457031 235.234375 C 121.558594 237.722656 119.949219 240.386719 118.632812 243.226562 C 117.316406 246.0625 116.320312 249.011719 115.648438 252.066406 C 114.972656 255.125 114.640625 258.21875 114.640625 261.347656 C 115.148438 267.71875 116.328125 273.960938 118.179688 280.082031 C 120.03125 286.199219 122.511719 292.046875 125.621094 297.632812 L 119.726562 325.410156 L 96.492188 278.929688 L 100.835938 257.183594 C 101 256.378906 101.09375 255.5625 101.125 254.742188 C 101.15625 253.921875 101.121094 253.101562 101.023438 252.289062 C 100.921875 251.472656 100.757812 250.667969 100.53125 249.878906 C 100.304688 249.089844 100.011719 248.324219 99.664062 247.582031 C 99.3125 246.835938 98.90625 246.125 98.441406 245.449219 C 97.976562 244.769531 97.460938 244.132812 96.894531 243.539062 C 96.328125 242.941406 95.71875 242.394531 95.066406 241.898438 C 94.410156 241.402344 93.722656 240.957031 92.996094 240.570312 C 92.273438 240.183594 91.523438 239.855469 90.746094 239.585938 C 89.96875 239.320312 89.175781 239.117188 88.367188 238.976562 C 87.558594 238.835938 86.742188 238.757812 85.917969 238.75 C 85.097656 238.738281 84.28125 238.792969 83.46875 238.914062 C 82.65625 239.035156 81.859375 239.21875 81.074219 239.46875 C 80.292969 239.714844 79.53125 240.023438 78.800781 240.394531 C 78.066406 240.765625 77.367188 241.191406 76.699219 241.671875 C 76.035156 242.152344 75.410156 242.683594 74.828125 243.265625 L 70.121094 247.976562 L 28.789062 231.421875 C 27.734375 231 26.652344 230.683594 25.539062 230.464844 C 24.425781 230.25 23.300781 230.140625 22.164062 230.132812 C 21.03125 230.128906 19.90625 230.230469 18.789062 230.4375 C 17.671875 230.644531 16.585938 230.953125 15.527344 231.363281 C 14.46875 231.777344 13.460938 232.28125 12.496094 232.882812 C 11.535156 233.484375 10.636719 234.171875 9.804688 234.941406 C 8.96875 235.710938 8.214844 236.550781 7.539062 237.464844 C 6.863281 238.375 6.28125 239.34375 5.789062 240.367188 C 5.292969 241.386719 4.898438 242.449219 4.605469 243.542969 C 4.3125 244.640625 4.121094 245.753906 4.035156 246.886719 C 3.953125 248.019531 3.972656 249.148438 4.101562 250.277344 C 4.230469 251.402344 4.460938 252.511719 4.796875 253.59375 C 5.132812 254.679688 5.566406 255.722656 6.097656 256.726562 C 6.628906 257.726562 7.25 258.671875 7.960938 259.558594 C 8.667969 260.445312 9.453125 261.257812 10.316406 261.996094 C 11.179688 262.734375 12.101562 263.382812 13.085938 263.949219 Z M 214.957031 298.558594 L 200.03125 293.585938 L 195.371094 265.601562 L 209.878906 262.214844 L 237.609375 312.140625 L 237.609375 331.347656 L 214.386719 319.734375 L 218.84375 306.339844 C 218.972656 305.957031 219.0625 305.566406 219.113281 305.164062 C 219.164062 304.765625 219.175781 304.363281 219.144531 303.960938 C 219.117188 303.558594 219.050781 303.160156 218.941406 302.773438 C 218.835938 302.382812 218.691406 302.007812 218.511719 301.644531 C 218.332031 301.285156 218.117188 300.945312 217.871094 300.625 C 217.625 300.304688 217.347656 300.015625 217.042969 299.75 C 216.738281 299.484375 216.410156 299.253906 216.058594 299.050781 C 215.707031 298.851562 215.34375 298.6875 214.957031 298.558594 Z M 188.421875 132.195312 L 227.273438 132.195312 C 228.226562 132.199219 229.171875 132.160156 230.121094 132.085938 C 231.070312 132.007812 232.011719 131.894531 232.949219 131.738281 C 233.886719 131.582031 234.816406 131.390625 235.738281 131.160156 C 236.660156 130.925781 237.570312 130.65625 238.472656 130.351562 C 239.371094 130.042969 240.253906 129.699219 241.128906 129.320312 C 242 128.9375 242.851562 128.523438 243.6875 128.070312 C 244.523438 127.621094 245.34375 127.136719 246.136719 126.617188 C 246.933594 126.097656 247.707031 125.546875 248.460938 124.964844 C 249.210938 124.382812 249.9375 123.769531 250.636719 123.125 C 251.335938 122.480469 252.007812 121.8125 252.652344 121.113281 C 253.296875 120.414062 253.914062 119.691406 254.496094 118.941406 C 255.082031 118.191406 255.632812 117.417969 256.15625 116.621094 C 256.675781 115.828125 257.164062 115.011719 257.617188 114.175781 C 258.070312 113.339844 258.488281 112.488281 258.871094 111.617188 C 259.25 110.746094 259.597656 109.863281 259.90625 108.960938 C 260.214844 108.0625 260.488281 107.152344 260.722656 106.230469 L 266.425781 86.183594 L 273.222656 110.332031 C 273.585938 111.796875 274.066406 113.21875 274.65625 114.605469 C 275.246094 115.992188 275.941406 117.324219 276.738281 118.601562 C 277.539062 119.878906 278.433594 121.085938 279.421875 122.222656 C 280.410156 123.355469 281.484375 124.410156 282.636719 125.378906 C 283.792969 126.34375 285.015625 127.214844 286.308594 127.992188 C 287.601562 128.765625 288.945312 129.4375 290.339844 130 C 291.738281 130.5625 293.171875 131.015625 294.636719 131.355469 C 296.105469 131.691406 297.589844 131.914062 299.09375 132.019531 L 299.09375 162.214844 C 299.09375 163.15625 299.070312 164.097656 299.023438 165.039062 C 298.972656 165.980469 298.902344 166.917969 298.804688 167.855469 C 298.710938 168.792969 298.589844 169.726562 298.449219 170.65625 C 298.304688 171.585938 298.136719 172.511719 297.945312 173.433594 C 297.753906 174.355469 297.539062 175.273438 297.304688 176.183594 C 297.066406 177.097656 296.804688 178 296.519531 178.898438 C 296.238281 179.796875 295.929688 180.6875 295.601562 181.570312 C 295.273438 182.453125 294.921875 183.324219 294.546875 184.1875 C 294.171875 185.054688 293.777344 185.90625 293.359375 186.753906 C 292.945312 187.597656 292.503906 188.429688 292.046875 189.25 C 291.585938 190.074219 291.105469 190.882812 290.605469 191.679688 C 290.101562 192.476562 289.582031 193.261719 289.039062 194.03125 C 288.5 194.800781 287.9375 195.558594 287.359375 196.300781 C 286.777344 197.042969 286.179688 197.769531 285.5625 198.480469 C 284.945312 199.191406 284.3125 199.886719 283.660156 200.566406 C 283.007812 201.246094 282.339844 201.90625 281.652344 202.550781 C 280.964844 203.195312 280.265625 203.824219 279.546875 204.433594 C 278.828125 205.042969 278.09375 205.632812 277.347656 206.203125 C 276.597656 206.777344 275.835938 207.328125 275.058594 207.859375 C 274.285156 208.394531 273.496094 208.90625 272.691406 209.398438 C 271.890625 209.890625 271.074219 210.363281 270.25 210.8125 C 269.421875 211.265625 268.585938 211.691406 267.734375 212.101562 C 266.886719 212.507812 266.027344 212.894531 265.160156 213.261719 C 264.292969 213.625 263.414062 213.964844 262.53125 214.285156 C 261.644531 214.605469 260.75 214.902344 259.851562 215.175781 C 258.949219 215.449219 258.042969 215.699219 257.128906 215.925781 C 256.214844 216.15625 255.296875 216.359375 254.371094 216.539062 C 253.449219 216.71875 252.519531 216.878906 251.589844 217.011719 C 250.65625 217.144531 249.722656 217.253906 248.785156 217.339844 C 247.847656 217.425781 246.90625 217.484375 245.964844 217.523438 C 245.023438 217.5625 244.085938 217.574219 243.144531 217.5625 C 242.203125 217.554688 241.261719 217.519531 240.320312 217.460938 C 238.546875 217.3125 236.78125 217.078125 235.03125 216.761719 C 233.277344 216.445312 231.542969 216.046875 229.828125 215.570312 C 228.113281 215.089844 226.425781 214.53125 224.761719 213.890625 C 223.101562 213.253906 221.472656 212.539062 219.875 211.746094 C 218.28125 210.953125 216.726562 210.089844 215.214844 209.148438 C 213.699219 208.210938 212.234375 207.203125 210.816406 206.125 C 209.398438 205.046875 208.03125 203.90625 206.722656 202.703125 C 205.410156 201.496094 204.160156 200.230469 202.96875 198.90625 C 201.777344 197.582031 200.648438 196.207031 199.585938 194.777344 C 198.527344 193.347656 197.53125 191.871094 196.609375 190.347656 C 195.6875 188.824219 194.839844 187.257812 194.0625 185.65625 C 193.289062 184.050781 192.589844 182.414062 191.96875 180.746094 C 191.347656 179.078125 190.804688 177.382812 190.34375 175.660156 C 189.882812 173.941406 189.503906 172.203125 189.207031 170.445312 C 188.910156 168.6875 188.695312 166.921875 188.5625 165.148438 C 188.433594 163.371094 188.386719 161.589844 188.421875 159.808594 Z M 268.671875 306.339844 L 273.128906 319.734375 L 249.90625 331.347656 L 249.90625 312.140625 L 277.613281 262.257812 L 292.117188 265.773438 L 287.484375 293.5625 L 272.550781 298.566406 C 272.167969 298.695312 271.804688 298.859375 271.453125 299.058594 C 271.101562 299.257812 270.777344 299.492188 270.472656 299.757812 C 270.167969 300.019531 269.890625 300.3125 269.644531 300.632812 C 269.398438 300.949219 269.183594 301.289062 269.003906 301.652344 C 268.824219 302.011719 268.679688 302.386719 268.574219 302.777344 C 268.46875 303.164062 268.402344 303.558594 268.371094 303.960938 C 268.34375 304.363281 268.355469 304.765625 268.40625 305.167969 C 268.457031 305.566406 268.542969 305.957031 268.671875 306.339844 Z M 243.757812 297.882812 L 225.699219 265.375 C 231.652344 266.65625 237.671875 267.292969 243.757812 267.292969 C 249.84375 267.292969 255.863281 266.65625 261.816406 265.375 Z M 239.589844 229.734375 C 241.003906 229.828125 242.410156 229.863281 243.8125 229.863281 C 252.28125 229.875 260.460938 228.34375 268.351562 225.269531 L 268.351562 250.824219 C 264.394531 252.175781 260.351562 253.195312 256.222656 253.882812 C 252.097656 254.566406 247.941406 254.910156 243.757812 254.910156 C 239.574219 254.910156 235.417969 254.566406 231.292969 253.882812 C 227.164062 253.195312 223.125 252.175781 219.164062 250.824219 L 219.164062 225.0625 C 225.71875 227.734375 232.527344 229.292969 239.589844 229.734375 Z M 329.835938 359.746094 L 329.835938 335.148438 C 329.835938 334.742188 329.796875 334.34375 329.71875 333.945312 C 329.640625 333.550781 329.523438 333.167969 329.367188 332.792969 C 329.214844 332.421875 329.023438 332.066406 328.800781 331.730469 C 328.574219 331.394531 328.320312 331.082031 328.035156 330.796875 C 327.75 330.511719 327.4375 330.257812 327.105469 330.035156 C 326.769531 329.808594 326.414062 329.621094 326.039062 329.464844 C 325.667969 329.308594 325.285156 329.195312 324.886719 329.113281 C 324.492188 329.035156 324.089844 328.996094 323.6875 328.996094 C 323.285156 328.996094 322.882812 329.035156 322.488281 329.113281 C 322.09375 329.195312 321.707031 329.308594 321.335938 329.464844 C 320.960938 329.621094 320.609375 329.808594 320.273438 330.035156 C 319.9375 330.257812 319.625 330.511719 319.339844 330.796875 C 319.054688 331.082031 318.800781 331.394531 318.574219 331.730469 C 318.351562 332.066406 318.160156 332.421875 318.007812 332.792969 C 317.851562 333.167969 317.734375 333.550781 317.65625 333.945312 C 317.578125 334.34375 317.539062 334.742188 317.539062 335.148438 L 317.539062 359.746094 L 249.90625 359.746094 L 249.90625 345.097656 L 283.398438 328.382812 C 283.726562 328.21875 284.035156 328.023438 284.328125 327.804688 C 284.625 327.585938 284.894531 327.339844 285.144531 327.070312 C 285.394531 326.800781 285.617188 326.511719 285.816406 326.203125 C 286.015625 325.894531 286.183594 325.570312 286.324219 325.230469 C 286.464844 324.890625 286.574219 324.542969 286.648438 324.183594 C 286.726562 323.824219 286.773438 323.464844 286.785156 323.097656 C 286.796875 322.730469 286.777344 322.363281 286.726562 322 C 286.671875 321.636719 286.585938 321.28125 286.472656 320.933594 L 282.273438 308.308594 L 294.886719 304.082031 C 295.417969 303.90625 295.914062 303.660156 296.375 303.347656 C 296.839844 303.035156 297.25 302.667969 297.613281 302.242188 C 297.976562 301.820312 298.273438 301.351562 298.511719 300.847656 C 298.746094 300.339844 298.910156 299.8125 299 299.261719 L 304.09375 268.722656 L 338.949219 277.183594 C 339.570312 277.386719 340.148438 277.679688 340.683594 278.0625 C 341.21875 278.441406 341.683594 278.894531 342.082031 279.414062 C 342.476562 279.9375 342.789062 280.507812 343.011719 281.125 C 343.234375 281.742188 343.363281 282.375 343.394531 283.03125 L 359.183594 359.746094 Z M 157.679688 230.597656 C 158.082031 230.597656 158.484375 230.558594 158.878906 230.480469 C 159.277344 230.398438 159.660156 230.285156 160.03125 230.128906 C 160.40625 229.972656 160.761719 229.785156 161.097656 229.558594 C 161.429688 229.335938 161.742188 229.082031 162.027344 228.796875 C 162.3125 228.511719 162.566406 228.199219 162.792969 227.863281 C 163.015625 227.527344 163.207031 227.171875 163.359375 226.800781 C 163.515625 226.425781 163.632812 226.042969 163.710938 225.648438 C 163.789062 225.25 163.828125 224.851562 163.828125 224.445312 C 163.828125 224.042969 163.789062 223.644531 163.710938 223.246094 C 163.632812 222.851562 163.515625 222.464844 163.359375 222.09375 C 163.207031 221.71875 163.015625 221.367188 162.792969 221.03125 C 162.566406 220.695312 162.3125 220.382812 162.027344 220.097656 C 161.742188 219.8125 161.429688 219.558594 161.097656 219.332031 C 160.761719 219.109375 160.40625 218.917969 160.03125 218.765625 C 159.660156 218.609375 159.277344 218.492188 158.878906 218.414062 C 158.484375 218.335938 158.082031 218.296875 157.679688 218.296875 L 140.28125 218.296875 C 139.464844 218.320312 138.65625 218.269531 137.851562 218.140625 C 137.046875 218.011719 136.257812 217.8125 135.492188 217.535156 C 134.726562 217.257812 133.992188 216.914062 133.289062 216.5 C 132.585938 216.085938 131.929688 215.613281 131.316406 215.074219 C 130.703125 214.539062 130.144531 213.949219 129.640625 213.308594 C 129.136719 212.664062 128.699219 211.980469 128.324219 211.257812 C 127.949219 210.535156 127.648438 209.78125 127.414062 209 C 127.179688 208.21875 127.023438 207.421875 126.9375 206.613281 C 126.894531 205.777344 126.9375 204.949219 127.066406 204.125 C 127.191406 203.300781 127.402344 202.496094 127.691406 201.714844 C 127.980469 200.933594 128.347656 200.1875 128.789062 199.480469 C 129.230469 198.773438 129.738281 198.117188 130.316406 197.515625 C 130.890625 196.910156 131.519531 196.371094 132.203125 195.894531 C 132.890625 195.417969 133.617188 195.015625 134.382812 194.6875 C 135.148438 194.359375 135.941406 194.113281 136.757812 193.945312 C 137.574219 193.777344 138.402344 193.695312 139.234375 193.695312 C 139.921875 193.695312 140.585938 193.585938 141.234375 193.363281 C 141.882812 193.136719 142.480469 192.816406 143.019531 192.394531 C 143.558594 191.96875 144.015625 191.472656 144.390625 190.894531 C 144.761719 190.320312 145.03125 189.699219 145.199219 189.035156 C 149.417969 172.15625 151.53125 155.015625 151.53125 137.613281 L 151.53125 110.347656 C 151.507812 108.859375 151.519531 107.371094 151.5625 105.886719 C 151.609375 104.398438 151.691406 102.914062 151.808594 101.433594 C 151.925781 99.949219 152.078125 98.472656 152.265625 96.996094 C 152.453125 95.519531 152.675781 94.050781 152.933594 92.585938 C 153.191406 91.121094 153.484375 89.664062 153.8125 88.214844 C 154.140625 86.761719 154.5 85.320312 154.898438 83.886719 C 155.292969 82.453125 155.722656 81.03125 156.1875 79.617188 C 156.648438 78.207031 157.148438 76.804688 157.675781 75.414062 C 158.207031 74.027344 158.773438 72.652344 159.367188 71.289062 C 159.964844 69.925781 160.59375 68.578125 161.253906 67.246094 C 161.914062 65.914062 162.605469 64.597656 163.328125 63.300781 C 164.050781 62 164.804688 60.71875 165.589844 59.457031 C 166.371094 58.191406 167.1875 56.949219 168.03125 55.722656 C 168.875 54.5 169.746094 53.296875 170.648438 52.113281 C 171.546875 50.929688 172.476562 49.769531 173.433594 48.628906 C 174.390625 47.492188 175.371094 46.375 176.382812 45.285156 C 177.390625 44.191406 178.425781 43.125 179.484375 42.082031 C 180.546875 41.039062 181.628906 40.023438 182.738281 39.035156 C 183.847656 38.042969 184.980469 37.078125 186.132812 36.140625 C 187.289062 35.207031 188.464844 34.296875 189.664062 33.417969 C 190.859375 32.535156 192.078125 31.683594 193.316406 30.863281 C 194.554688 30.039062 195.8125 29.246094 197.089844 28.484375 C 198.367188 27.722656 199.660156 26.988281 200.972656 26.289062 C 202.28125 25.589844 203.609375 24.917969 204.953125 24.28125 C 206.296875 23.644531 207.652344 23.039062 209.027344 22.464844 C 210.398438 21.894531 211.78125 21.355469 213.179688 20.847656 C 214.578125 20.339844 215.988281 19.867188 217.40625 19.429688 C 218.828125 18.988281 220.257812 18.582031 221.699219 18.210938 C 223.136719 17.839844 224.585938 17.503906 226.039062 17.203125 C 227.496094 16.898438 228.957031 16.632812 230.425781 16.398438 C 231.894531 16.167969 233.367188 15.96875 234.847656 15.808594 C 236.324219 15.644531 237.804688 15.519531 239.289062 15.425781 C 240.683594 15.347656 246.832031 15.347656 248.226562 15.425781 C 249.710938 15.519531 251.191406 15.644531 252.671875 15.808594 C 254.148438 15.96875 255.621094 16.167969 257.089844 16.398438 C 258.558594 16.632812 260.019531 16.898438 261.476562 17.203125 C 262.933594 17.503906 264.378906 17.839844 265.820312 18.210938 C 267.257812 18.582031 268.6875 18.988281 270.109375 19.429688 C 271.527344 19.867188 272.9375 20.339844 274.335938 20.847656 C 275.734375 21.355469 277.117188 21.894531 278.492188 22.464844 C 279.863281 23.039062 281.21875 23.644531 282.5625 24.28125 C 283.90625 24.917969 285.234375 25.589844 286.542969 26.289062 C 287.855469 26.988281 289.148438 27.722656 290.425781 28.484375 C 291.703125 29.246094 292.960938 30.039062 294.199219 30.863281 C 295.4375 31.683594 296.65625 32.535156 297.851562 33.417969 C 299.050781 34.296875 300.226562 35.207031 301.382812 36.140625 C 302.535156 37.078125 303.667969 38.042969 304.777344 39.035156 C 305.886719 40.023438 306.972656 41.039062 308.03125 42.082031 C 309.089844 43.125 310.125 44.191406 311.136719 45.285156 C 312.144531 46.375 313.128906 47.492188 314.082031 48.628906 C 315.039062 49.769531 315.96875 50.929688 316.871094 52.113281 C 317.769531 53.296875 318.644531 54.5 319.484375 55.722656 C 320.328125 56.949219 321.144531 58.191406 321.925781 59.457031 C 322.710938 60.71875 323.464844 62 324.1875 63.300781 C 324.910156 64.597656 325.601562 65.914062 326.265625 67.246094 C 326.925781 68.578125 327.550781 69.925781 328.148438 71.289062 C 328.746094 72.652344 329.308594 74.027344 329.839844 75.414062 C 330.371094 76.804688 330.867188 78.207031 331.332031 79.617188 C 331.792969 81.03125 332.222656 82.453125 332.621094 83.886719 C 333.015625 85.320312 333.378906 86.761719 333.703125 88.214844 C 334.03125 89.664062 334.324219 91.121094 334.582031 92.585938 C 334.839844 94.050781 335.0625 95.519531 335.25 96.996094 C 335.4375 98.472656 335.589844 99.949219 335.707031 101.433594 C 335.824219 102.914062 335.90625 104.398438 335.953125 105.886719 C 336 107.371094 336.007812 108.859375 335.984375 110.347656 L 335.984375 137.613281 C 335.988281 155.007812 338.097656 172.136719 342.316406 189.011719 C 342.480469 189.679688 342.75 190.300781 343.121094 190.878906 C 343.492188 191.457031 343.949219 191.957031 344.492188 192.382812 C 345.03125 192.808594 345.625 193.132812 346.277344 193.359375 C 346.925781 193.582031 347.59375 193.695312 348.28125 193.695312 C 349.117188 193.695312 349.941406 193.777344 350.757812 193.945312 C 351.574219 194.113281 352.367188 194.359375 353.132812 194.6875 C 353.902344 195.015625 354.625 195.417969 355.3125 195.894531 C 355.996094 196.371094 356.625 196.910156 357.203125 197.515625 C 357.777344 198.117188 358.285156 198.773438 358.726562 199.480469 C 359.167969 200.1875 359.535156 200.933594 359.824219 201.714844 C 360.117188 202.496094 360.324219 203.300781 360.449219 204.125 C 360.578125 204.949219 360.621094 205.777344 360.578125 206.613281 C 360.496094 207.421875 360.335938 208.21875 360.101562 209 C 359.871094 209.78125 359.566406 210.535156 359.191406 211.257812 C 358.816406 211.980469 358.378906 212.664062 357.875 213.308594 C 357.371094 213.949219 356.816406 214.539062 356.203125 215.074219 C 355.589844 215.613281 354.929688 216.085938 354.226562 216.5 C 353.527344 216.914062 352.792969 217.257812 352.023438 217.535156 C 351.257812 217.8125 350.472656 218.011719 349.664062 218.140625 C 348.859375 218.269531 348.050781 218.320312 347.238281 218.296875 L 329.835938 218.296875 C 329.433594 218.296875 329.03125 218.335938 328.636719 218.414062 C 328.242188 218.492188 327.855469 218.609375 327.484375 218.765625 C 327.109375 218.917969 326.757812 219.109375 326.421875 219.332031 C 326.085938 219.558594 325.773438 219.8125 325.488281 220.097656 C 325.203125 220.382812 324.949219 220.695312 324.722656 221.03125 C 324.5 221.367188 324.308594 221.71875 324.15625 222.09375 C 324 222.464844 323.882812 222.851562 323.804688 223.246094 C 323.726562 223.644531 323.6875 224.042969 323.6875 224.445312 C 323.6875 224.851562 323.726562 225.25 323.804688 225.648438 C 323.882812 226.042969 324 226.425781 324.15625 226.800781 C 324.308594 227.171875 324.5 227.527344 324.722656 227.863281 C 324.949219 228.199219 325.203125 228.511719 325.488281 228.796875 C 325.773438 229.082031 326.085938 229.335938 326.421875 229.558594 C 326.757812 229.785156 327.109375 229.972656 327.484375 230.128906 C 327.855469 230.285156 328.242188 230.398438 328.636719 230.480469 C 329.03125 230.558594 329.433594 230.597656 329.835938 230.597656 C 330.84375 230.597656 331.847656 230.648438 332.847656 230.75 C 333.851562 230.847656 334.84375 230.996094 335.832031 231.195312 C 336.816406 231.390625 337.792969 231.636719 338.757812 231.929688 C 339.71875 232.222656 340.664062 232.5625 341.59375 232.949219 C 342.523438 233.332031 343.433594 233.761719 344.320312 234.238281 C 345.207031 234.714844 346.070312 235.230469 346.90625 235.789062 C 347.742188 236.351562 348.550781 236.949219 349.328125 237.589844 C 350.105469 238.226562 350.851562 238.902344 351.5625 239.613281 C 352.273438 240.324219 352.949219 241.070312 353.589844 241.847656 C 354.226562 242.628906 354.828125 243.433594 355.386719 244.273438 C 355.945312 245.109375 356.460938 245.972656 356.9375 246.859375 C 357.414062 247.746094 357.84375 248.65625 358.230469 249.585938 C 358.613281 250.515625 358.953125 251.460938 359.246094 252.425781 C 359.539062 253.386719 359.785156 254.363281 359.980469 255.351562 C 360.179688 256.335938 360.328125 257.332031 360.425781 258.332031 C 360.527344 259.335938 360.578125 260.339844 360.578125 261.347656 C 360.113281 268.160156 358.414062 274.648438 355.476562 280.8125 C 355.363281 279.914062 355.1875 279.03125 354.945312 278.164062 C 354.703125 277.292969 354.398438 276.445312 354.035156 275.621094 C 353.667969 274.792969 353.246094 274 352.761719 273.238281 C 352.28125 272.472656 351.746094 271.75 351.160156 271.0625 C 350.570312 270.378906 349.9375 269.738281 349.253906 269.148438 C 348.574219 268.554688 347.851562 268.015625 347.09375 267.527344 C 346.332031 267.042969 345.542969 266.613281 344.71875 266.242188 C 343.894531 265.871094 343.050781 265.5625 342.183594 265.3125 L 280.648438 250.332031 L 280.648438 218.910156 C 284.023438 216.710938 287.179688 214.234375 290.117188 211.484375 C 291.789062 209.902344 293.375 208.242188 294.878906 206.5 C 296.382812 204.757812 297.792969 202.945312 299.113281 201.058594 C 300.429688 199.175781 301.652344 197.230469 302.773438 195.21875 C 303.894531 193.210938 304.910156 191.152344 305.820312 189.039062 C 306.734375 186.925781 307.535156 184.773438 308.230469 182.578125 C 308.921875 180.386719 309.503906 178.164062 309.972656 175.910156 C 310.441406 173.65625 310.792969 171.386719 311.027344 169.097656 C 311.265625 166.808594 311.386719 164.515625 311.390625 162.214844 L 311.390625 132.195312 L 317.539062 132.195312 C 317.941406 132.195312 318.34375 132.15625 318.738281 132.078125 C 319.136719 132 319.519531 131.882812 319.890625 131.730469 C 320.265625 131.574219 320.621094 131.382812 320.957031 131.160156 C 321.289062 130.9375 321.601562 130.679688 321.886719 130.394531 C 322.171875 130.109375 322.425781 129.800781 322.652344 129.464844 C 322.875 129.128906 323.066406 128.773438 323.21875 128.398438 C 323.375 128.027344 323.492188 127.644531 323.570312 127.246094 C 323.648438 126.851562 323.6875 126.449219 323.6875 126.046875 C 323.6875 125.644531 323.648438 125.242188 323.570312 124.847656 C 323.492188 124.449219 323.375 124.066406 323.21875 123.691406 C 323.066406 123.320312 322.875 122.964844 322.652344 122.628906 C 322.425781 122.292969 322.171875 121.984375 321.886719 121.699219 C 321.601562 121.414062 321.289062 121.15625 320.957031 120.933594 C 320.621094 120.707031 320.265625 120.519531 319.890625 120.363281 C 319.519531 120.210938 319.136719 120.09375 318.738281 120.015625 C 318.34375 119.9375 317.941406 119.898438 317.539062 119.898438 L 301.214844 119.898438 C 300.292969 119.894531 299.375 119.820312 298.460938 119.664062 C 297.550781 119.511719 296.660156 119.28125 295.785156 118.980469 C 294.914062 118.675781 294.070312 118.300781 293.261719 117.859375 C 292.453125 117.414062 291.683594 116.90625 290.957031 116.332031 C 290.234375 115.757812 289.558594 115.128906 288.941406 114.445312 C 288.320312 113.757812 287.761719 113.027344 287.265625 112.246094 C 286.765625 111.46875 286.335938 110.652344 285.976562 109.804688 C 285.617188 108.953125 285.328125 108.078125 285.113281 107.179688 L 272.378906 61.933594 C 272.199219 61.289062 271.917969 60.691406 271.542969 60.136719 C 271.164062 59.582031 270.710938 59.105469 270.175781 58.699219 C 269.644531 58.296875 269.058594 57.984375 268.425781 57.773438 C 267.792969 57.558594 267.140625 57.449219 266.46875 57.449219 C 265.800781 57.449219 265.152344 57.554688 264.515625 57.769531 C 263.882812 57.980469 263.296875 58.289062 262.765625 58.691406 C 262.230469 59.09375 261.777344 59.570312 261.398438 60.121094 C 261.019531 60.675781 260.738281 61.273438 260.554688 61.914062 L 248.875 103.050781 C 248.574219 104.25 248.179688 105.410156 247.691406 106.542969 C 247.199219 107.671875 246.617188 108.753906 245.945312 109.789062 C 245.273438 110.824219 244.523438 111.792969 243.6875 112.703125 C 242.855469 113.613281 241.953125 114.445312 240.980469 115.203125 C 240.007812 115.960938 238.980469 116.632812 237.894531 117.21875 C 236.8125 117.808594 235.6875 118.300781 234.519531 118.699219 C 233.355469 119.097656 232.164062 119.398438 230.949219 119.601562 C 229.730469 119.800781 228.507812 119.898438 227.273438 119.898438 L 169.976562 119.898438 C 169.574219 119.898438 169.171875 119.9375 168.777344 120.015625 C 168.382812 120.09375 167.996094 120.210938 167.625 120.363281 C 167.25 120.519531 166.898438 120.707031 166.5625 120.933594 C 166.226562 121.15625 165.914062 121.414062 165.628906 121.699219 C 165.34375 121.984375 165.089844 122.292969 164.863281 122.628906 C 164.640625 122.964844 164.449219 123.320312 164.296875 123.691406 C 164.140625 124.066406 164.027344 124.449219 163.945312 124.847656 C 163.867188 125.242188 163.828125 125.644531 163.828125 126.046875 C 163.828125 126.449219 163.867188 126.851562 163.945312 127.246094 C 164.027344 127.644531 164.140625 128.027344 164.296875 128.398438 C 164.449219 128.773438 164.640625 129.128906 164.863281 129.464844 C 165.089844 129.800781 165.34375 130.109375 165.628906 130.394531 C 165.914062 130.679688 166.226562 130.9375 166.5625 131.160156 C 166.898438 131.382812 167.25 131.574219 167.625 131.730469 C 167.996094 131.882812 168.382812 132 168.777344 132.078125 C 169.171875 132.15625 169.574219 132.195312 169.976562 132.195312 L 176.125 132.195312 L 176.125 159.808594 C 176.109375 162.6875 176.273438 165.554688 176.605469 168.410156 C 176.941406 171.269531 177.449219 174.09375 178.132812 176.890625 C 178.8125 179.6875 179.660156 182.429688 180.675781 185.121094 C 181.6875 187.8125 182.863281 190.433594 184.199219 192.980469 C 185.535156 195.53125 187.019531 197.988281 188.652344 200.355469 C 190.289062 202.722656 192.058594 204.980469 193.96875 207.132812 C 195.878906 209.285156 197.914062 211.308594 200.070312 213.214844 C 202.230469 215.117188 204.496094 216.878906 206.867188 218.507812 L 206.867188 250.277344 L 142.210938 265.375 C 140.824219 265.792969 139.503906 266.367188 138.25 267.097656 C 137 267.824219 135.847656 268.691406 134.800781 269.695312 C 133.753906 270.695312 132.839844 271.808594 132.054688 273.027344 C 131.269531 274.246094 130.636719 275.539062 130.160156 276.90625 C 128.242188 271.894531 127.167969 266.707031 126.9375 261.347656 C 126.9375 260.339844 126.988281 259.335938 127.089844 258.332031 C 127.1875 257.332031 127.335938 256.335938 127.535156 255.351562 C 127.730469 254.363281 127.976562 253.386719 128.269531 252.425781 C 128.5625 251.460938 128.902344 250.515625 129.289062 249.585938 C 129.671875 248.65625 130.105469 247.746094 130.578125 246.859375 C 131.054688 245.972656 131.570312 245.109375 132.128906 244.273438 C 132.691406 243.433594 133.289062 242.628906 133.925781 241.847656 C 134.566406 241.070312 135.242188 240.324219 135.953125 239.613281 C 136.664062 238.902344 137.410156 238.226562 138.1875 237.589844 C 138.964844 236.949219 139.773438 236.351562 140.609375 235.789062 C 141.445312 235.230469 142.308594 234.714844 143.195312 234.238281 C 144.082031 233.761719 144.992188 233.332031 145.921875 232.949219 C 146.851562 232.5625 147.796875 232.222656 148.761719 231.929688 C 149.722656 231.636719 150.699219 231.390625 151.683594 231.195312 C 152.671875 230.996094 153.667969 230.847656 154.667969 230.75 C 155.667969 230.648438 156.671875 230.597656 157.679688 230.597656 Z M 141.292969 283.0625 C 141.339844 282.859375 141.371094 282.65625 141.394531 282.449219 C 141.441406 281.871094 141.574219 281.308594 141.785156 280.769531 C 141.992188 280.230469 142.277344 279.730469 142.628906 279.269531 C 142.984375 278.808594 143.394531 278.40625 143.863281 278.066406 C 144.332031 277.722656 144.835938 277.453125 145.382812 277.257812 L 183.378906 268.394531 L 188.519531 299.253906 C 188.613281 299.808594 188.777344 300.335938 189.011719 300.84375 C 189.246094 301.351562 189.546875 301.816406 189.910156 302.242188 C 190.273438 302.667969 190.6875 303.035156 191.148438 303.347656 C 191.613281 303.660156 192.109375 303.90625 192.640625 304.082031 L 205.25 308.285156 L 201.050781 320.902344 C 200.933594 321.25 200.851562 321.605469 200.796875 321.96875 C 200.746094 322.332031 200.726562 322.699219 200.738281 323.066406 C 200.75 323.433594 200.796875 323.796875 200.871094 324.152344 C 200.949219 324.511719 201.058594 324.863281 201.199219 325.199219 C 201.339844 325.539062 201.507812 325.863281 201.707031 326.171875 C 201.902344 326.480469 202.128906 326.769531 202.378906 327.039062 C 202.628906 327.308594 202.898438 327.554688 203.191406 327.773438 C 203.488281 327.996094 203.796875 328.1875 204.125 328.351562 L 237.609375 345.097656 L 237.609375 359.746094 L 169.976562 359.746094 L 169.976562 335.148438 C 169.976562 334.742188 169.9375 334.34375 169.859375 333.945312 C 169.78125 333.550781 169.664062 333.167969 169.507812 332.792969 C 169.355469 332.421875 169.164062 332.066406 168.941406 331.730469 C 168.714844 331.394531 168.460938 331.082031 168.175781 330.796875 C 167.890625 330.511719 167.578125 330.257812 167.246094 330.035156 C 166.910156 329.808594 166.554688 329.621094 166.179688 329.464844 C 165.808594 329.308594 165.425781 329.195312 165.027344 329.113281 C 164.632812 329.035156 164.230469 328.996094 163.828125 328.996094 C 163.425781 328.996094 163.023438 329.035156 162.628906 329.113281 C 162.234375 329.195312 161.847656 329.308594 161.476562 329.464844 C 161.101562 329.621094 160.75 329.808594 160.414062 330.035156 C 160.078125 330.257812 159.765625 330.511719 159.480469 330.796875 C 159.195312 331.082031 158.941406 331.394531 158.714844 331.730469 C 158.492188 332.066406 158.300781 332.421875 158.148438 332.792969 C 157.992188 333.167969 157.878906 333.550781 157.796875 333.945312 C 157.71875 334.34375 157.679688 334.742188 157.679688 335.148438 L 157.679688 359.746094 L 136.886719 359.746094 L 128.546875 343.0625 Z M 18.816406 243.417969 C 19.613281 242.867188 20.488281 242.542969 21.449219 242.441406 C 22.410156 242.335938 23.335938 242.472656 24.226562 242.839844 L 69.320312 260.878906 C 69.878906 261.101562 70.457031 261.242188 71.058594 261.292969 C 71.65625 261.347656 72.25 261.316406 72.839844 261.195312 C 73.425781 261.074219 73.988281 260.871094 74.515625 260.585938 C 75.046875 260.300781 75.523438 259.945312 75.949219 259.519531 L 83.523438 251.9375 C 83.761719 251.703125 84.027344 251.507812 84.324219 251.359375 C 84.625 251.210938 84.9375 251.113281 85.269531 251.0625 C 85.597656 251.015625 85.929688 251.019531 86.257812 251.078125 C 86.585938 251.132812 86.898438 251.242188 87.191406 251.398438 C 87.484375 251.554688 87.746094 251.753906 87.976562 251.996094 C 88.207031 252.238281 88.394531 252.511719 88.539062 252.8125 C 88.679688 253.113281 88.773438 253.429688 88.816406 253.761719 C 88.855469 254.089844 88.84375 254.421875 88.78125 254.746094 L 84.023438 278.566406 C 83.742188 279.945312 83.917969 281.265625 84.542969 282.527344 L 123.136719 359.746094 L 82.386719 359.746094 L 59.070312 278.082031 C 58.851562 277.308594 58.492188 276.605469 57.996094 275.972656 C 57.5 275.339844 56.902344 274.824219 56.207031 274.429688 L 19.191406 253.273438 C 18.75 253.015625 18.347656 252.710938 17.984375 252.347656 C 17.621094 251.988281 17.3125 251.585938 17.054688 251.144531 C 16.796875 250.699219 16.601562 250.230469 16.46875 249.738281 C 16.335938 249.242188 16.265625 248.742188 16.265625 248.230469 C 16.257812 247.261719 16.480469 246.355469 16.933594 245.5 C 17.386719 244.648438 18.015625 243.953125 18.816406 243.417969 Z M 18.816406 243.417969 " fill-opacity="1" fill-rule="nonzero"/></g><path fill="#ffffff" d="M 74.355469 136.945312 L 80.289062 139.089844 C 81.253906 139.4375 82.234375 139.738281 83.230469 139.992188 C 84.226562 140.242188 85.230469 140.445312 86.246094 140.597656 C 87.261719 140.753906 88.28125 140.855469 89.308594 140.910156 C 90.332031 140.960938 91.359375 140.964844 92.386719 140.917969 C 93.410156 140.867188 94.429688 140.769531 95.449219 140.621094 C 96.464844 140.476562 97.46875 140.277344 98.464844 140.03125 C 99.464844 139.785156 100.445312 139.488281 101.414062 139.144531 C 102.378906 138.800781 103.328125 138.410156 104.257812 137.972656 C 105.1875 137.539062 106.09375 137.058594 106.976562 136.53125 C 107.859375 136.003906 108.710938 135.4375 109.539062 134.828125 C 110.363281 134.21875 111.160156 133.570312 111.921875 132.882812 C 112.683594 132.195312 113.410156 131.472656 114.101562 130.710938 C 114.792969 129.953125 115.445312 129.160156 116.0625 128.339844 C 116.675781 127.515625 117.246094 126.664062 117.777344 125.785156 C 118.308594 124.90625 118.792969 124.003906 119.234375 123.074219 C 119.675781 122.148438 120.070312 121.199219 120.421875 120.234375 C 120.558594 119.855469 120.65625 119.464844 120.71875 119.066406 C 120.777344 118.667969 120.796875 118.265625 120.78125 117.863281 C 120.761719 117.460938 120.703125 117.0625 120.605469 116.671875 C 120.511719 116.28125 120.375 115.902344 120.203125 115.535156 C 120.035156 115.167969 119.828125 114.824219 119.589844 114.5 C 119.351562 114.175781 119.082031 113.875 118.785156 113.605469 C 118.484375 113.332031 118.164062 113.089844 117.820312 112.882812 C 117.472656 112.671875 117.109375 112.5 116.730469 112.363281 L 110.796875 110.214844 C 109.929688 109.90625 109.046875 109.636719 108.152344 109.402344 C 107.257812 109.171875 106.355469 108.980469 105.441406 108.828125 C 104.53125 108.675781 103.617188 108.5625 102.695312 108.492188 C 101.773438 108.417969 100.851562 108.390625 99.925781 108.398438 C 99.003906 108.410156 98.082031 108.460938 97.164062 108.550781 C 96.242188 108.644531 95.328125 108.777344 94.421875 108.949219 C 93.515625 109.121094 92.617188 109.332031 91.726562 109.585938 C 90.839844 109.835938 89.960938 110.125 89.097656 110.457031 C 88.234375 110.785156 87.390625 111.152344 86.558594 111.554688 C 85.726562 111.960938 84.917969 112.402344 84.125 112.875 C 83.332031 113.351562 82.5625 113.863281 81.816406 114.40625 C 81.070312 114.949219 80.347656 115.527344 79.652344 116.132812 C 78.957031 116.742188 78.289062 117.378906 77.648438 118.046875 C 77.007812 118.710938 76.398438 119.40625 75.820312 120.125 C 75.242188 120.847656 74.695312 121.59375 74.183594 122.359375 C 73.671875 123.128906 73.195312 123.917969 72.75 124.730469 C 72.082031 119.691406 70.667969 114.875 68.507812 110.273438 C 68.335938 109.90625 68.132812 109.5625 67.890625 109.234375 C 67.652344 108.910156 67.382812 108.613281 67.085938 108.339844 C 66.785156 108.066406 66.464844 107.828125 66.117188 107.617188 C 65.773438 107.410156 65.410156 107.238281 65.03125 107.101562 C 64.648438 106.964844 64.261719 106.863281 63.859375 106.804688 C 63.460938 106.742188 63.058594 106.722656 62.65625 106.742188 C 62.253906 106.761719 61.855469 106.820312 61.464844 106.917969 C 61.070312 107.011719 60.691406 107.148438 60.328125 107.320312 C 59.960938 107.492188 59.617188 107.699219 59.292969 107.9375 C 58.964844 108.175781 58.667969 108.445312 58.394531 108.746094 C 58.125 109.042969 57.882812 109.367188 57.675781 109.710938 C 57.46875 110.058594 57.296875 110.421875 57.160156 110.800781 C 57.019531 111.183594 56.921875 111.570312 56.863281 111.972656 C 56.804688 112.371094 56.78125 112.773438 56.800781 113.175781 C 56.820312 113.578125 56.878906 113.976562 56.976562 114.371094 C 57.074219 114.761719 57.207031 115.140625 57.378906 115.503906 C 58.3125 117.484375 59.0625 119.535156 59.628906 121.648438 C 60.195312 123.761719 60.570312 125.910156 60.75 128.09375 C 60.933594 130.277344 60.917969 132.457031 60.707031 134.636719 C 60.5 136.816406 60.097656 138.957031 59.5 141.066406 C 56.195312 138.261719 52.503906 136.109375 48.433594 134.613281 C 29.132812 127.644531 15.234375 134.160156 8.292969 153.464844 C 7.476562 155.953125 6.867188 158.488281 6.457031 161.078125 C 6.046875 163.664062 5.847656 166.265625 5.851562 168.882812 C 5.855469 171.5 6.070312 174.101562 6.488281 176.6875 C 6.910156 179.273438 7.53125 181.808594 8.351562 184.292969 C 9.042969 186.894531 10.015625 189.378906 11.28125 191.753906 C 12.546875 194.128906 14.0625 196.328125 15.835938 198.347656 C 17.609375 200.371094 19.589844 202.164062 21.777344 203.730469 C 23.964844 205.292969 26.304688 206.585938 28.789062 207.609375 C 32.902344 209.125 37.148438 209.742188 41.523438 209.453125 C 44.707031 212.472656 48.367188 214.707031 52.503906 216.164062 C 55.613281 217.277344 58.820312 217.828125 62.121094 217.8125 C 64.347656 217.640625 66.546875 217.316406 68.726562 216.835938 C 70.90625 216.355469 73.042969 215.722656 75.132812 214.941406 C 77.222656 214.160156 79.25 213.238281 81.210938 212.171875 C 83.171875 211.105469 85.046875 209.90625 86.839844 208.578125 C 88.632812 207.246094 90.324219 205.796875 91.910156 204.230469 C 93.5 202.660156 94.972656 200.988281 96.324219 199.214844 C 97.679688 197.441406 98.902344 195.578125 99.992188 193.632812 C 101.082031 191.683594 102.035156 189.671875 102.84375 187.589844 C 103.6875 185.664062 104.339844 183.675781 104.792969 181.625 C 105.246094 179.570312 105.492188 177.496094 105.535156 175.390625 C 105.578125 173.289062 105.417969 171.203125 105.046875 169.136719 C 104.679688 167.066406 104.113281 165.050781 103.347656 163.09375 C 102.34375 161.203125 101.164062 159.433594 99.804688 157.78125 C 98.445312 156.132812 96.933594 154.632812 95.273438 153.289062 C 93.609375 151.945312 91.828125 150.777344 89.929688 149.796875 C 88.03125 148.8125 86.054688 148.027344 83.996094 147.441406 C 79.820312 145.957031 75.515625 145.253906 71.085938 145.328125 C 72 142.296875 72.613281 139.207031 72.929688 136.058594 C 73.363281 136.421875 73.839844 136.71875 74.355469 136.945312 Z M 105.800781 121.515625 C 105.203125 122.253906 104.554688 122.949219 103.855469 123.59375 C 103.15625 124.238281 102.414062 124.828125 101.628906 125.359375 C 100.839844 125.894531 100.019531 126.367188 99.160156 126.777344 C 98.300781 127.1875 97.417969 127.53125 96.511719 127.8125 C 95.601562 128.089844 94.675781 128.300781 93.734375 128.441406 C 92.796875 128.578125 91.847656 128.648438 90.898438 128.648438 C 89.949219 128.648438 89 128.574219 88.0625 128.433594 C 87.121094 128.292969 86.195312 128.082031 85.289062 127.800781 C 85.882812 127.058594 86.53125 126.363281 87.230469 125.71875 C 87.929688 125.074219 88.671875 124.484375 89.457031 123.949219 C 90.246094 123.414062 91.066406 122.941406 91.925781 122.53125 C 92.78125 122.121094 93.667969 121.773438 94.574219 121.496094 C 95.484375 121.21875 96.410156 121.007812 97.351562 120.867188 C 98.292969 120.726562 99.238281 120.660156 100.1875 120.660156 C 101.140625 120.660156 102.085938 120.734375 103.027344 120.878906 C 103.964844 121.019531 104.890625 121.234375 105.800781 121.515625 Z M 79.804688 159.03125 C 81.085938 159.355469 82.320312 159.804688 83.515625 160.375 C 84.707031 160.945312 85.832031 161.625 86.890625 162.417969 C 87.949219 163.210938 88.921875 164.097656 89.808594 165.078125 C 90.691406 166.058594 91.472656 167.117188 92.148438 168.253906 C 92.984375 170.75 93.320312 173.308594 93.167969 175.933594 C 93.015625 178.5625 92.378906 181.0625 91.257812 183.445312 C 86.519531 196.570312 69.300781 209.207031 56.65625 204.625 C 53.453125 203.542969 50.777344 201.695312 48.625 199.089844 C 48.042969 198.371094 47.332031 197.816406 46.496094 197.417969 C 45.660156 197.019531 44.78125 196.820312 43.855469 196.820312 C 43.453125 196.820312 43.054688 196.859375 42.660156 196.9375 C 39.34375 197.574219 36.105469 197.285156 32.953125 196.070312 C 31.363281 195.34375 29.871094 194.449219 28.480469 193.386719 C 27.09375 192.324219 25.839844 191.121094 24.722656 189.777344 C 23.605469 188.429688 22.648438 186.976562 21.859375 185.417969 C 21.070312 183.855469 20.464844 182.226562 20.042969 180.53125 C 18.808594 176.824219 18.175781 173.019531 18.140625 169.117188 C 18.105469 165.210938 18.675781 161.394531 19.84375 157.671875 C 24.503906 144.753906 31.324219 141.558594 44.246094 146.210938 C 46.828125 147.15625 49.191406 148.484375 51.335938 150.207031 C 53.480469 151.925781 55.292969 153.945312 56.773438 156.261719 C 57.136719 156.820312 57.582031 157.308594 58.105469 157.726562 C 58.628906 158.140625 59.207031 158.460938 59.835938 158.6875 C 60.464844 158.914062 61.113281 159.035156 61.78125 159.050781 C 62.453125 159.066406 63.105469 158.976562 63.746094 158.777344 C 66.363281 157.9375 69.046875 157.535156 71.792969 157.578125 C 74.542969 157.617188 77.210938 158.097656 79.804688 159.015625 Z M 79.804688 159.03125 " fill-opacity="1" fill-rule="nonzero"/></svg>