<svg width="95" height="95" viewBox="0 0 95 95" fill="none" xmlns="http://www.w3.org/2000/svg">
<g clip-path="url(#clip0_155_106)">
<path d="M54.8351 77.2558C52.9856 77.2558 51.1361 76.9016 49.3904 76.194L28.7052 67.7895C26.2342 66.784 23.5544 66.5663 20.9518 67.1561L16.6422 68.1338C16.1187 68.2506 15.5982 67.926 15.4794 67.4025C15.3607 66.879 15.6882 66.3585 16.2117 66.2398L20.5203 65.2611C23.5128 64.5832 26.5934 64.8326 29.4335 65.9894L50.1158 74.3949C53.3933 75.7269 57.0993 75.6052 60.2808 74.0674L86.771 61.2582C87.5181 60.898 88.0742 60.2676 88.3414 59.4859C88.6096 58.7031 88.5532 57.862 88.1811 57.1208C87.6547 56.0738 86.6017 55.4226 85.433 55.4226C85.156 55.4226 84.8799 55.4612 84.6087 55.5355L62.3718 61.7312C61.8542 61.8737 61.3189 61.5729 61.1764 61.0554C61.0339 60.5388 61.3337 60.0034 61.8513 59.8599L84.0882 53.6651C84.5286 53.5434 84.9838 53.4811 85.433 53.4811C87.3419 53.4811 89.0609 54.5429 89.9178 56.2529C90.5245 57.4632 90.6165 58.8337 90.1801 60.1162C89.7427 61.3948 88.8323 62.4239 87.6161 63.0098L61.1259 75.8189C59.1537 76.7739 56.9944 77.2558 54.8351 77.2558Z" fill="white"/>
<path d="M58.5673 65.7519C58.121 65.7519 57.6668 65.6866 57.2175 65.547L40.7558 60.4932C40.2442 60.3359 39.9562 59.7916 40.1136 59.28C40.2709 58.7684 40.8152 58.4804 41.3268 58.6378L57.7885 63.6906C59.1294 64.1042 60.5485 63.3907 61.0156 62.0667C61.1165 61.7847 61.167 61.4898 61.167 61.1899C61.167 61.0949 61.161 60.9989 61.1492 60.9039C61.0571 60.0717 60.5693 59.3335 59.8498 58.9238L35.2864 44.8855C32.6986 43.4071 29.6567 42.8668 26.7245 43.3537L16.5674 45.0162C16.038 45.1032 15.5383 44.743 15.4522 44.2136C15.3661 43.6842 15.7263 43.1844 16.2557 43.0984L26.4088 41.4359C29.7784 40.8738 33.2756 41.4982 36.2502 43.1963L60.8097 57.2345C62.0655 57.948 62.9156 59.2355 63.0759 60.6783C63.0937 60.8416 63.1056 61.0138 63.1056 61.184C63.1056 61.7104 63.0165 62.225 62.8413 62.7119C62.1872 64.5832 60.4446 65.7519 58.5673 65.7519Z" fill="white"/>
<path d="M12.5411 72.3129H5.93565C5.40029 72.3129 4.96289 71.8784 4.96289 71.3401V40.4899C4.96289 39.9545 5.39732 39.5171 5.93565 39.5171H12.5411C15.2209 39.5171 17.401 41.6971 17.401 44.3769V67.453C17.401 70.1328 15.2209 72.3129 12.5411 72.3129ZM6.90544 70.3703H12.5411C14.1502 70.3703 15.4584 69.0621 15.4584 67.453V44.3769C15.4584 42.7679 14.1502 41.4596 12.5411 41.4596H6.90544V70.3703Z" fill="white"/>
<path d="M11.1805 68.3249C9.55065 68.3249 8.22461 66.9978 8.22461 65.368C8.22461 63.7382 9.55065 62.4121 11.1805 62.4121C12.8103 62.4121 14.1374 63.7382 14.1374 65.368C14.1374 66.9978 12.8103 68.3249 11.1805 68.3249ZM11.1805 64.3537C10.6214 64.3537 10.1672 64.8089 10.1672 65.368C10.1672 65.9271 10.6214 66.3823 11.1805 66.3823C11.7396 66.3823 12.1948 65.9271 12.1948 65.368C12.1948 64.8089 11.7396 64.3537 11.1805 64.3537Z" fill="white"/>
<path d="M55.443 40.4364C53.6638 40.4364 52.0695 39.5171 51.1809 37.9773C50.2913 36.4365 50.2913 34.5988 51.1809 33.0581L54.6009 27.1364C54.7731 26.8356 55.0947 26.6515 55.443 26.6515C55.7904 26.6515 56.112 26.8356 56.2842 27.1364L59.7042 33.0581C60.5938 34.5988 60.5938 36.4365 59.7042 37.9773C58.8126 39.5141 57.2213 40.4364 55.443 40.4364ZM55.443 29.5599L52.8642 34.0249C52.3258 34.9551 52.3258 36.0703 52.8642 37.0015C53.4025 37.9327 54.3664 38.4889 55.443 38.4889C56.5197 38.4889 57.4826 37.9327 58.0209 37.0015C58.5592 36.0703 58.5592 34.9551 58.0209 34.0249L55.443 29.5599Z" fill="white"/>
<path d="M67.169 50.9318C64.9563 50.9318 62.9752 49.7869 61.8688 47.8721C60.7625 45.9562 60.7625 43.6693 61.8688 41.7545L66.3269 34.0337C66.5001 33.7329 66.8207 33.5488 67.169 33.5488C67.5164 33.5488 67.838 33.7329 68.0102 34.0337L72.4683 41.7545C73.5746 43.6693 73.5746 45.9562 72.4683 47.8721C71.3619 49.7869 69.3817 50.9318 67.169 50.9318ZM67.169 36.4632L63.5521 42.7262C62.7971 44.0325 62.7971 45.593 63.5521 46.9023C64.3082 48.2075 65.6579 48.9903 67.169 48.9903C68.6801 48.9903 70.0299 48.2105 70.785 46.9023C71.541 45.596 71.541 44.0354 70.785 42.7262L67.169 36.4632Z" fill="white"/>
<path d="M63.4372 26.4851C62.0251 26.4851 60.7604 25.7538 60.0558 24.5307C59.3512 23.3086 59.3512 21.848 60.0558 20.6258L62.599 16.2242C62.7712 15.9243 63.0918 15.7393 63.4402 15.7393C63.7885 15.7393 64.1091 15.9243 64.2823 16.2242L66.8245 20.6258C67.5291 21.848 67.5291 23.3086 66.8245 24.5307C66.114 25.7538 64.8473 26.4851 63.4372 26.4851ZM63.4372 18.6516L61.7361 21.5956C61.3818 22.2111 61.3818 22.9424 61.7361 23.5589C62.0904 24.1745 62.7267 24.5396 63.4372 24.5396C64.1477 24.5396 64.782 24.1745 65.1383 23.5589C65.4926 22.9424 65.4926 22.2111 65.1383 21.5956L63.4372 18.6516Z" fill="white"/>
<path d="M40.4054 33.917C39.87 33.917 39.4336 33.4836 39.4336 32.9453V31.8627C39.4336 31.3273 39.867 30.8899 40.4054 30.8899C40.9407 30.8899 41.3781 31.3243 41.3781 31.8627V32.9453C41.3781 33.4836 40.9407 33.917 40.4054 33.917Z" fill="white"/>
<path d="M40.4054 39.4606C39.87 39.4606 39.4336 39.0272 39.4336 38.4888V37.4062C39.4336 36.8709 39.867 36.4335 40.4054 36.4335C40.9407 36.4335 41.3781 36.8679 41.3781 37.4062V38.4888C41.3781 39.0242 40.9407 39.4606 40.4054 39.4606Z" fill="white"/>
<path d="M43.7184 36.1474H42.6358C42.1005 36.1474 41.6641 35.714 41.6641 35.1756C41.6641 34.6403 42.0975 34.2029 42.6358 34.2029H43.7184C44.2538 34.2029 44.6912 34.6373 44.6912 35.1756C44.6912 35.711 44.2538 36.1474 43.7184 36.1474Z" fill="white"/>
<path d="M38.1735 36.1474H37.0909C36.5555 36.1474 36.1191 35.714 36.1191 35.1756C36.1191 34.6403 36.5526 34.2029 37.0909 34.2029H38.1735C38.7089 34.2029 39.1463 34.6373 39.1463 35.1756C39.1463 35.711 38.7118 36.1474 38.1735 36.1474Z" fill="white"/>
<path d="M75.7491 24.8019C75.2138 24.8019 74.7773 24.3675 74.7773 23.8292V22.7466C74.7773 22.2112 75.2108 21.7738 75.7491 21.7738C76.2874 21.7738 76.7219 22.2082 76.7219 22.7466V23.8292C76.7189 24.3675 76.2845 24.8019 75.7491 24.8019Z" fill="white"/>
<path d="M75.7491 30.3426C75.2138 30.3426 74.7773 29.9082 74.7773 29.3698V28.2872C74.7773 27.7518 75.2108 27.3145 75.7491 27.3145C76.2874 27.3145 76.7219 27.7489 76.7219 28.2872V29.3698C76.7189 29.9082 76.2845 30.3426 75.7491 30.3426Z" fill="white"/>
<path d="M79.0622 27.0295H77.9796C77.4442 27.0295 77.0078 26.5951 77.0078 26.0567C77.0078 25.5214 77.4413 25.084 77.9796 25.084H79.0622C79.5976 25.084 80.0349 25.5184 80.0349 26.0567C80.032 26.5951 79.5976 27.0295 79.0622 27.0295Z" fill="white"/>
<path d="M73.5173 27.0295H72.4347C71.8993 27.0295 71.4629 26.5951 71.4629 26.0567C71.4629 25.5214 71.8963 25.084 72.4347 25.084H73.5173C74.0526 25.084 74.49 25.5184 74.49 26.0567C74.49 26.5951 74.0526 27.0295 73.5173 27.0295Z" fill="white"/>
<mask id="mask0_155_106" style="mask-type:luminance" maskUnits="userSpaceOnUse" x="0" y="11" width="95" height="73">
<path d="M0 11.6326H95V83.4526H0V11.6326Z" fill="white"/>
</mask>
<g mask="url(#mask0_155_106)">
<path d="M114.85 18.1341C111.181 9.45549 105.928 1.66351 99.2363 -5.02806C92.5477 -11.7167 84.7558 -16.9694 76.0741 -20.6427C67.0867 -24.4397 57.5422 -26.3674 47.7107 -26.3674C37.8782 -26.3674 28.3337 -24.4397 19.3463 -20.6427C10.6676 -16.9723 2.87565 -11.7196 -3.81591 -5.02806C-10.5045 1.66054 -15.7562 9.45251 -19.4296 18.1341C-23.2276 27.1215 -25.1543 36.6651 -25.1543 46.4976C-25.1543 56.3301 -23.2276 65.8736 -19.4296 74.861C-15.7592 83.5396 -10.5075 91.3316 -3.81591 98.0232C2.87268 104.713 10.6647 109.964 19.3463 113.638C28.3337 117.436 37.8782 119.363 47.7107 119.363C57.5422 119.363 67.0867 117.436 76.0741 113.638C84.7528 109.967 92.5448 104.716 99.2363 98.0232C105.925 91.3346 111.178 83.5426 114.85 74.861C118.648 65.8736 120.576 56.3301 120.576 46.4976C120.576 36.6562 118.648 27.1156 114.85 18.1341ZM118.273 46.4976C118.273 85.408 86.6172 117.061 47.7107 117.061C8.80029 117.061 -22.8525 85.408 -22.8525 46.4976C-22.8525 7.58814 8.80029 -24.0657 47.7107 -24.0657C86.6201 -24.0657 118.273 7.58814 118.273 46.4976Z" fill="white"/>
</g>
</g>
<defs>
<clipPath id="clip0_155_106">
<rect width="95" height="95" fill="white"/>
</clipPath>
</defs>
</svg>
