<svg width="22" height="22" viewBox="0 0 22 22" fill="none" xmlns="http://www.w3.org/2000/svg">
<path d="M15.5839 1.83325H6.4172C3.88589 1.83325 1.83386 3.88528 1.83386 6.41659V15.5833C1.83386 18.1146 3.88589 20.1666 6.4172 20.1666H15.5839C18.1152 20.1666 20.1672 18.1146 20.1672 15.5833V6.41659C20.1672 3.88528 18.1152 1.83325 15.5839 1.83325Z" stroke="black" stroke-linecap="round" stroke-linejoin="round"/>
<path d="M14.6667 10.4223C14.7799 11.1852 14.6495 11.9643 14.2943 12.6489C13.9391 13.3335 13.3771 13.8886 12.6882 14.2353C11.9993 14.5821 11.2186 14.7028 10.4572 14.5802C9.69576 14.4577 8.99234 14.0982 8.44699 13.5529C7.90165 13.0075 7.54214 12.3041 7.41962 11.5427C7.29709 10.7812 7.41778 10.0005 7.76452 9.31163C8.11126 8.62274 8.66639 8.06072 9.35096 7.70551C10.0355 7.3503 10.8147 7.21999 11.5776 7.33312C12.3557 7.44852 13.0762 7.81113 13.6324 8.3674C14.1887 8.92368 14.5513 9.64411 14.6667 10.4223Z" stroke="black" stroke-linecap="round" stroke-linejoin="round"/>
<path d="M16.0411 5.95825H16.0511" stroke="black" stroke-linecap="round" stroke-linejoin="round"/>
</svg>
