<svg xmlns="http://www.w3.org/2000/svg" xmlns:xlink="http://www.w3.org/1999/xlink" width="500" zoomAndPan="magnify" viewBox="0 0 375 374.999991" height="500" preserveAspectRatio="xMidYMid meet" version="1.0"><defs><clipPath id="fe03f2fe01"><path d="M 0 14 L 360 14 L 360 374.4375 L 0 374.4375 Z M 0 14 " clip-rule="nonzero"/></clipPath></defs><path fill="#100f0d" d="M 180.066406 137.695312 C 183.628906 137.695312 186.511719 134.8125 186.511719 131.242188 C 186.511719 127.675781 183.628906 124.792969 180.066406 124.792969 C 141.738281 124.792969 110.554688 156.003906 110.554688 194.371094 C 110.554688 232.742188 141.738281 263.949219 180.066406 263.949219 C 218.390625 263.949219 249.574219 232.742188 249.574219 194.371094 C 249.574219 190.804688 246.691406 187.917969 243.128906 187.917969 C 239.566406 187.917969 236.683594 190.804688 236.683594 194.371094 C 236.683594 225.621094 211.289062 251.046875 180.066406 251.046875 C 148.84375 251.046875 123.445312 225.621094 123.445312 194.371094 C 123.445312 163.125 148.84375 137.695312 180.066406 137.695312 " fill-opacity="1" fill-rule="nonzero"/><path fill="#100f0d" d="M 180.066406 71.828125 C 112.570312 71.828125 57.652344 126.800781 57.652344 194.371094 C 57.652344 261.941406 112.570312 316.914062 180.066406 316.914062 C 247.558594 316.914062 302.476562 261.941406 302.476562 194.371094 C 302.476562 190.804688 299.59375 187.917969 296.035156 187.917969 C 292.46875 187.917969 289.585938 190.804688 289.585938 194.371094 C 289.585938 254.828125 240.460938 304.007812 180.066406 304.007812 C 119.667969 304.007812 70.542969 254.828125 70.542969 194.371094 C 70.542969 133.914062 119.667969 84.734375 180.066406 84.734375 C 183.628906 84.734375 186.511719 81.847656 186.511719 78.28125 C 186.511719 74.714844 183.628906 71.828125 180.066406 71.828125 " fill-opacity="1" fill-rule="nonzero"/><g clip-path="url(#fe03f2fe01)"><path fill="#100f0d" d="M 353.46875 187.917969 C 349.90625 187.917969 347.023438 190.804688 347.023438 194.371094 C 347.023438 286.523438 272.125 361.496094 180.066406 361.496094 C 88.007812 361.496094 13.105469 286.523438 13.105469 194.371094 C 13.105469 102.210938 88.007812 27.238281 180.066406 27.238281 C 183.628906 27.238281 186.511719 24.355469 186.511719 20.785156 C 186.511719 17.21875 183.628906 14.335938 180.066406 14.335938 C 80.894531 14.335938 0.207031 95.101562 0.207031 194.371094 C 0.207031 293.644531 80.894531 374.402344 180.066406 374.402344 C 279.238281 374.402344 359.914062 293.644531 359.914062 194.371094 C 359.914062 190.804688 357.03125 187.917969 353.46875 187.917969 " fill-opacity="1" fill-rule="nonzero"/></g><path fill="#100f0d" d="M 315.382812 109.039062 L 283.132812 101.320312 L 323.289062 61.527344 L 355.21875 69.164062 Z M 266.75 60.355469 L 306.582031 20.484375 L 314.191406 52.386719 L 274.289062 91.925781 Z M 374.132812 63.820312 C 373.488281 61.570312 371.6875 59.835938 369.421875 59.292969 L 326.652344 49.0625 L 316.441406 6.261719 C 315.898438 3.988281 314.175781 2.191406 311.921875 1.558594 C 309.679688 0.917969 307.265625 1.539062 305.613281 3.199219 L 255.078125 53.785156 C 253.492188 55.371094 252.847656 57.664062 253.363281 59.84375 L 263.566406 102.550781 L 175.53125 189.785156 C 173.003906 192.292969 172.976562 196.375 175.480469 198.910156 C 176.742188 200.1875 178.40625 200.824219 180.066406 200.824219 C 181.703125 200.824219 183.339844 200.203125 184.597656 198.957031 L 272.34375 112.007812 L 315.886719 122.429688 C 316.378906 122.550781 316.882812 122.605469 317.386719 122.605469 C 319.074219 122.605469 320.722656 121.9375 321.945312 120.714844 L 372.480469 70.132812 C 374.132812 68.480469 374.757812 66.0625 374.132812 63.820312 " fill-opacity="1" fill-rule="nonzero"/></svg>