<svg xmlns="http://www.w3.org/2000/svg" xmlns:xlink="http://www.w3.org/1999/xlink" width="321" zoomAndPan="magnify" viewBox="0 0 240.75 141.750002" height="188" preserveAspectRatio="xMidYMid meet" version="1.0"><defs><clipPath id="99beb09a7d"><path d="M 39.425781 0 L 138 0 L 138 141.390625 L 39.425781 141.390625 Z M 39.425781 0 " clip-rule="nonzero"/></clipPath><clipPath id="6f1dcec410"><path d="M 70 0 L 170 0 L 170 141.390625 L 70 141.390625 Z M 70 0 " clip-rule="nonzero"/></clipPath><clipPath id="92849f769b"><path d="M 101 0 L 201.015625 0 L 201.015625 141.390625 L 101 141.390625 Z M 101 0 " clip-rule="nonzero"/></clipPath></defs><g clip-path="url(#99beb09a7d)"><path fill="#000000" d="M 39.539062 0.167969 L 39.425781 141.164062 L 137.285156 70.808594 Z M 39.539062 0.167969 " fill-opacity="1" fill-rule="nonzero"/></g><g clip-path="url(#6f1dcec410)"><path fill="#000000" d="M 72.4375 2.238281 L 167.335938 70.808594 L 72.382812 139.042969 L 72.4375 2.238281 M 72.4375 0 C 72.101562 0 71.769531 0.0585938 71.433594 0.226562 C 70.707031 0.617188 70.203125 1.398438 70.203125 2.238281 L 70.148438 139.042969 C 70.148438 139.878906 70.59375 140.664062 71.375 141.054688 C 71.710938 141.222656 72.046875 141.277344 72.382812 141.277344 C 72.828125 141.277344 73.277344 141.109375 73.667969 140.832031 L 168.621094 72.59375 C 169.179688 72.148438 169.570312 71.476562 169.570312 70.808594 C 169.570312 70.082031 169.234375 69.410156 168.621094 69.019531 L 73.777344 0.449219 C 73.386719 0.167969 72.941406 0 72.4375 0 Z M 72.4375 0 " fill-opacity="1" fill-rule="nonzero"/></g><g clip-path="url(#92849f769b)"><path fill="#000000" d="M 103.941406 2.347656 L 198.78125 70.917969 L 103.828125 139.152344 L 103.941406 2.347656 M 103.941406 0.113281 C 103.605469 0.113281 103.269531 0.167969 102.933594 0.335938 C 102.207031 0.726562 101.707031 1.511719 101.707031 2.347656 L 101.59375 139.152344 C 101.59375 139.992188 102.042969 140.773438 102.824219 141.164062 C 103.160156 141.332031 103.492188 141.390625 103.828125 141.390625 C 104.273438 141.390625 104.722656 141.222656 105.113281 140.941406 L 200.066406 72.707031 C 200.625 72.261719 201.015625 71.589844 201.015625 70.917969 C 201.015625 70.191406 200.679688 69.523438 200.066406 69.128906 L 105.28125 0.558594 C 104.890625 0.28125 104.386719 0.113281 103.941406 0.113281 Z M 103.941406 0.113281 " fill-opacity="1" fill-rule="nonzero"/></g></svg>