<svg xmlns="http://www.w3.org/2000/svg" xmlns:xlink="http://www.w3.org/1999/xlink" width="500" zoomAndPan="magnify" viewBox="0 0 375 374.999991" height="500" preserveAspectRatio="xMidYMid meet" version="1.0"><path fill="#100f0d" d="M 201.859375 362.300781 C 195.007812 362.300781 188.4375 361.480469 182.464844 359.800781 L 110.742188 339.152344 C 107.425781 338.171875 104.710938 335.980469 103.074219 332.972656 C 101.4375 329.964844 101.074219 326.488281 102.035156 323.203125 C 104.59375 314.558594 110.359375 307.429688 118.277344 303.121094 C 126.191406 298.8125 135.320312 297.835938 143.964844 300.390625 L 179.46875 310.511719 C 181.382812 311.050781 182.492188 313.054688 181.953125 314.964844 C 181.414062 316.878906 179.410156 317.988281 177.5 317.449219 L 141.949219 307.3125 C 135.117188 305.296875 127.945312 306.058594 121.722656 309.445312 C 115.503906 312.832031 110.960938 318.441406 108.960938 325.246094 C 108.535156 326.695312 108.695312 328.210938 109.410156 329.527344 C 110.128906 330.839844 111.3125 331.804688 112.757812 332.230469 L 184.449219 352.863281 C 200.589844 357.421875 221.898438 354.953125 240.035156 346.425781 C 251.179688 341.179688 261.796875 334.332031 272.078125 327.703125 C 277.480469 324.210938 283.074219 320.589844 288.726562 317.230469 C 313.921875 302.214844 341.214844 291.363281 369.871094 285.011719 C 371.8125 284.574219 373.726562 285.800781 374.164062 287.742188 C 374.601562 289.6875 373.375 291.613281 371.433594 292.035156 C 343.539062 298.242188 316.957031 308.804688 292.40625 323.421875 C 286.871094 326.722656 281.335938 330.300781 275.992188 333.746094 C 265.507812 340.507812 254.683594 347.503906 243.101562 352.953125 C 230.0625 359.085938 215.414062 362.300781 201.859375 362.300781 " fill-opacity="1" fill-rule="nonzero"/><path fill="#100f0d" d="M 207.085938 322.632812 C 199.566406 322.632812 192.292969 318.558594 188.582031 311.433594 C 183.28125 301.253906 187.253906 288.664062 197.433594 283.363281 L 211.921875 275.8125 C 224.90625 269.050781 236.195312 259.847656 245.453125 248.5 L 247.105469 246.46875 C 253.195312 238.964844 259.519531 231.195312 267.070312 224.492188 C 287.910156 206.015625 327.910156 191.132812 372.0625 209.988281 C 373.886719 210.777344 374.75 212.894531 373.960938 214.71875 C 373.1875 216.558594 371.054688 217.40625 369.226562 216.617188 C 328.175781 199.09375 291.121094 212.808594 271.859375 229.894531 C 264.730469 236.203125 258.613281 243.726562 252.699219 251.011719 L 251.03125 253.058594 C 241.160156 265.179688 229.113281 274.980469 215.25 282.207031 L 200.765625 289.742188 C 194.117188 293.21875 191.519531 301.457031 194.980469 308.101562 C 198.457031 314.761719 206.679688 317.347656 213.339844 313.886719 L 229.8125 305.3125 C 239.378906 300.316406 248.449219 294.316406 256.773438 287.421875 L 283.820312 265.046875 C 285.355469 263.777344 287.632812 263.996094 288.886719 265.53125 C 290.160156 267.0625 289.953125 269.339844 288.421875 270.613281 L 261.359375 292.984375 C 252.652344 300.1875 243.160156 306.480469 233.140625 311.695312 L 216.667969 320.28125 C 213.601562 321.875 210.328125 322.632812 207.085938 322.632812 " fill-opacity="1" fill-rule="nonzero"/><path fill="#100f0d" d="M 3.980469 92.332031 C 2.316406 92.332031 0.839844 91.179688 0.460938 89.5 C 0.0234375 87.558594 1.25 85.644531 3.191406 85.207031 C 31.085938 79 57.667969 68.441406 82.21875 53.820312 C 87.738281 50.519531 93.289062 46.957031 98.632812 43.496094 C 109.121094 36.734375 119.941406 29.738281 131.523438 24.304688 C 151.167969 15.058594 174.386719 12.429688 192.148438 17.457031 L 263.886719 38.089844 C 270.691406 40.105469 274.589844 47.25 272.589844 54.039062 C 270.035156 62.6875 264.265625 69.828125 256.347656 74.136719 C 248.433594 78.445312 239.304688 79.410156 230.660156 76.851562 L 195.15625 66.730469 C 193.242188 66.191406 192.132812 64.191406 192.671875 62.277344 C 193.214844 60.363281 195.214844 59.253906 197.128906 59.792969 L 232.675781 69.929688 C 239.511719 71.945312 246.679688 71.1875 252.902344 67.796875 C 259.125 64.410156 263.664062 58.800781 265.667969 51.996094 C 266.542969 49.03125 264.835938 45.890625 261.871094 45.015625 L 190.175781 24.378906 C 174.039062 19.835938 152.730469 22.304688 134.589844 30.820312 C 123.445312 36.0625 112.828125 42.925781 102.546875 49.554688 C 97.144531 53.046875 91.550781 56.652344 85.898438 60.011719 C 60.707031 75.027344 33.394531 85.878906 4.769531 92.246094 C 4.492188 92.304688 4.230469 92.332031 3.980469 92.332031 " fill-opacity="1" fill-rule="nonzero"/><path fill="#100f0d" d="M 44.054688 175.972656 C 31.015625 175.972656 17.007812 173.417969 2.566406 167.253906 C 0.738281 166.464844 -0.121094 164.347656 0.664062 162.523438 C 1.441406 160.683594 3.558594 159.835938 5.398438 160.625 C 46.4375 178.148438 83.503906 164.4375 102.765625 147.363281 C 109.894531 141.039062 116.011719 133.503906 121.941406 126.214844 L 123.59375 124.199219 C 133.464844 112.078125 145.515625 102.265625 159.375 95.050781 L 173.863281 87.5 C 177.089844 85.820312 179.457031 82.988281 180.550781 79.511719 C 181.644531 76.050781 181.324219 72.367188 179.644531 69.140625 C 177.964844 65.914062 175.132812 63.53125 171.65625 62.453125 C 168.195312 61.355469 164.515625 61.679688 161.289062 63.359375 L 144.8125 71.945312 C 135.234375 76.925781 126.179688 82.941406 117.851562 89.820312 L 90.804688 112.195312 C 89.273438 113.464844 86.992188 113.246094 85.722656 111.714844 C 84.453125 110.179688 84.671875 107.917969 86.207031 106.644531 L 113.269531 84.257812 C 121.972656 77.058594 131.464844 70.761719 141.46875 65.546875 L 157.957031 56.960938 C 162.878906 54.390625 168.515625 53.894531 173.832031 55.574219 C 179.132812 57.238281 183.472656 60.875 186.042969 65.8125 C 188.597656 70.734375 189.09375 76.371094 187.429688 81.6875 C 185.765625 86.988281 182.113281 91.324219 177.191406 93.894531 L 162.703125 101.433594 C 149.722656 108.195312 138.429688 117.394531 129.171875 128.757812 L 127.535156 130.773438 C 121.429688 138.28125 115.121094 146.050781 107.558594 152.753906 C 93.535156 165.179688 70.839844 175.972656 44.054688 175.972656 " fill-opacity="1" fill-rule="nonzero"/><path fill="#100f0d" d="M 155.125 148.75 C 144.230469 148.75 133.65625 154.871094 129.246094 163.792969 C 123.578125 175.257812 127.8125 188.871094 133.65625 197.777344 C 140.109375 207.609375 149.765625 215.363281 159.082031 222.855469 L 164.324219 227.046875 C 172.328125 233.441406 181.238281 240.542969 187.3125 249.261719 C 193.386719 240.542969 202.296875 233.429688 210.316406 227.046875 L 215.542969 222.855469 C 224.875 215.363281 234.515625 207.609375 240.96875 197.777344 C 246.8125 188.871094 251.046875 175.257812 245.382812 163.792969 C 240.898438 154.710938 229.988281 148.457031 218.902344 148.765625 C 206.867188 149.015625 195.636719 159.777344 190.015625 166.175781 C 188.65625 167.738281 185.96875 167.738281 184.609375 166.175781 C 178.988281 159.777344 167.757812 149.015625 155.722656 148.765625 C 155.519531 148.765625 155.3125 148.75 155.125 148.75 Z M 187.3125 259.820312 C 185.96875 259.820312 184.726562 259.058594 184.113281 257.863281 C 179.03125 248.003906 169.277344 240.21875 159.828125 232.683594 L 154.570312 228.476562 C 144.8125 220.636719 134.707031 212.515625 127.625 201.738281 C 120.6875 191.148438 115.765625 174.792969 122.773438 160.59375 C 128.457031 149.128906 141.367188 141.550781 155.09375 141.550781 C 155.359375 141.550781 155.605469 141.550781 155.871094 141.550781 C 168.808594 141.8125 180.347656 151.25 187.3125 158.476562 C 194.28125 151.25 205.816406 141.8125 218.757812 141.550781 C 232.703125 141.214844 246.066406 148.910156 251.851562 160.59375 C 258.859375 174.792969 253.9375 191.148438 247.003906 201.738281 C 239.917969 212.515625 229.828125 220.621094 220.054688 228.464844 L 214.8125 232.683594 C 205.363281 240.21875 195.59375 248.003906 190.511719 257.863281 C 189.898438 259.058594 188.65625 259.820312 187.3125 259.820312 " fill-opacity="1" fill-rule="nonzero"/></svg>