<svg width="359" height="25" viewBox="0 0 359 25" fill="none" xmlns="http://www.w3.org/2000/svg">
<g clip-path="url(#clip0_343_203)">
<path d="M238.586 16.4505C237.442 16.516 237.349 18.1039 238.438 18.3086C239.545 18.5412 240.702 18.4003 241.829 18.4298C279.504 18.4282 317.176 18.4282 354.851 18.4298C355.927 18.4077 357.022 18.5191 358.084 18.3405C358.624 18.2529 359.001 17.8033 358.994 17.3562C358.981 16.7019 358.23 16.3407 357.516 16.4005C319.251 16.4063 280.983 16.4005 242.717 16.4038C241.343 16.4341 239.958 16.3186 238.586 16.4505Z" fill="black"/>
<path d="M120.413 16.4505C121.556 16.516 121.649 18.1039 120.561 18.3086C119.453 18.5412 118.296 18.4003 117.168 18.4298C79.4947 18.4282 41.8213 18.4282 4.14791 18.4298C3.07083 18.4077 1.97623 18.5191 0.91473 18.3405C0.374243 18.2529 -0.00263659 17.8033 0.00418035 17.3562C0.0168404 16.7019 0.768653 16.3407 1.48151 16.4005C39.748 16.4062 78.0144 16.4005 116.282 16.4038C117.656 16.4341 119.041 16.3186 120.413 16.4505Z" fill="black"/>
<path d="M230.719 17.3243C230.615 18.7598 232.534 20.0079 234.147 19.4436C235.432 19.1079 236.16 17.8967 235.803 16.8198C235.544 15.9919 234.649 15.3007 233.613 15.254C232.157 15.0395 230.708 16.0852 230.719 17.3243ZM234.609 17.0434C234.998 17.7976 233.979 18.7148 233.046 18.5248C232.416 18.4069 231.913 17.891 231.933 17.3447C231.998 16.7846 232.569 16.3219 233.205 16.2138C233.813 16.2179 234.409 16.5545 234.609 17.0434Z" fill="black"/>
<path d="M128.275 17.3243C128.379 18.7598 126.46 20.0079 124.846 19.4436C123.561 19.1079 122.834 17.8967 123.191 16.8198C123.45 15.9919 124.345 15.3007 125.381 15.254C126.836 15.0395 128.286 16.0852 128.275 17.3243ZM124.385 17.0434C123.996 17.7976 125.014 18.7148 125.947 18.5248C126.577 18.4069 127.08 17.891 127.06 17.3447C126.996 16.7846 126.425 16.3219 125.789 16.2138C125.181 16.2179 124.585 16.5545 124.385 17.0434Z" fill="black"/>
<mask id="mask0_343_203" style="mask-type:luminance" maskUnits="userSpaceOnUse" x="129" y="-1" width="101" height="26">
<path d="M129.39 -0.0786037H229.611V24.9214H129.39V-0.0786037Z" fill="white"/>
</mask>
<g mask="url(#mask0_343_203)">
<path d="M179.494 21.572C180.106 21.5417 180.718 21.4975 181.328 21.4377C188.122 20.8563 194.571 18.6108 200.37 15.6496C203.251 14.205 205.818 12.3657 208.69 10.9089C211.539 9.44545 214.737 8.30551 218.115 8.21789C221.767 8.27521 225.308 10.1112 226.979 12.8464C228.251 14.906 228.37 17.371 227.653 19.587C227.232 20.966 226.48 22.3205 225.213 23.2934C224.018 24.2065 222.376 24.6413 220.774 24.5922C218.606 24.6446 216.256 23.9199 215.068 22.3205C213.7 20.541 214.256 17.8074 216.497 16.7207C218.07 15.9362 220.052 16.1598 221.633 16.8026C222.403 17.1032 222.587 17.8705 223.156 18.3463C223.334 17.8558 223.559 17.3374 223.38 16.8288C223.12 16.0238 222.358 15.3982 221.499 15.0174C220.171 14.4065 218.571 14.3319 217.115 14.6153C215.056 15.0362 213.405 16.5398 213.016 18.2841C212.75 19.5722 212.929 20.9619 213.758 22.0896C214.863 23.7053 217.057 24.62 219.213 24.7748C220.78 24.8068 222.401 24.8944 223.898 24.4243C226.176 23.7913 227.967 22.1813 228.747 20.2912C229.631 18.1334 229.671 15.7274 228.801 13.5622C227.708 10.8229 224.984 8.64782 221.758 7.70278C220.062 7.13855 218.196 7.18113 216.41 7.30643C212.113 7.86002 208.33 9.83853 204.909 11.9915C202.759 13.3738 200.563 14.7119 198.221 15.8617C192.528 18.6673 186.117 20.7064 179.495 21.0184C172.872 20.7064 166.461 18.6673 160.769 15.8617C158.426 14.7119 156.23 13.3738 154.08 11.9915C150.659 9.83853 146.876 7.86002 142.579 7.30643C140.793 7.18113 138.927 7.13855 137.232 7.70278C134.005 8.64782 131.281 10.8229 130.189 13.5622C129.318 15.7274 129.358 18.1334 130.242 20.2912C131.022 22.1813 132.812 23.7913 135.091 24.4243C136.589 24.8944 138.208 24.8068 139.775 24.7748C141.931 24.62 144.125 23.7053 145.232 22.0896C146.061 20.9619 146.24 19.5722 145.974 18.2841C145.584 16.5398 143.933 15.0362 141.874 14.6153C140.418 14.3319 138.818 14.4065 137.491 15.0174C136.631 15.3982 135.868 16.0238 135.609 16.8288C135.43 17.3374 135.656 17.8558 135.833 18.3463C136.403 17.8705 136.587 17.1032 137.355 16.8026C138.938 16.1598 140.92 15.9362 142.492 16.7207C144.733 17.8074 145.289 20.541 143.922 22.3205C142.734 23.9199 140.383 24.6446 138.215 24.5922C136.613 24.6413 134.971 24.2065 133.776 23.2934C132.509 22.3205 131.758 20.966 131.337 19.587C130.619 17.371 130.738 14.906 132.011 12.8464C133.681 10.1112 137.223 8.27521 140.875 8.21789C144.252 8.30551 147.45 9.44545 150.3 10.9089C153.172 12.3657 155.738 14.205 158.619 15.6496C164.419 18.6108 170.867 20.8563 177.662 21.4377C178.271 21.4975 178.882 21.5417 179.496 21.572H179.494ZM179.494 19.6402C182.834 19.5509 186.226 18.5723 188.603 16.5496C190.641 14.7643 192.038 12.5131 194.274 10.8786C195.406 9.98266 196.758 9.33407 198.037 8.60687C196.67 8.50123 195.33 8.19905 193.956 8.13599C191.871 8.11716 189.708 8.18595 187.785 8.94099C184.933 10.0195 182.898 12.1741 180.044 13.2452C179.863 13.3083 179.679 13.3664 179.494 13.4213C179.309 13.3664 179.125 13.3083 178.944 13.2452C176.089 12.1741 174.055 10.0195 171.202 8.94099C169.279 8.18595 167.116 8.11716 165.03 8.13599C163.657 8.19905 162.318 8.50123 160.951 8.60687C162.229 9.33407 163.581 9.98266 164.714 10.8786C166.95 12.5131 168.346 14.7643 170.384 16.5496C172.761 18.5723 176.152 19.5509 179.494 19.6402ZM179.494 14.6792C180.341 14.4507 181.152 14.1387 181.89 13.7153C184.436 12.3469 186.243 10.117 189.092 9.13835C191.641 8.34646 194.453 8.20314 197.083 8.79522C195.224 9.79267 193.412 10.8786 191.896 12.2371C189.828 14.0969 187.964 16.2908 185.086 17.321C183.319 17.9655 181.418 18.334 179.494 18.4339C177.569 18.334 175.668 17.9655 173.901 17.321C171.022 16.2908 169.159 14.0969 167.091 12.2371C165.575 10.8786 163.762 9.79267 161.903 8.79522C164.533 8.20314 167.346 8.34646 169.895 9.13835C172.744 10.117 174.55 12.3469 177.097 13.7153C177.835 14.1387 178.647 14.4507 179.494 14.6792ZM179.494 12.6785C181.129 11.7147 182.402 10.3127 183.093 8.73544C184.115 6.4179 183.993 3.56642 182.074 1.59446C181.385 0.868074 180.49 0.312027 179.494 -0.0605812C178.498 0.312027 177.602 0.868074 176.913 1.59446C174.994 3.56642 174.872 6.4179 175.893 8.73544C176.586 10.3127 177.859 11.7147 179.494 12.6785ZM179.494 0.407841C180.677 0.911477 181.684 1.696 182.296 2.69918C183.149 3.96441 183.235 5.47041 183.053 6.88714C182.713 8.89022 181.393 10.7639 179.494 11.9988C177.594 10.7639 176.274 8.89022 175.933 6.88714C175.752 5.47041 175.838 3.96441 176.692 2.69918C177.304 1.696 178.311 0.911477 179.494 0.407841Z" fill="black"/>
</g>
<path d="M208.745 20.7564C208.304 19.858 207.26 19.3233 206.318 18.8368C203.269 17.3701 199.513 17.4201 196.233 18.2718C194.476 18.7467 192.703 19.3102 191.229 20.2716C195.606 20.1766 199.539 22.0028 203.734 22.7349C205.02 22.9347 206.391 22.9028 207.608 22.4818C208.39 22.2222 209.082 21.4787 208.745 20.7564ZM204.035 21.649C200.293 21.0823 196.669 19.7925 192.812 19.8859C195.227 19.1144 197.804 18.6075 200.397 18.6313C203.012 18.7173 205.819 19.4183 207.52 21.1879C206.485 21.7252 205.217 21.8029 204.035 21.649Z" fill="black"/>
<path d="M150.255 20.7564C150.696 19.858 151.74 19.3233 152.681 18.8368C155.731 17.3701 159.487 17.4201 162.767 18.2718C164.524 18.7467 166.297 19.3102 167.77 20.2716C163.394 20.1766 159.46 22.0028 155.265 22.7349C153.98 22.9347 152.608 22.9028 151.391 22.4818C150.609 22.2222 149.918 21.4787 150.255 20.7564ZM154.964 21.649C158.707 21.0823 162.33 19.7925 166.188 19.8859C163.773 19.1144 161.196 18.6075 158.603 18.6313C155.988 18.7173 153.18 19.4183 151.48 21.1879C152.515 21.7252 153.783 21.8029 154.964 21.649Z" fill="black"/>
</g>
<defs>
<clipPath id="clip0_343_203">
<rect width="359" height="25" fill="white"/>
</clipPath>
</defs>
</svg>
