<svg width="1348" height="42" viewBox="0 0 1348 42" fill="none" xmlns="http://www.w3.org/2000/svg">
<g clip-path="url(#clip0_132_2671)">
<path d="M756.292 27.2461C754.7 27.3546 754.569 29.9846 756.086 30.3237C757.628 30.7089 759.239 30.4756 760.81 30.5244C813.281 30.5217 865.75 30.5217 918.221 30.5244C919.72 30.4878 921.245 30.6722 922.724 30.3766C923.477 30.2314 924.002 29.4868 923.992 28.7463C923.973 27.6625 922.927 27.0644 921.933 27.1634C868.639 27.1729 815.341 27.1634 762.045 27.1688C760.132 27.219 758.203 27.0278 756.292 27.2461Z" fill="black"/>
<path d="M591.706 27.2461C593.299 27.3546 593.427 29.9846 591.912 30.3237C590.369 30.7089 588.757 30.4756 587.187 30.5244C534.717 30.5217 482.247 30.5217 429.777 30.5244C428.277 30.4878 426.753 30.6722 425.274 30.3766C424.521 30.2314 423.996 29.4868 424.006 28.7463C424.024 27.6625 425.071 27.0644 426.064 27.1634C479.359 27.1729 532.655 27.1634 585.953 27.1688C587.866 27.219 589.795 27.0278 591.706 27.2461Z" fill="black"/>
<path d="M745.336 28.6934C745.191 31.071 747.864 33.1381 750.11 32.2036C751.9 31.6475 752.914 29.6414 752.416 27.8579C752.055 26.4866 750.809 25.3419 749.367 25.2645C747.339 24.9092 745.321 26.6412 745.336 28.6934ZM750.753 28.2281C751.295 29.4773 749.875 30.9964 748.576 30.6818C747.7 30.4864 746.999 29.6319 747.027 28.7273C747.117 27.7995 747.913 27.0332 748.798 26.8542C749.645 26.861 750.475 27.4184 750.753 28.2281Z" fill="black"/>
<path d="M602.656 28.6934C602.801 31.071 600.128 33.1381 597.88 32.2036C596.091 31.6475 595.078 29.6414 595.576 27.8579C595.936 26.4866 597.183 25.3419 598.625 25.2645C600.652 24.9092 602.671 26.6412 602.656 28.6934ZM597.239 28.2281C596.696 29.4773 598.115 30.9964 599.414 30.6818C600.292 30.4864 600.992 29.6319 600.964 28.7273C600.875 27.7995 600.079 27.0332 599.193 26.8542C598.347 26.861 597.517 27.4184 597.239 28.2281Z" fill="black"/>
<mask id="mask0_132_2671" style="mask-type:luminance" maskUnits="userSpaceOnUse" x="604" y="-1" width="140" height="43">
<path d="M604.209 -0.130127H743.792V41.2761H604.209V-0.130127Z" fill="white"/>
</mask>
<g mask="url(#mask0_132_2671)">
<path d="M673.991 35.7288C674.844 35.6786 675.696 35.6054 676.545 35.5063C686.008 34.5433 694.99 30.8243 703.067 25.9197C707.079 23.5272 710.654 20.4808 714.654 18.0679C718.623 15.6441 723.077 13.7561 727.781 13.611C732.867 13.7059 737.799 16.7468 740.126 21.277C741.898 24.6882 742.064 28.7708 741.065 32.441C740.479 34.7251 739.432 36.9685 737.667 38.5798C736.003 40.0921 733.716 40.8123 731.485 40.7309C728.466 40.8178 725.192 39.6174 723.537 36.9685C721.633 34.0211 722.407 29.4937 725.528 27.6938C727.718 26.3945 730.479 26.7647 732.681 27.8295C733.753 28.3272 734.009 29.5981 734.803 30.3862C735.049 29.5737 735.364 28.7152 735.115 27.8729C734.752 26.5396 733.69 25.5034 732.494 24.8727C730.645 23.8608 728.417 23.7374 726.388 24.2067C723.521 24.9039 721.222 27.3941 720.679 30.2831C720.309 32.4166 720.558 34.7183 721.713 36.586C723.252 39.262 726.308 40.7771 729.311 41.0334C731.493 41.0863 733.75 41.2314 735.836 40.4529C739.009 39.4045 741.503 36.7379 742.589 33.6075C743.821 30.0335 743.877 26.0486 742.664 22.4624C741.142 17.9255 737.348 14.3231 732.855 12.7579C730.494 11.8233 727.895 11.8939 725.407 12.1014C719.422 13.0183 714.154 16.2952 709.389 19.861C706.394 22.1505 703.336 24.3667 700.074 26.271C692.144 30.9179 683.216 34.2951 673.993 34.8119C664.768 34.2951 655.839 30.9179 647.912 26.271C644.65 24.3667 641.591 22.1505 638.596 19.861C633.832 16.2952 628.562 13.0183 622.578 12.1014C620.09 11.8939 617.492 11.8233 615.13 12.7579C610.637 14.3231 606.843 17.9255 605.321 22.4624C604.109 26.0486 604.164 30.0335 605.396 33.6075C606.482 36.7379 608.975 39.4045 612.149 40.4529C614.235 41.2314 616.491 41.0863 618.673 41.0334C621.676 40.7771 624.732 39.262 626.273 36.586C627.427 34.7183 627.676 32.4166 627.306 30.2831C626.764 27.3941 624.463 24.9039 621.596 24.2067C619.568 23.7374 617.34 23.8608 615.491 24.8727C614.293 25.5034 613.231 26.5396 612.871 27.8729C612.621 28.7152 612.936 29.5737 613.183 30.3862C613.976 29.5981 614.232 28.3272 615.303 27.8295C617.507 26.7647 620.267 26.3945 622.457 27.6938C625.578 29.4937 626.353 34.0211 624.448 36.9685C622.794 39.6174 619.519 40.8178 616.5 40.7309C614.269 40.8123 611.982 40.0921 610.318 38.5798C608.553 36.9685 607.506 34.7251 606.92 32.441C605.921 28.7708 606.086 24.6882 607.859 21.277C610.185 16.7468 615.118 13.7059 620.204 13.611C624.908 13.7561 629.362 15.6441 633.331 18.0679C637.331 20.4808 640.905 23.5272 644.918 25.9197C652.995 30.8243 661.977 34.5433 671.44 35.5063C672.288 35.6054 673.14 35.6786 673.994 35.7288H673.991ZM673.991 32.5292C678.644 32.3813 683.368 30.7605 686.678 27.4104C689.517 24.4535 691.462 20.725 694.576 18.0177C696.154 16.5339 698.036 15.4597 699.817 14.2553C697.913 14.0803 696.048 13.5798 694.134 13.4754C691.23 13.4442 688.218 13.5581 685.539 14.8086C681.566 16.5949 678.733 20.1635 674.758 21.9375C674.505 22.042 674.249 22.1383 673.991 22.2292C673.734 22.1383 673.477 22.042 673.225 21.9375C669.25 20.1635 666.416 16.5949 662.443 14.8086C659.765 13.5581 656.752 13.4442 653.847 13.4754C651.935 13.5798 650.07 14.0803 648.165 14.2553C649.946 15.4597 651.829 16.5339 653.406 18.0177C656.52 20.725 658.465 24.4535 661.304 27.4104C664.614 30.7605 669.338 32.3813 673.991 32.5292ZM673.991 24.3125C675.171 23.9341 676.301 23.4173 677.329 22.7161C680.875 20.4496 683.391 16.7563 687.359 15.1355C690.909 13.8239 694.826 13.5866 698.489 14.5672C695.9 16.2192 693.376 18.0177 691.264 20.2679C688.385 23.3481 685.789 26.9818 681.779 28.688C679.319 29.7555 676.671 30.3658 673.991 30.5313C671.311 30.3658 668.664 29.7555 666.202 28.688C662.193 26.9818 659.598 23.3481 656.717 20.2679C654.607 18.0177 652.081 16.2192 649.492 14.5672C653.155 13.5866 657.072 13.8239 660.622 15.1355C664.591 16.7563 667.107 20.4496 670.653 22.7161C671.681 23.4173 672.811 23.9341 673.991 24.3125ZM673.991 20.999C676.269 19.4025 678.041 17.0805 679.004 14.4682C680.427 10.6298 680.258 5.907 677.586 2.64094C676.625 1.43787 675.379 0.516913 673.991 -0.10022C672.604 0.516913 671.356 1.43787 670.397 2.64094C667.724 5.907 667.554 10.6298 668.977 14.4682C669.941 17.0805 671.714 19.4025 673.991 20.999ZM673.991 0.675605C675.639 1.50975 677.042 2.80912 677.893 4.47064C679.082 6.56618 679.202 9.06048 678.949 11.4069C678.475 14.7245 676.636 17.8278 673.991 19.8732C671.345 17.8278 669.507 14.7245 669.033 11.4069C668.78 9.06048 668.9 6.56618 670.089 4.47064C670.941 2.80912 672.343 1.50975 673.991 0.675605Z" fill="black"/>
</g>
<path d="M714.731 34.3778C714.117 32.8899 712.663 32.0042 711.351 31.1985C707.104 28.7693 701.873 28.8521 697.305 30.2627C694.858 31.0493 692.388 31.9825 690.336 33.5748C696.431 33.4175 701.91 36.4421 707.753 37.6547C709.543 37.9857 711.453 37.9328 713.148 37.2356C714.237 36.8056 715.2 35.5741 714.731 34.3778ZM708.172 35.8562C702.959 34.9176 697.912 32.7814 692.54 32.936C695.904 31.6583 699.493 30.8188 703.104 30.8581C706.746 31.0005 710.657 32.1615 713.025 35.0926C711.583 35.9823 709.817 36.1112 708.172 35.8562Z" fill="black"/>
<path d="M633.268 34.3778C633.883 32.8899 635.337 32.0042 636.648 31.1985C640.895 28.7693 646.126 28.8521 650.695 30.2627C653.141 31.0493 655.611 31.9825 657.663 33.5748C651.568 33.4175 646.09 36.4421 640.247 37.6547C638.456 37.9857 636.547 37.9328 634.851 37.2356C633.762 36.8056 632.799 35.5741 633.268 34.3778ZM639.828 35.8562C645.04 34.9176 650.087 32.7814 655.459 32.936C652.096 31.6583 648.507 30.8188 644.895 30.8581C641.253 31.0005 637.343 32.1615 634.975 35.0926C636.416 35.9823 638.182 36.1112 639.828 35.8562Z" fill="black"/>
</g>
<rect y="27" width="593" height="4" rx="2" fill="black"/>
<rect x="755" y="27" width="593" height="4" rx="2" fill="black"/>
<defs>
<clipPath id="clip0_132_2671">
<rect width="500" height="41.4062" fill="white" transform="translate(424)"/>
</clipPath>
</defs>
</svg>
