<svg width="63" height="66" viewBox="0 0 63 66" fill="none" xmlns="http://www.w3.org/2000/svg">
<path d="M61 15.0382L49.5917 2.33192C49.402 2.12067 49.1315 2 48.8476 2H39.9286M61 15.0382L32.4365 63M61 15.0382H2M32.4365 63L2 15.0382M32.4365 63L19.8773 15.3554C19.8229 15.1493 19.8359 14.9313 19.9142 14.7331L24.9444 2M32.4365 63L44.9957 15.3554C45.0501 15.1493 45.0371 14.9313 44.9588 14.7331L39.9286 2M2 15.0382L15.2891 2.27867C15.4754 2.09985 15.7235 2 15.9817 2H24.9444M24.9444 2H39.9286" stroke="#F8F4DE" stroke-width="3" stroke-linecap="round"/>
</svg>
