<svg width="63" height="61" viewBox="0 0 63 61" fill="none" xmlns="http://www.w3.org/2000/svg">
<path d="M42.4516 3.83871C38.5709 2.01637 36.0531 2 31.45 2C15.1852 2 2 14.7599 2 30.5C2 46.2401 15.1852 59 31.45 59C47.7148 59 60.9 46.2401 60.9 30.5C60.9 26.0512 59.9591 23.2196 58.0806 19.4677" stroke="#F8F4DE" stroke-width="4" stroke-linecap="round"/>
<path d="M36.5977 10.7053C34.8112 10.2362 33.3616 10.2749 31.4193 10.2749C19.7412 10.2749 10.2742 19.3302 10.2742 30.5004C10.2742 41.6706 19.7412 50.7258 31.4193 50.7258C43.0975 50.7258 52.5645 41.6706 52.5645 30.5004C52.5645 28.0828 52.0833 26.1945 51.2699 24.0454" stroke="#F8F4DE" stroke-width="4" stroke-linecap="round"/>
<path d="M33.7179 19.6975C32.9765 19.547 32.2076 19.4678 31.4195 19.4678C25.3265 19.4678 20.3872 24.2013 20.3872 30.0404C20.3872 35.8794 25.3265 40.6129 31.4195 40.6129C37.5124 40.6129 42.4517 35.8794 42.4517 30.0404C42.4517 29.0862 42.3198 28.1616 42.0726 27.2823" stroke="#F8F4DE" stroke-width="4" stroke-linecap="round"/>
<path d="M42.8662 12.4103L52.0156 3.26085C52.1416 3.13486 52.357 3.2241 52.357 3.40228V8.53213C52.357 8.64259 52.4466 8.73213 52.557 8.73213H58.5036C58.6836 8.73213 58.772 8.95148 58.6422 9.0763L48.2632 19.0561C48.2259 19.0919 48.1763 19.1119 48.1246 19.1119H43.0076C42.8972 19.1119 42.8076 19.0224 42.8076 18.9119V12.5517C42.8076 12.4987 42.8287 12.4478 42.8662 12.4103Z" stroke="#F8F4DE" stroke-width="3"/>
<path d="M42.8076 19.1118L31.4194 30.9597" stroke="#F8F4DE" stroke-width="3" stroke-linecap="round"/>
</svg>
