<svg xmlns="http://www.w3.org/2000/svg" xmlns:xlink="http://www.w3.org/1999/xlink" width="500" zoomAndPan="magnify" viewBox="0 0 375 374.999991" height="500" preserveAspectRatio="xMidYMid meet" version="1.0"><path fill="#000000" d="M 186.382812 -0.183594 C 185.957031 -0.183594 185.53125 -0.144531 185.113281 -0.0625 C 184.691406 0.0195312 184.285156 0.140625 183.890625 0.304688 C 183.492188 0.46875 183.117188 0.667969 182.761719 0.90625 C 182.40625 1.144531 182.078125 1.414062 181.773438 1.714844 C 181.472656 2.019531 181.203125 2.347656 180.964844 2.703125 C 180.726562 3.058594 180.527344 3.4375 180.363281 3.832031 C 180.199219 4.226562 180.078125 4.636719 179.996094 5.054688 C 179.914062 5.476562 179.875 5.898438 179.875 6.328125 L 179.875 56.496094 C 179.878906 56.921875 179.921875 57.34375 180.003906 57.761719 C 180.089844 58.179688 180.214844 58.582031 180.378906 58.976562 C 180.542969 59.367188 180.746094 59.742188 180.980469 60.09375 C 181.21875 60.449219 181.488281 60.773438 181.792969 61.074219 C 182.09375 61.375 182.421875 61.640625 182.777344 61.875 C 183.132812 62.113281 183.507812 62.308594 183.902344 62.472656 C 184.292969 62.632812 184.699219 62.753906 185.117188 62.835938 C 185.535156 62.917969 185.957031 62.957031 186.382812 62.957031 C 186.808594 62.953125 187.226562 62.914062 187.644531 62.828125 C 188.058594 62.746094 188.464844 62.625 188.855469 62.460938 C 189.246094 62.296875 189.617188 62.097656 189.972656 61.863281 C 190.324219 61.628906 190.652344 61.359375 190.949219 61.0625 C 191.25 60.761719 191.519531 60.433594 191.753906 60.082031 C 191.992188 59.730469 192.191406 59.359375 192.355469 58.96875 C 192.519531 58.574219 192.640625 58.171875 192.726562 57.757812 C 192.808594 57.339844 192.851562 56.921875 192.855469 56.496094 L 192.855469 6.328125 C 192.855469 5.902344 192.816406 5.476562 192.734375 5.058594 C 192.652344 4.640625 192.53125 4.234375 192.367188 3.839844 C 192.207031 3.445312 192.007812 3.070312 191.773438 2.714844 C 191.539062 2.359375 191.269531 2.03125 190.96875 1.730469 C 190.667969 1.425781 190.339844 1.15625 189.988281 0.917969 C 189.632812 0.679688 189.261719 0.480469 188.867188 0.316406 C 188.472656 0.152344 188.066406 0.0273438 187.648438 -0.0546875 C 187.230469 -0.140625 186.808594 -0.183594 186.382812 -0.183594 Z M 78.605469 28.1875 C 77.339844 28.140625 76.160156 28.433594 75.070312 29.074219 C 74.707031 29.289062 74.367188 29.539062 74.050781 29.824219 C 73.734375 30.105469 73.449219 30.417969 73.191406 30.757812 C 72.9375 31.097656 72.71875 31.457031 72.535156 31.839844 C 72.351562 32.222656 72.207031 32.617188 72.097656 33.027344 C 71.992188 33.4375 71.925781 33.855469 71.902344 34.28125 C 71.878906 34.703125 71.894531 35.125 71.953125 35.546875 C 72.011719 35.964844 72.109375 36.375 72.25 36.777344 C 72.386719 37.179688 72.566406 37.5625 72.777344 37.929688 L 98.382812 81.398438 C 98.597656 81.765625 98.847656 82.109375 99.132812 82.429688 C 99.417969 82.746094 99.730469 83.035156 100.070312 83.292969 C 100.410156 83.550781 100.773438 83.769531 101.160156 83.957031 C 101.542969 84.140625 101.941406 84.289062 102.355469 84.394531 C 102.769531 84.5 103.191406 84.566406 103.617188 84.589844 C 104.042969 84.613281 104.46875 84.59375 104.890625 84.535156 C 105.3125 84.472656 105.726562 84.371094 106.128906 84.230469 C 106.53125 84.085938 106.917969 83.90625 107.285156 83.6875 C 107.652344 83.472656 107.996094 83.222656 108.3125 82.9375 C 108.632812 82.65625 108.921875 82.34375 109.179688 82 C 109.433594 81.660156 109.65625 81.296875 109.839844 80.910156 C 110.027344 80.527344 110.171875 80.128906 110.28125 79.714844 C 110.386719 79.300781 110.449219 78.878906 110.472656 78.453125 C 110.496094 78.027344 110.480469 77.601562 110.417969 77.179688 C 110.359375 76.757812 110.257812 76.34375 110.117188 75.941406 C 109.972656 75.539062 109.792969 75.152344 109.574219 74.785156 L 83.921875 31.367188 C 83.363281 30.421875 82.609375 29.664062 81.667969 29.101562 C 80.722656 28.535156 79.703125 28.234375 78.605469 28.1875 Z M 294.164062 28.1875 C 293.066406 28.234375 292.042969 28.535156 291.101562 29.101562 C 290.15625 29.664062 289.40625 30.421875 288.847656 31.367188 L 263.203125 74.785156 C 262.988281 75.152344 262.808594 75.539062 262.664062 75.941406 C 262.523438 76.34375 262.421875 76.757812 262.359375 77.179688 C 262.300781 77.601562 262.28125 78.027344 262.304688 78.453125 C 262.328125 78.878906 262.394531 79.300781 262.5 79.714844 C 262.605469 80.128906 262.753906 80.527344 262.9375 80.910156 C 263.125 81.296875 263.34375 81.660156 263.601562 82 C 263.859375 82.34375 264.148438 82.65625 264.464844 82.9375 C 264.785156 83.222656 265.128906 83.472656 265.496094 83.691406 C 265.863281 83.90625 266.25 84.085938 266.652344 84.230469 C 267.054688 84.371094 267.46875 84.472656 267.890625 84.535156 C 268.3125 84.59375 268.738281 84.613281 269.164062 84.589844 C 269.589844 84.566406 270.011719 84.5 270.421875 84.394531 C 270.835938 84.289062 271.238281 84.140625 271.621094 83.957031 C 272.007812 83.769531 272.367188 83.550781 272.710938 83.292969 C 273.050781 83.035156 273.363281 82.746094 273.648438 82.429688 C 273.933594 82.109375 274.183594 81.765625 274.398438 81.398438 L 300 37.929688 C 300.214844 37.5625 300.390625 37.179688 300.53125 36.777344 C 300.667969 36.375 300.769531 35.964844 300.828125 35.546875 C 300.882812 35.125 300.902344 34.703125 300.878906 34.28125 C 300.851562 33.855469 300.789062 33.4375 300.679688 33.027344 C 300.574219 32.617188 300.429688 32.222656 300.246094 31.839844 C 300.0625 31.457031 299.839844 31.097656 299.585938 30.757812 C 299.332031 30.417969 299.046875 30.105469 298.730469 29.824219 C 298.414062 29.539062 298.074219 29.292969 297.710938 29.074219 C 296.613281 28.433594 295.433594 28.136719 294.164062 28.1875 Z M 88.707031 114.46875 C 88.140625 114.46875 87.585938 114.539062 87.039062 114.683594 C 86.492188 114.832031 85.972656 115.042969 85.484375 115.324219 C 84.992188 115.605469 84.546875 115.945312 84.144531 116.34375 C 83.742188 116.742188 83.398438 117.183594 83.113281 117.671875 L 33.78125 202.429688 C 33.734375 202.503906 33.695312 202.574219 33.652344 202.648438 L 33.539062 202.839844 C 33.285156 203.28125 33.085938 203.742188 32.945312 204.230469 C 32.890625 204.4375 32.847656 204.644531 32.816406 204.851562 C 32.734375 205.28125 32.695312 205.71875 32.703125 206.15625 C 32.695312 206.351562 32.695312 206.546875 32.703125 206.738281 C 32.765625 207.289062 32.898438 207.820312 33.097656 208.335938 C 33.183594 208.558594 33.285156 208.78125 33.398438 208.992188 C 33.621094 209.433594 33.886719 209.84375 34.199219 210.222656 C 34.246094 210.300781 34.296875 210.375 34.347656 210.449219 L 183.089844 373.890625 C 183.394531 374.222656 183.730469 374.519531 184.097656 374.78125 C 184.460938 375.046875 184.851562 375.265625 185.261719 375.449219 C 185.675781 375.632812 186.101562 375.769531 186.542969 375.859375 C 186.980469 375.953125 187.425781 376 187.878906 376 C 188.328125 376 188.773438 375.953125 189.214844 375.859375 C 189.65625 375.769531 190.082031 375.632812 190.492188 375.449219 C 190.90625 375.265625 191.292969 375.046875 191.660156 374.78125 C 192.027344 374.519531 192.359375 374.222656 192.664062 373.890625 L 341.355469 210.449219 C 341.507812 210.269531 341.652344 210.078125 341.785156 209.878906 C 341.792969 209.863281 341.800781 209.847656 341.8125 209.828125 C 342.066406 209.480469 342.285156 209.109375 342.46875 208.714844 C 342.476562 208.6875 342.484375 208.664062 342.492188 208.636719 C 342.574219 208.457031 342.644531 208.269531 342.710938 208.082031 C 342.769531 207.902344 342.816406 207.71875 342.859375 207.535156 C 343.023438 206.832031 343.066406 206.117188 342.988281 205.394531 C 342.902344 204.550781 342.65625 203.753906 342.253906 203.003906 C 342.226562 202.945312 342.195312 202.890625 342.164062 202.839844 L 292.632812 117.671875 C 292.34375 117.179688 291.996094 116.734375 291.589844 116.335938 C 291.183594 115.933594 290.734375 115.59375 290.238281 115.3125 C 289.742188 115.03125 289.21875 114.820312 288.667969 114.675781 C 288.113281 114.535156 287.554688 114.464844 286.984375 114.46875 Z M 100.003906 127.449219 L 176.582031 127.449219 L 138.292969 193.222656 Z M 199.160156 127.449219 L 275.703125 127.449219 L 237.449219 193.222656 Z M 88.707031 133.859375 L 127 199.582031 L 50.480469 199.582031 Z M 187.878906 133.859375 L 226.15625 199.582031 L 149.585938 199.582031 Z M 286.984375 133.910156 L 325.273438 199.582031 L 248.746094 199.582031 Z M 53.824219 212.5625 L 133.46875 212.5625 L 173.277344 343.820312 Z M 147.042969 212.5625 L 228.699219 212.5625 L 187.878906 347.101562 Z M 242.238281 212.5625 L 321.917969 212.5625 L 202.4375 343.859375 Z M 242.238281 212.5625 " fill-opacity="1" fill-rule="nonzero"/></svg>