<svg xmlns="http://www.w3.org/2000/svg" xmlns:xlink="http://www.w3.org/1999/xlink" width="500" zoomAndPan="magnify" viewBox="0 0 375 374.999991" height="500" preserveAspectRatio="xMidYMid meet" version="1.0"><defs><clipPath id="56b4f58c42"><path d="M 181 31.171875 L 193 31.171875 L 193 77 L 181 77 Z M 181 31.171875 " clip-rule="nonzero"/></clipPath><clipPath id="a642ccdc07"><path d="M 181 297 L 193 297 L 193 343.921875 L 181 343.921875 Z M 181 297 " clip-rule="nonzero"/></clipPath></defs><g clip-path="url(#56b4f58c42)"><path fill="#010101" d="M 187.21875 76.980469 C 190.609375 76.980469 192.871094 74.71875 192.871094 71.324219 L 192.871094 36.828125 C 192.871094 33.433594 190.609375 31.171875 187.21875 31.171875 C 183.824219 31.171875 181.5625 33.433594 181.5625 36.828125 L 181.5625 71.890625 C 181.5625 74.71875 183.824219 76.980469 187.21875 76.980469 Z M 187.21875 76.980469 " fill-opacity="1" fill-rule="nonzero"/></g><g clip-path="url(#a642ccdc07)"><path fill="#010101" d="M 187.21875 297.546875 C 183.824219 297.546875 181.5625 299.808594 181.5625 303.203125 L 181.5625 338.265625 C 181.5625 341.660156 183.824219 343.921875 187.21875 343.921875 C 190.609375 343.921875 192.871094 341.660156 192.871094 338.265625 L 192.871094 303.203125 C 192.871094 299.808594 190.609375 297.546875 187.21875 297.546875 Z M 187.21875 297.546875 " fill-opacity="1" fill-rule="nonzero"/></g><path fill="#010101" d="M 296.902344 109.785156 L 328.5625 84.898438 C 330.824219 83.203125 331.390625 79.242188 329.695312 76.980469 C 327.996094 74.71875 324.039062 74.152344 321.777344 75.851562 L 290.117188 100.734375 C 287.855469 102.429688 287.289062 106.390625 288.984375 108.652344 C 290.683594 111.480469 294.074219 111.480469 296.902344 109.785156 Z M 296.902344 109.785156 " fill-opacity="1" fill-rule="nonzero"/><path fill="#010101" d="M 77.53125 264.746094 L 45.871094 289.0625 C 43.609375 290.761719 43.042969 294.71875 44.742188 296.980469 C 46.4375 299.242188 50.394531 299.808594 52.65625 298.113281 L 84.316406 273.226562 C 86.578125 271.53125 87.144531 267.574219 85.449219 265.308594 C 83.753906 263.046875 80.359375 263.046875 77.53125 264.746094 Z M 77.53125 264.746094 " fill-opacity="1" fill-rule="nonzero"/><path fill="#010101" d="M 296.902344 264.746094 C 294.640625 263.046875 290.683594 263.046875 288.984375 265.875 C 287.289062 268.136719 287.289062 272.097656 290.117188 273.792969 L 321.777344 298.679688 C 324.039062 300.375 327.996094 300.375 329.695312 297.546875 C 331.390625 295.285156 331.390625 291.324219 328.5625 289.628906 Z M 296.902344 264.746094 " fill-opacity="1" fill-rule="nonzero"/><path fill="#010101" d="M 77.53125 109.785156 C 79.792969 111.480469 83.753906 111.480469 85.449219 108.652344 C 87.144531 106.390625 87.144531 102.429688 84.316406 100.734375 L 52.65625 75.851562 C 50.394531 74.152344 46.4375 74.152344 44.742188 76.980469 C 43.042969 79.808594 43.042969 83.203125 45.871094 84.898438 Z M 77.53125 109.785156 " fill-opacity="1" fill-rule="nonzero"/><path fill="#010101" d="M 243.191406 85.464844 C 246.015625 87.160156 249.410156 86.03125 251.105469 83.203125 L 268.632812 50.964844 C 270.328125 48.136719 269.199219 44.746094 266.371094 43.046875 C 263.542969 41.351562 260.152344 42.484375 258.457031 45.3125 L 240.929688 77.546875 C 239.234375 80.375 240.363281 83.769531 243.191406 85.464844 Z M 243.191406 85.464844 " fill-opacity="1" fill-rule="nonzero"/><path fill="#010101" d="M 131.246094 289.0625 C 128.417969 287.367188 125.023438 288.496094 123.328125 291.324219 L 105.800781 323.5625 C 104.105469 326.390625 105.238281 329.78125 108.0625 331.480469 C 110.890625 333.175781 114.28125 332.046875 115.980469 329.21875 L 133.507812 296.980469 C 135.203125 294.152344 134.070312 290.761719 131.246094 289.0625 Z M 131.246094 289.0625 " fill-opacity="1" fill-rule="nonzero"/><path fill="#010101" d="M 368.703125 240.425781 L 327.433594 226.851562 C 324.605469 225.722656 321.210938 227.417969 320.082031 230.246094 C 318.953125 233.074219 320.648438 236.46875 323.472656 237.597656 L 364.746094 251.171875 C 367.574219 252.300781 370.964844 250.605469 372.097656 247.777344 C 373.226562 244.949219 371.53125 241.558594 368.703125 240.425781 Z M 368.703125 240.425781 " fill-opacity="1" fill-rule="nonzero"/><path fill="#010101" d="M 5.730469 134.101562 L 47.003906 147.675781 C 49.828125 148.804688 53.222656 147.109375 54.351562 144.28125 C 55.484375 141.453125 53.789062 138.0625 50.960938 136.929688 L 9.6875 123.355469 C 6.859375 122.226562 3.46875 123.921875 2.335938 126.75 C 1.207031 129.578125 2.902344 132.972656 5.730469 134.101562 Z M 5.730469 134.101562 " fill-opacity="1" fill-rule="nonzero"/><path fill="#010101" d="M 321.210938 145.414062 C 322.34375 148.242188 325.171875 149.9375 328.5625 149.371094 L 370.402344 136.363281 C 373.226562 135.234375 374.925781 132.40625 374.359375 129.011719 C 373.226562 126.183594 370.402344 124.488281 367.007812 125.054688 L 325.171875 138.0625 C 321.777344 139.191406 320.082031 142.585938 321.210938 145.414062 Z M 321.210938 145.414062 " fill-opacity="1" fill-rule="nonzero"/><path fill="#010101" d="M 53.222656 229.113281 C 52.089844 226.289062 49.265625 224.589844 45.871094 225.15625 L 4.597656 238.164062 C 1.773438 239.292969 0.0742188 242.121094 0.640625 245.515625 C 1.773438 248.34375 4.597656 250.039062 7.992188 249.476562 L 49.828125 236.46875 C 52.65625 235.335938 54.351562 231.941406 53.222656 229.113281 Z M 53.222656 229.113281 " fill-opacity="1" fill-rule="nonzero"/><path fill="#010101" d="M 248.277344 291.890625 C 246.582031 289.0625 243.191406 287.933594 240.363281 289.628906 C 237.535156 291.324219 236.40625 294.71875 238.101562 297.546875 L 255.0625 329.78125 C 256.757812 332.609375 260.152344 333.742188 262.976562 332.046875 C 265.804688 330.347656 266.9375 326.957031 265.238281 324.128906 Z M 248.277344 291.890625 " fill-opacity="1" fill-rule="nonzero"/><path fill="#010101" d="M 126.15625 82.636719 C 127.851562 85.464844 131.246094 86.597656 134.070312 84.898438 C 136.898438 83.203125 138.027344 79.808594 136.332031 76.980469 L 119.371094 44.746094 C 117.675781 41.917969 114.28125 40.785156 111.457031 42.484375 C 108.628906 44.179688 107.5 47.574219 109.195312 50.402344 Z M 126.15625 82.636719 " fill-opacity="1" fill-rule="nonzero"/><path fill="#010101" d="M 187.21875 111.480469 C 106.367188 111.480469 41.914062 180.476562 39.085938 183.304688 C 36.824219 185.566406 36.824219 188.960938 39.085938 191.222656 C 41.914062 194.050781 106.367188 263.046875 187.21875 263.046875 C 268.066406 263.046875 332.519531 194.050781 335.347656 191.222656 C 337.609375 188.960938 337.609375 185.566406 335.347656 183.304688 C 332.519531 180.476562 268.066406 111.480469 187.21875 111.480469 Z M 187.21875 251.738281 C 151.597656 251.738281 122.765625 222.894531 122.765625 187.265625 C 122.765625 151.632812 151.597656 122.792969 187.21875 122.792969 C 222.835938 122.792969 251.671875 151.632812 251.671875 187.265625 C 251.671875 222.894531 222.835938 251.738281 187.21875 251.738281 Z M 134.636719 132.972656 C 120.503906 146.542969 111.457031 165.773438 111.457031 187.265625 C 111.457031 208.753906 120.503906 227.984375 134.636719 241.558594 C 93.363281 226.289062 61.703125 197.445312 51.527344 187.265625 C 61.703125 177.085938 93.363281 148.242188 134.636719 132.972656 Z M 239.796875 241.558594 C 253.933594 227.984375 262.976562 208.753906 262.976562 187.265625 C 262.976562 165.773438 253.933594 146.542969 239.796875 132.972656 C 281.070312 148.242188 312.730469 177.085938 322.910156 187.265625 C 312.730469 197.445312 281.070312 226.289062 239.796875 241.558594 Z M 239.796875 241.558594 " fill-opacity="1" fill-rule="nonzero"/><path fill="#010101" d="M 187.21875 144.28125 C 163.472656 144.28125 144.25 163.511719 144.25 187.265625 C 144.25 211.015625 163.472656 230.246094 187.21875 230.246094 C 210.964844 230.246094 230.1875 211.015625 230.1875 187.265625 C 230.1875 163.511719 210.964844 144.28125 187.21875 144.28125 Z M 187.21875 218.933594 C 169.691406 218.933594 155.554688 204.796875 155.554688 187.265625 C 155.554688 169.730469 169.691406 155.59375 187.21875 155.59375 C 204.742188 155.59375 218.878906 169.730469 218.878906 187.265625 C 218.878906 204.796875 204.742188 218.933594 187.21875 218.933594 Z M 187.21875 218.933594 " fill-opacity="1" fill-rule="nonzero"/></svg>