<svg width="22" height="22" viewBox="0 0 22 22" fill="none" xmlns="http://www.w3.org/2000/svg">
<path fill-rule="evenodd" clip-rule="evenodd" d="M16.4064 13.1177L14.1027 11.9158C13.9585 12.5 13.5417 13.1607 13.1253 13.3343C12.6768 13.5207 11.8063 12.8485 11.5183 12.642C11.1388 12.37 9.09747 10.7017 9.40568 10.0368C9.44626 9.9491 9.61456 9.84134 9.71091 9.74952C10.0449 9.4311 10.3372 9.09396 10.1198 8.54616C9.51787 7.02958 9.64558 6.45198 8.6071 6.48905C7.69799 6.52128 7.11622 7.52471 6.92549 8.42039C6.54402 10.2093 8.18307 12.1226 9.21527 13.2484C10.4059 14.546 14.4344 16.4721 15.822 14.9579C16.1793 14.5678 16.4598 13.87 16.4064 13.1177ZM11.5242 0C17.3099 0 22 4.925 22 11C22 17.075 17.3099 22 11.5242 22C8.66716 22 6.07808 20.7987 4.18823 18.8518C-1.14371 18.9208 -0.705159 19.0025 1.75127 14.9683C1.29721 13.7373 1.04807 12.3991 1.04807 11C1.04807 4.925 5.73852 0 11.5242 0ZM4.78518 17.2912L5.22407 17.7434C6.91262 19.4828 9.15818 20.447 11.5242 20.447C16.4935 20.447 20.5213 16.2178 20.5213 11C20.5213 5.78222 16.4935 1.55297 11.5242 1.55297C6.55491 1.55297 2.52707 5.78222 2.52707 11C2.52707 12.1666 2.72936 13.3194 3.13029 14.4077L3.40121 15.1416C1.58397 18.1259 1.97566 17.3276 4.78518 17.2912Z" fill="black"/>
</svg>
